<svg width="52" height="51" viewBox="0 0 52 51" fill="none" xmlns="http://www.w3.org/2000/svg">
<path opacity="0.7" d="M51.2721 25.1978C51.2721 39.0049 39.9194 50.1978 25.915 50.1978C11.9106 50.1978 0.557861 39.0049 0.557861 25.1978C0.557861 11.3906 11.9106 0.197754 25.915 0.197754C39.9194 0.197754 51.2721 11.3906 51.2721 25.1978ZM4.36143 25.1978C4.36143 36.9338 14.0113 46.4478 25.915 46.4478C37.8187 46.4478 47.4686 36.9338 47.4686 25.1978C47.4686 13.4617 37.8187 3.94775 25.915 3.94775C14.0113 3.94775 4.36143 13.4617 4.36143 25.1978Z" fill="#E4E4E4"/>
<path d="M25.915 2.07275C25.915 1.03722 26.7557 0.190634 27.7885 0.266045C33.287 0.667535 38.5226 2.82792 42.684 6.44497C47.3157 10.4709 50.2983 16.0247 51.0722 22.0644C51.8461 28.1042 50.3581 34.2148 46.8874 39.2498C43.7675 43.776 39.238 47.1535 34.0099 48.8897C33.031 49.2148 32.0113 48.6068 31.7514 47.6086V47.6086C31.4889 46.6008 32.1009 45.5797 33.0846 45.2377C37.4064 43.7348 41.1472 40.9057 43.7415 37.142C46.6916 32.8622 47.9564 27.6682 47.2986 22.5344C46.6408 17.4006 44.1056 12.6799 40.1686 9.25789C36.7023 6.24493 32.359 4.42107 27.7878 4.02809C26.7561 3.93939 25.915 3.10829 25.915 2.07275V2.07275Z" fill="#654DE4" fill-opacity="0.75"/>
<path d="M29.1667 16.6666H20.8334C19.9129 16.6666 19.1667 17.4128 19.1667 18.3333V31.6666C19.1667 32.5871 19.9129 33.3333 20.8334 33.3333H29.1667C30.0872 33.3333 30.8334 32.5871 30.8334 31.6666V18.3333C30.8334 17.4128 30.0872 16.6666 29.1667 16.6666Z" stroke="#D1D1D1" stroke-width="2" stroke-linecap="round" stroke-linejoin="round"/>
<path d="M25 30H25.0083" stroke="#D1D1D1" stroke-width="2" stroke-linecap="round" stroke-linejoin="round"/>
</svg>
