<svg width="52" height="51" viewBox="0 0 52 51" fill="none" xmlns="http://www.w3.org/2000/svg">
<path opacity="0.7" d="M51.2721 25.1978C51.2721 39.0049 39.9194 50.1978 25.915 50.1978C11.9106 50.1978 0.557861 39.0049 0.557861 25.1978C0.557861 11.3906 11.9106 0.197754 25.915 0.197754C39.9194 0.197754 51.2721 11.3906 51.2721 25.1978ZM4.36143 25.1978C4.36143 36.9338 14.0113 46.4478 25.915 46.4478C37.8187 46.4478 47.4686 36.9338 47.4686 25.1978C47.4686 13.4617 37.8187 3.94775 25.915 3.94775C14.0113 3.94775 4.36143 13.4617 4.36143 25.1978Z" fill="#E4E4E4"/>
<path d="M25.915 2.07275C25.915 1.03722 26.7557 0.190634 27.7885 0.266045C33.287 0.667535 38.5226 2.82792 42.684 6.44497C47.3157 10.4709 50.2983 16.0247 51.0722 22.0644C51.8461 28.1042 50.3581 34.2148 46.8874 39.2498C43.7675 43.776 39.238 47.1535 34.0099 48.8897C33.031 49.2148 32.0113 48.6068 31.7514 47.6087C31.4889 46.6008 32.1009 45.5797 33.0846 45.2377C37.4064 43.7348 41.1472 40.9057 43.7415 37.142C46.6916 32.8622 47.9564 27.6682 47.2986 22.5344C46.6408 17.4006 44.1056 12.6799 40.1686 9.25789C36.7023 6.24493 32.359 4.42107 27.7878 4.02809C26.7561 3.93939 25.915 3.10829 25.915 2.07275Z" fill="#654DE4" fill-opacity="0.75"/>
<path d="M31.8333 31.6666H20.1666C19.9456 31.6666 19.7337 31.7544 19.5774 31.9107C19.4211 32.067 19.3333 32.2789 19.3333 32.5C19.3333 32.721 19.4211 32.9329 19.5774 33.0892C19.7337 33.2455 19.9456 33.3333 20.1666 33.3333H31.8333C32.0543 33.3333 32.2663 33.2455 32.4226 33.0892C32.5788 32.9329 32.6666 32.721 32.6666 32.5C32.6666 32.2789 32.5788 32.067 32.4226 31.9107C32.2663 31.7544 32.0543 31.6666 31.8333 31.6666ZM23.2583 21.425L25.1666 19.5083V29.1666C25.1666 29.3876 25.2544 29.5996 25.4107 29.7559C25.567 29.9122 25.779 30 26 30C26.221 30 26.433 29.9122 26.5892 29.7559C26.7455 29.5996 26.8333 29.3876 26.8333 29.1666V19.5083L28.7416 21.425C28.8191 21.5031 28.9113 21.5651 29.0128 21.6074C29.1144 21.6497 29.2233 21.6715 29.3333 21.6715C29.4433 21.6715 29.5522 21.6497 29.6538 21.6074C29.7553 21.5651 29.8475 21.5031 29.925 21.425C30.0031 21.3475 30.0651 21.2553 30.1074 21.1538C30.1497 21.0522 30.1715 20.9433 30.1715 20.8333C30.1715 20.7233 30.1497 20.6144 30.1074 20.5128C30.0651 20.4113 30.0031 20.3191 29.925 20.2416L26.5916 16.9083C26.5124 16.8324 26.4189 16.7729 26.3166 16.7333C26.1138 16.6499 25.8862 16.6499 25.6833 16.7333C25.581 16.7729 25.4876 16.8324 25.4083 16.9083L22.075 20.2416C21.9973 20.3193 21.9356 20.4116 21.8936 20.5131C21.8515 20.6146 21.8299 20.7234 21.8299 20.8333C21.8299 20.9432 21.8515 21.052 21.8936 21.1535C21.9356 21.255 21.9973 21.3473 22.075 21.425C22.1527 21.5027 22.2449 21.5643 22.3464 21.6063C22.448 21.6484 22.5568 21.67 22.6666 21.67C22.7765 21.67 22.8853 21.6484 22.9869 21.6063C23.0884 21.5643 23.1806 21.5027 23.2583 21.425Z" fill="#D1D1D1"/>
</svg>
