<svg width="31" height="31" viewBox="0 0 31 31" fill="none" xmlns="http://www.w3.org/2000/svg">
<path d="M15.8026 9.41247L18.6752 6.7915C19.8878 8.03559 21.1214 9.31812 22.369 10.5762C24.5392 12.7638 26.7513 14.9095 28.897 17.1216C30.5954 18.8689 30.5884 20.9273 28.897 22.6711C26.8282 24.7923 24.7034 26.8646 22.6066 28.9614C20.3037 31.2224 18.2034 31.0617 16.0717 28.3813L18.4795 26.2216C19.3077 27.0009 19.9752 26.627 20.765 25.7988C22.6451 23.8383 24.6475 21.9826 26.5556 20.12L15.8026 9.41247Z" fill="white"/>
<path d="M14.1846 2.49302L11.8886 4.93926L10.7494 4.24034L3.88944 11.0968C7.33513 14.5355 10.8018 18.0092 14.2405 21.4479L11.6755 23.957C8.18083 20.5183 4.50449 16.9957 0.943468 13.3543C-0.244704 12.1382 -0.146855 9.99598 1.06229 8.71695C3.41766 6.22878 5.83245 3.77905 8.3346 1.43765C10.1308 -0.225793 12.1367 0.179584 14.1846 2.49302Z" fill="white"/>
<path d="M2.18054 16.6568L4.48349 18.7955L3.55043 19.9313L10.5746 26.9834L21.1249 16.2305L23.7598 19.0017C21.5046 21.2173 19.2436 23.441 16.9768 25.6729C15.8166 26.8157 14.6843 27.9864 13.5171 29.1186C11.5112 31.0617 9.57166 31.0617 7.60769 29.1186C5.64371 27.1756 3.73564 25.2641 1.80312 23.3281C-0.702529 20.8119 -0.615164 19.0297 2.18054 16.6568Z" fill="white"/>
<path d="M28.1141 14.3503C27.562 13.3019 25.6679 13.1761 26.283 11.3414C26.3389 11.1771 26.0174 10.8521 25.8217 10.6425C23.7249 8.47929 21.5967 6.3266 19.3496 4.04112L8.92865 14.525L6.6886 11.8236C7.69505 10.8696 8.87274 9.78977 10.012 8.67848C12.2451 6.47338 14.4467 4.22983 16.6797 2.0387C18.3292 0.39273 20.2652 0.354289 21.9077 1.96531C24.1967 4.19838 26.4507 6.45241 28.6907 8.75187C30.4485 10.5586 30.2389 12.5505 28.1141 14.3503Z" fill="white"/>
</svg>
