<svg width="26" height="24" viewBox="0 0 26 24" fill="none" xmlns="http://www.w3.org/2000/svg">
<path d="M24.1913 10.4964C25.0966 10.4964 25.4745 9.33627 24.7392 8.80147L13.5507 0.683143C13.3909 0.566371 13.198 0.503418 12.9999 0.503418C12.8019 0.503418 12.6089 0.566371 12.4492 0.683143L1.26068 8.80147C0.525328 9.33334 0.903258 10.4964 1.81146 10.4964H3.62494V21.4261H1.51556C1.38666 21.4261 1.28119 21.5313 1.28119 21.6599V23.1795C1.28119 23.3081 1.38666 23.4133 1.51556 23.4133H24.4843C24.6132 23.4133 24.7187 23.3081 24.7187 23.1795V21.6599C24.7187 21.5313 24.6132 21.4261 24.4843 21.4261H22.3749V10.4964H24.1913ZM12.9999 2.74341L20.9423 8.50631H5.05755L12.9999 2.74341ZM5.73431 10.4964H9.16205V21.4261H5.73431V10.4964ZM11.2714 10.4964H14.6992V21.4261H11.2714V10.4964ZM20.2656 21.4261H16.8085V10.4964H20.2656V21.4261Z" fill="white"/>
</svg>
