<svg width="28" height="35" viewBox="0 0 28 35" fill="none" xmlns="http://www.w3.org/2000/svg">
<path fill-rule="evenodd" clip-rule="evenodd" d="M14 0C12.067 0 10.5 1.567 10.5 3.5V4.09747C6.42184 5.5389 3.50001 9.42823 3.50001 14L3.50001 16.625L3.50001 20.2994L0.66944 24.1914C-0.104852 25.2561 -0.216256 26.6651 0.381112 27.8382C0.978482 29.0113 2.18358 29.75 3.50002 29.75H8.75001C8.75001 32.6495 11.1005 35 14 35C16.8995 35 19.25 32.6495 19.25 29.75H24.5C25.8165 29.75 27.0215 29.0113 27.6189 27.8382C28.2163 26.6651 28.1049 25.256 27.3306 24.1914L24.5 20.2994L24.5 16.625V14C24.5 9.42823 21.5782 5.5389 17.5 4.09747V3.5C17.5 1.567 15.933 0 14 0ZM15.7521 26.25H15.75H12.25L7.82775 26.25H3.50002L6.04547 22.75L6.33059 22.358C6.76566 21.7597 7.00001 21.0391 7.00001 20.2994V16.625V14C7.00001 10.134 10.134 7 14 7C17.866 7 21 10.134 21 14L21 16.625V20.2994C21 21.0391 21.2344 21.7597 21.6694 22.358L21.9546 22.75L24.5 26.25H20.1723H15.7521ZM14 31.5C13.0335 31.5 12.25 30.7165 12.25 29.75H15.75C15.75 30.7165 14.9665 31.5 14 31.5Z" fill="white"/>
</svg>
