<svg width="122" height="122" viewBox="0 0 122 122" fill="none" xmlns="http://www.w3.org/2000/svg">
<circle cx="61" cy="61" r="61" fill="#061E38"/>
<g clip-path="url(#clip0_112_756)">
<path d="M73.9793 52.0208C73.7856 51.8256 73.5552 51.6706 73.3013 51.5648C73.0474 51.4591 72.7751 51.4046 72.5001 51.4046C72.2251 51.4046 71.9528 51.4591 71.6989 51.5648C71.445 51.6706 71.2146 51.8256 71.0209 52.0208L55.5001 67.5625L48.9793 61.0208C48.7782 60.8266 48.5408 60.6739 48.2807 60.5714C48.0206 60.4688 47.7428 60.4186 47.4633 60.4234C47.1837 60.4282 46.9079 60.4881 46.6515 60.5995C46.395 60.711 46.1631 60.8718 45.9688 61.0729C45.7746 61.274 45.6219 61.5114 45.5194 61.7715C45.4168 62.0316 45.3666 62.3094 45.3714 62.5889C45.3762 62.8685 45.4361 63.1443 45.5475 63.4007C45.659 63.6571 45.8198 63.8891 46.0209 64.0833L54.0209 72.0833C54.2146 72.2786 54.445 72.4336 54.6989 72.5394C54.9528 72.6451 55.2251 72.6996 55.5001 72.6996C55.7751 72.6996 56.0474 72.6451 56.3013 72.5394C56.5552 72.4336 56.7856 72.2786 56.9793 72.0833L73.9793 55.0833C74.1907 54.8883 74.3595 54.6515 74.4749 54.3879C74.5904 54.1244 74.65 53.8398 74.65 53.5521C74.65 53.2644 74.5904 52.9798 74.4749 52.7163C74.3595 52.4527 74.1907 52.2159 73.9793 52.0208Z" fill="white"/>
</g>
<defs>
<clipPath id="clip0_112_756">
<rect x="43" y="49" width="32" height="31" rx="5.00752" fill="white"/>
</clipPath>
</defs>
</svg>
