<svg width="72" height="71" viewBox="0 0 72 71" fill="none" xmlns="http://www.w3.org/2000/svg">
<g filter="url(#filter0_d_1732_10065)">
<ellipse cx="35.452" cy="32.8199" rx="25.9817" ry="27.3492" fill="#0ACF83"/>
<path d="M64.2702 24.7999C64.1578 24.5829 64.0938 24.3441 64.0827 24.1L63.7528 16.8741C63.7277 16.3259 63.438 15.824 62.9757 15.5282L56.8835 11.6295C56.6777 11.4978 56.5029 11.323 56.3712 11.1172L52.4716 5.02411C52.1759 4.56196 51.6741 4.27224 51.126 4.24715L43.8996 3.91632C43.6555 3.90514 43.4168 3.84118 43.1999 3.72884L36.777 0.402415C36.2897 0.150059 35.7103 0.150086 35.223 0.402486L28.8001 3.72965C28.5832 3.84204 28.3444 3.90603 28.1003 3.9172L20.874 4.24803C20.3259 4.27312 19.8241 4.56281 19.5283 5.02491L15.6288 11.1173C15.4971 11.323 15.3223 11.4978 15.1165 11.6295L9.02426 15.5282C8.56202 15.824 8.27227 16.3259 8.24724 16.8741L7.91733 24.0999C7.90618 24.3441 7.84219 24.5829 7.72976 24.8L4.40254 31.2228C4.15011 31.7101 4.15011 32.2897 4.40253 32.777L7.72982 39.2001C7.84221 39.4171 7.90619 39.6559 7.91737 39.8999L8.24819 47.126C8.27329 47.6741 8.56299 48.1758 9.02511 48.4716L15.1165 52.3703C15.3223 52.502 15.4971 52.6768 15.6288 52.8826L19.5276 58.9757C19.8234 59.438 20.3253 59.7277 20.8735 59.7528L28.0996 60.0828C28.3437 60.094 28.5825 60.158 28.7995 60.2704L35.223 63.5975C35.7102 63.8499 36.2898 63.8499 36.777 63.5975L43.1998 60.2704C43.4168 60.158 43.6556 60.094 43.8998 60.0828L51.1258 59.7528C51.674 59.7277 52.1759 59.438 52.4717 58.9757L56.3704 52.8828C56.5022 52.6769 56.6771 52.502 56.883 52.3703L62.9754 48.4723C63.4377 48.1766 63.7276 47.6746 63.7526 47.1264L64.0827 39.9007C64.0938 39.6566 64.1578 39.4178 64.2702 39.2008L67.5975 32.7776C67.8499 32.2904 67.8499 31.7109 67.5975 31.2236L64.2702 24.7999ZM58.6919 37.7053C58.5795 37.9223 58.5155 38.1611 58.5043 38.4052L58.2505 43.9496C58.2254 44.4977 57.9356 44.9995 57.4734 45.2953L52.7985 48.2867C52.5926 48.4184 52.4178 48.5933 52.286 48.7992L49.2947 53.474C48.9989 53.9363 48.497 54.226 47.9488 54.2511L42.4044 54.5045C42.1603 54.5156 41.9215 54.5796 41.7044 54.692L36.7771 57.2447C36.2898 57.4971 35.7102 57.4972 35.2229 57.2447L30.2948 54.692C30.0778 54.5796 29.839 54.5156 29.5949 54.5045L24.0505 54.2511C23.5023 54.226 23.0004 53.9363 22.7046 53.474L19.7132 48.7991C19.5815 48.5933 19.4067 48.4184 19.2009 48.2867L14.5266 45.2954C14.0644 44.9996 13.7746 44.4977 13.7496 43.9495L13.4964 38.4054C13.4852 38.1611 13.4212 37.9222 13.3087 37.7052L10.755 32.7772C10.5024 32.2898 10.5024 31.71 10.755 31.2226L13.3081 26.2958C13.4205 26.0788 13.4845 25.84 13.4957 25.5958L13.7495 20.0504C13.7746 19.5023 14.0643 19.0005 14.5265 18.7047L19.2009 15.7133C19.4067 15.5816 19.5815 15.4068 19.7132 15.2009L22.7046 10.5261C23.0004 10.0639 23.5023 9.77413 24.0505 9.74908L29.5949 9.49572C29.839 9.48456 30.0778 9.42057 30.2948 9.30816L35.2229 6.75527C35.7102 6.50285 36.2898 6.50284 36.7771 6.75525L41.7052 9.308C41.9222 9.4204 42.161 9.48439 42.4051 9.49554L47.9495 9.7489C48.4977 9.77395 48.9996 10.0637 49.2954 10.526L52.2868 15.2007C52.4185 15.4066 52.5933 15.5814 52.7991 15.7131L57.4734 18.7046C57.9356 19.0004 58.2254 19.5023 58.2504 20.0505L58.5036 25.5948C58.5148 25.839 58.5788 26.0779 58.6913 26.295L61.245 31.2227C61.4976 31.7101 61.4976 32.2898 61.2451 32.7772L58.6919 37.7053Z" fill="#0ACF83"/>
<ellipse cx="36.0001" cy="31.9996" rx="22.734" ry="22.734" fill="#0ACF83"/>
<ellipse cx="35.9994" cy="32.0001" rx="19.6211" ry="19.6212" fill="#0CF22D"/>
</g>
<path fill-rule="evenodd" clip-rule="evenodd" d="M36.7587 30.9778C36.8886 31.172 37.1541 31.4539 37.3136 31.6384C37.483 31.8343 37.6667 32.1174 37.8796 32.298C37.8908 32.2915 37.9068 32.2658 37.9112 32.2751C37.9155 32.2842 37.9363 32.2565 37.9423 32.2514L41.9252 27.7225C42.0731 27.5664 42.3775 27.2267 42.4812 27.0568L40.3277 27.0449C40.0525 27.0451 39.5325 27.7382 39.3633 27.9421L37.623 29.9566C37.466 30.1254 37.3139 30.2863 37.1752 30.4598C37.0363 30.6334 36.8647 30.7975 36.7585 30.9777L36.7587 30.9778Z" fill="white"/>
<path fill-rule="evenodd" clip-rule="evenodd" d="M36.8657 32.3746C36.9539 32.5549 37.2213 32.8439 37.3445 32.9891L40.2398 36.4773C40.4675 36.746 40.5845 37 40.7828 37L43.0001 36.9921L42.0402 35.8363C41.719 35.4551 41.3938 35.0482 41.0698 34.6779L39.1266 32.373L36.8659 32.3745L36.8657 32.3746Z" fill="white"/>
<path fill-rule="evenodd" clip-rule="evenodd" d="M30 36.9563C30.4632 36.9563 30.9262 36.9563 31.3894 36.9563C32.0802 36.9563 32.2718 37.0609 32.5227 36.7195C33.0495 36.003 34.821 33.9388 35.5437 33.0767C35.6851 32.9081 36.0359 32.5137 36.1109 32.3396L33.8149 32.3389C33.6597 32.635 32.1862 34.2992 31.9184 34.6414C31.4925 35.1855 30.2896 36.4957 30 36.9563Z" fill="white"/>
<path fill-rule="evenodd" clip-rule="evenodd" d="M35.0902 32.256C35.1016 32.248 35.1174 32.2199 35.1221 32.2291L35.6761 31.6021C35.8502 31.3935 36.1016 31.1266 36.2215 30.9229L33.1873 27.4116C33.048 27.2517 32.9382 27 32.6422 27L30.498 27.0148L35.0904 32.2559L35.0902 32.256Z" fill="white"/>
<defs>
<filter id="filter0_d_1732_10065" x="0.760679" y="0.212891" width="70.4788" height="70.4794" filterUnits="userSpaceOnUse" color-interpolation-filters="sRGB">
<feFlood flood-opacity="0" result="BackgroundImageFix"/>
<feColorMatrix in="SourceAlpha" type="matrix" values="0 0 0 0 0 0 0 0 0 0 0 0 0 0 0 0 0 0 127 0" result="hardAlpha"/>
<feOffset dy="3.45258"/>
<feGaussianBlur stdDeviation="1.72629"/>
<feComposite in2="hardAlpha" operator="out"/>
<feColorMatrix type="matrix" values="0 0 0 0 0 0 0 0 0 0 0 0 0 0 0 0 0 0 0.25 0"/>
<feBlend mode="normal" in2="BackgroundImageFix" result="effect1_dropShadow_1732_10065"/>
<feBlend mode="normal" in="SourceGraphic" in2="effect1_dropShadow_1732_10065" result="shape"/>
</filter>
</defs>
</svg>
