<svg width="30" height="30" viewBox="0 0 30 30" fill="none" xmlns="http://www.w3.org/2000/svg">
<path d="M14.5833 17.5C14.8718 17.5 15.1537 17.4145 15.3935 17.2542C15.6334 17.094 15.8203 16.8662 15.9307 16.5997C16.041 16.3333 16.0699 16.0401 16.0136 15.7572C15.9574 15.4743 15.8185 15.2144 15.6145 15.0105C15.4106 14.8065 15.1507 14.6676 14.8678 14.6114C14.585 14.5551 14.2917 14.584 14.0253 14.6943C13.7588 14.8047 13.531 14.9916 13.3708 15.2315C13.2105 15.4713 13.125 15.7532 13.125 16.0417C13.125 16.4284 13.2786 16.7994 13.5521 17.0729C13.8256 17.3464 14.1966 17.5 14.5833 17.5ZM21.875 17.5C22.1634 17.5 22.4454 17.4145 22.6852 17.2542C22.925 17.094 23.1119 16.8662 23.2223 16.5997C23.3327 16.3333 23.3616 16.0401 23.3053 15.7572C23.249 15.4743 23.1102 15.2144 22.9062 15.0105C22.7022 14.8065 22.4424 14.6676 22.1595 14.6114C21.8766 14.5551 21.5834 14.584 21.3169 14.6943C21.0504 14.8047 20.8227 14.9916 20.6624 15.2315C20.5022 15.4713 20.4167 15.7532 20.4167 16.0417C20.4167 16.4284 20.5703 16.7994 20.8438 17.0729C21.1173 17.3464 21.4882 17.5 21.875 17.5ZM14.5833 23.3333C14.8718 23.3333 15.1537 23.2478 15.3935 23.0876C15.6334 22.9273 15.8203 22.6996 15.9307 22.4331C16.041 22.1666 16.0699 21.8734 16.0136 21.5905C15.9574 21.3076 15.8185 21.0478 15.6145 20.8438C15.4106 20.6399 15.1507 20.501 14.8678 20.4447C14.585 20.3884 14.2917 20.4173 14.0253 20.5277C13.7588 20.6381 13.531 20.825 13.3708 21.0648C13.2105 21.3046 13.125 21.5866 13.125 21.875C13.125 22.2618 13.2786 22.6327 13.5521 22.9062C13.8256 23.1797 14.1966 23.3333 14.5833 23.3333ZM21.875 23.3333C22.1634 23.3333 22.4454 23.2478 22.6852 23.0876C22.925 22.9273 23.1119 22.6996 23.2223 22.4331C23.3327 22.1666 23.3616 21.8734 23.3053 21.5905C23.249 21.3076 23.1102 21.0478 22.9062 20.8438C22.7022 20.6399 22.4424 20.501 22.1595 20.4447C21.8766 20.3884 21.5834 20.4173 21.3169 20.5277C21.0504 20.6381 20.8227 20.825 20.6624 21.0648C20.5022 21.3046 20.4167 21.5866 20.4167 21.875C20.4167 22.2618 20.5703 22.6327 20.8438 22.9062C21.1173 23.1797 21.4882 23.3333 21.875 23.3333ZM7.29167 17.5C7.5801 17.5 7.86205 17.4145 8.10187 17.2542C8.3417 17.094 8.52861 16.8662 8.63899 16.5997C8.74937 16.3333 8.77825 16.0401 8.72198 15.7572C8.66571 15.4743 8.52682 15.2144 8.32286 15.0105C8.11891 14.8065 7.85906 14.6676 7.57617 14.6114C7.29329 14.5551 7.00006 14.584 6.73359 14.6943C6.46711 14.8047 6.23935 14.9916 6.07911 15.2315C5.91886 15.4713 5.83333 15.7532 5.83333 16.0417C5.83333 16.4284 5.98698 16.7994 6.26047 17.0729C6.53396 17.3464 6.90489 17.5 7.29167 17.5ZM24.7917 2.91667H23.3333V1.45833C23.3333 1.07156 23.1797 0.700626 22.9062 0.427136C22.6327 0.153645 22.2618 0 21.875 0C21.4882 0 21.1173 0.153645 20.8438 0.427136C20.5703 0.700626 20.4167 1.07156 20.4167 1.45833V2.91667H8.75V1.45833C8.75 1.07156 8.59636 0.700626 8.32286 0.427136C8.04937 0.153645 7.67844 0 7.29167 0C6.90489 0 6.53396 0.153645 6.26047 0.427136C5.98698 0.700626 5.83333 1.07156 5.83333 1.45833V2.91667H4.375C3.21468 2.91667 2.10188 3.3776 1.28141 4.19808C0.460936 5.01855 0 6.13135 0 7.29167V24.7917C0 25.952 0.460936 27.0648 1.28141 27.8853C2.10188 28.7057 3.21468 29.1667 4.375 29.1667H24.7917C25.952 29.1667 27.0648 28.7057 27.8853 27.8853C28.7057 27.0648 29.1667 25.952 29.1667 24.7917V7.29167C29.1667 6.13135 28.7057 5.01855 27.8853 4.19808C27.0648 3.3776 25.952 2.91667 24.7917 2.91667V2.91667ZM26.25 24.7917C26.25 25.1784 26.0964 25.5494 25.8229 25.8229C25.5494 26.0964 25.1784 26.25 24.7917 26.25H4.375C3.98823 26.25 3.61729 26.0964 3.3438 25.8229C3.07031 25.5494 2.91667 25.1784 2.91667 24.7917V11.6667H26.25V24.7917ZM26.25 8.75H2.91667V7.29167C2.91667 6.90489 3.07031 6.53396 3.3438 6.26047C3.61729 5.98698 3.98823 5.83333 4.375 5.83333H24.7917C25.1784 5.83333 25.5494 5.98698 25.8229 6.26047C26.0964 6.53396 26.25 6.90489 26.25 7.29167V8.75ZM7.29167 23.3333C7.5801 23.3333 7.86205 23.2478 8.10187 23.0876C8.3417 22.9273 8.52861 22.6996 8.63899 22.4331C8.74937 22.1666 8.77825 21.8734 8.72198 21.5905C8.66571 21.3076 8.52682 21.0478 8.32286 20.8438C8.11891 20.6399 7.85906 20.501 7.57617 20.4447C7.29329 20.3884 7.00006 20.4173 6.73359 20.5277C6.46711 20.6381 6.23935 20.825 6.07911 21.0648C5.91886 21.3046 5.83333 21.5866 5.83333 21.875C5.83333 22.2618 5.98698 22.6327 6.26047 22.9062C6.53396 23.1797 6.90489 23.3333 7.29167 23.3333Z" fill="white"/>
</svg>
