<svg width="23" height="25" viewBox="0 0 23 25" fill="none" xmlns="http://www.w3.org/2000/svg">
<path d="M16.25 15H6.25C5.91848 15 5.60054 15.1317 5.36612 15.3661C5.1317 15.6005 5 15.9185 5 16.25C5 16.5815 5.1317 16.8995 5.36612 17.1339C5.60054 17.3683 5.91848 17.5 6.25 17.5H16.25C16.5815 17.5 16.8995 17.3683 17.1339 17.1339C17.3683 16.8995 17.5 16.5815 17.5 16.25C17.5 15.9185 17.3683 15.6005 17.1339 15.3661C16.8995 15.1317 16.5815 15 16.25 15ZM16.25 10H8.75C8.41848 10 8.10054 10.1317 7.86612 10.3661C7.6317 10.6005 7.5 10.9185 7.5 11.25C7.5 11.5815 7.6317 11.8995 7.86612 12.1339C8.10054 12.3683 8.41848 12.5 8.75 12.5H16.25C16.5815 12.5 16.8995 12.3683 17.1339 12.1339C17.3683 11.8995 17.5 11.5815 17.5 11.25C17.5 10.9185 17.3683 10.6005 17.1339 10.3661C16.8995 10.1317 16.5815 10 16.25 10ZM21.25 2.5H17.5V1.25C17.5 0.918479 17.3683 0.600537 17.1339 0.366116C16.8995 0.131696 16.5815 0 16.25 0C15.9185 0 15.6005 0.131696 15.3661 0.366116C15.1317 0.600537 15 0.918479 15 1.25V2.5H12.5V1.25C12.5 0.918479 12.3683 0.600537 12.1339 0.366116C11.8995 0.131696 11.5815 0 11.25 0C10.9185 0 10.6005 0.131696 10.3661 0.366116C10.1317 0.600537 10 0.918479 10 1.25V2.5H7.5V1.25C7.5 0.918479 7.3683 0.600537 7.13388 0.366116C6.89946 0.131696 6.58152 0 6.25 0C5.91848 0 5.60054 0.131696 5.36612 0.366116C5.1317 0.600537 5 0.918479 5 1.25V2.5H1.25C0.918479 2.5 0.600537 2.6317 0.366116 2.86612C0.131696 3.10054 0 3.41848 0 3.75V21.25C0 22.2446 0.395088 23.1984 1.09835 23.9017C1.80161 24.6049 2.75544 25 3.75 25H18.75C19.7446 25 20.6984 24.6049 21.4017 23.9017C22.1049 23.1984 22.5 22.2446 22.5 21.25V3.75C22.5 3.41848 22.3683 3.10054 22.1339 2.86612C21.8995 2.6317 21.5815 2.5 21.25 2.5ZM20 21.25C20 21.5815 19.8683 21.8995 19.6339 22.1339C19.3995 22.3683 19.0815 22.5 18.75 22.5H3.75C3.41848 22.5 3.10054 22.3683 2.86612 22.1339C2.6317 21.8995 2.5 21.5815 2.5 21.25V5H5V6.25C5 6.58152 5.1317 6.89946 5.36612 7.13388C5.60054 7.3683 5.91848 7.5 6.25 7.5C6.58152 7.5 6.89946 7.3683 7.13388 7.13388C7.3683 6.89946 7.5 6.58152 7.5 6.25V5H10V6.25C10 6.58152 10.1317 6.89946 10.3661 7.13388C10.6005 7.3683 10.9185 7.5 11.25 7.5C11.5815 7.5 11.8995 7.3683 12.1339 7.13388C12.3683 6.89946 12.5 6.58152 12.5 6.25V5H15V6.25C15 6.58152 15.1317 6.89946 15.3661 7.13388C15.6005 7.3683 15.9185 7.5 16.25 7.5C16.5815 7.5 16.8995 7.3683 17.1339 7.13388C17.3683 6.89946 17.5 6.58152 17.5 6.25V5H20V21.25Z" fill="#061E38"/>
</svg>
