<svg width="46" height="46" viewBox="0 0 46 46" fill="none" xmlns="http://www.w3.org/2000/svg">
<circle cx="23" cy="23" r="23" fill="#DAFFF1"/>
<path d="M28.41 24C28.1901 24 27.96 23.93 27.74 23.88C27.2949 23.7805 26.8572 23.6501 26.43 23.49C25.9661 23.3212 25.4562 23.33 24.9984 23.5146C24.5405 23.6992 24.1671 24.0466 23.95 24.49L23.73 24.95C22.7589 24.3992 21.8617 23.7271 21.0601 22.95C20.2829 22.1484 19.6108 21.2512 19.0601 20.28L19.5201 20.07C19.9634 19.8529 20.3108 19.4795 20.4954 19.0217C20.6801 18.5639 20.6888 18.0539 20.5201 17.59C20.3612 17.159 20.231 16.7181 20.13 16.27C20.08 16.05 20.04 15.82 20.01 15.6C19.8886 14.8956 19.5197 14.2577 18.9697 13.8012C18.4197 13.3447 17.7247 13.0996 17.0101 13.11H14C13.5773 13.1094 13.1592 13.1982 12.7732 13.3706C12.3871 13.5429 12.0419 13.7949 11.76 14.11C11.4724 14.4337 11.2582 14.8158 11.1322 15.23C11.0061 15.6443 10.9713 16.081 11.03 16.51C11.5736 20.6721 13.4753 24.5387 16.4401 27.51C19.4114 30.4748 23.2779 32.3764 27.4401 32.92C27.5699 32.9299 27.7002 32.9299 27.83 32.92C28.5675 32.9211 29.2794 32.6505 29.83 32.16C30.1452 31.8782 30.3971 31.5329 30.5695 31.1469C30.7418 30.7609 30.8306 30.3428 30.83 29.92V26.92C30.8247 26.229 30.5809 25.5611 30.14 25.0291C29.6991 24.4971 29.088 24.1336 28.41 24ZM28.9 30C28.8997 30.1395 28.8702 30.2775 28.8134 30.4049C28.7565 30.5324 28.6736 30.6465 28.57 30.74C28.4604 30.8399 28.33 30.9141 28.1882 30.9573C28.0464 31.0006 27.8967 31.0117 27.75 30.99C24.0183 30.5026 20.5503 28.802 17.8801 26.15C15.2075 23.4775 13.4921 19.9974 13 16.25C12.9783 16.1033 12.9895 15.9537 13.0327 15.8119C13.076 15.67 13.1502 15.5396 13.25 15.43C13.3447 15.3252 13.4604 15.2415 13.5897 15.1847C13.719 15.1278 13.8588 15.0989 14 15.1H17.0001C17.2312 15.0944 17.4572 15.169 17.6395 15.3112C17.8218 15.4534 17.9492 15.6544 18.0001 15.88C18.0001 16.15 18.09 16.43 18.15 16.7C18.2656 17.2239 18.4194 17.7386 18.61 18.24L17.2101 18.9C16.9694 19.0105 16.7824 19.2119 16.6901 19.46C16.59 19.7035 16.59 19.9765 16.6901 20.22C18.1293 23.3028 20.6073 25.7808 23.69 27.22C23.9335 27.32 24.2066 27.32 24.45 27.22C24.6982 27.1276 24.8996 26.9406 25.01 26.7L25.64 25.3C26.156 25.4881 26.6838 25.6418 27.22 25.76C27.48 25.82 27.76 25.87 28.0301 25.91C28.2556 25.9608 28.4566 26.0882 28.5989 26.2705C28.7411 26.4529 28.8157 26.6788 28.81 26.91L28.9 30ZM23 13C22.7701 13 22.53 13 22.3 13C22.0348 13.0225 21.7894 13.1495 21.6178 13.353C21.4462 13.5565 21.3625 13.8198 21.385 14.085C21.4076 14.3502 21.5346 14.5956 21.738 14.7672C21.9415 14.9388 22.2048 15.0225 22.47 15H23C24.5913 15 26.1175 15.6321 27.2427 16.7574C28.3679 17.8826 29 19.4087 29 21C29 21.18 29 21.35 29 21.53C28.9779 21.7938 29.0612 22.0556 29.2318 22.2581C29.4024 22.4606 29.6463 22.5871 29.91 22.61H29.99C30.2404 22.611 30.482 22.5181 30.6671 22.3496C30.8523 22.1811 30.9675 21.9493 30.99 21.7C30.99 21.47 30.99 21.23 30.99 21C30.9901 18.88 30.1486 16.8467 28.6504 15.3467C27.1523 13.8467 25.12 13.0027 23 13ZM25 21C25 21.2652 25.1054 21.5196 25.2929 21.7071C25.4805 21.8946 25.7348 22 26 22C26.2653 22 26.5196 21.8946 26.7072 21.7071C26.8947 21.5196 27 21.2652 27 21C27 19.9391 26.5786 18.9217 25.8285 18.1716C25.0783 17.4214 24.0609 17 23 17C22.7348 17 22.4805 17.1054 22.2929 17.2929C22.1054 17.4804 22 17.7348 22 18C22 18.2652 22.1054 18.5196 22.2929 18.7071C22.4805 18.8946 22.7348 19 23 19C23.5305 19 24.0392 19.2107 24.4143 19.5858C24.7893 19.9609 25 20.4696 25 21Z" fill="#0ACF83"/>
</svg>
