<svg width="31" height="31" viewBox="0 0 31 31" fill="none" xmlns="http://www.w3.org/2000/svg">
<circle cx="15.5" cy="15.5" r="15.5" fill="#E9E4FF"/>
<path d="M16.1749 15L19.7583 11.425C19.9152 11.2681 20.0034 11.0552 20.0034 10.8333C20.0034 10.6114 19.9152 10.3986 19.7583 10.2417C19.6014 10.0847 19.3885 9.99658 19.1666 9.99658C18.9447 9.99658 18.7319 10.0847 18.5749 10.2417L14.9999 13.825L11.4249 10.2417C11.268 10.0847 11.0552 9.99658 10.8333 9.99658C10.6114 9.99658 10.3985 10.0847 10.2416 10.2417C10.0847 10.3986 9.99654 10.6114 9.99654 10.8333C9.99654 11.0552 10.0847 11.2681 10.2416 11.425L13.8249 15L10.2416 18.575C10.1635 18.6525 10.1015 18.7446 10.0592 18.8462C10.0169 18.9477 9.99512 19.0566 9.99512 19.1667C9.99512 19.2767 10.0169 19.3856 10.0592 19.4871C10.1015 19.5887 10.1635 19.6809 10.2416 19.7583C10.3191 19.8364 10.4113 19.8984 10.5128 19.9407C10.6144 19.983 10.7233 20.0048 10.8333 20.0048C10.9433 20.0048 11.0522 19.983 11.1538 19.9407C11.2553 19.8984 11.3475 19.8364 11.4249 19.7583L14.9999 16.175L18.5749 19.7583C18.6524 19.8364 18.7446 19.8984 18.8461 19.9407C18.9477 19.983 19.0566 20.0048 19.1666 20.0048C19.2766 20.0048 19.3855 19.983 19.4871 19.9407C19.5886 19.8984 19.6808 19.8364 19.7583 19.7583C19.8364 19.6809 19.8984 19.5887 19.9407 19.4871C19.983 19.3856 20.0048 19.2767 20.0048 19.1667C20.0048 19.0566 19.983 18.9477 19.9407 18.8462C19.8984 18.7446 19.8364 18.6525 19.7583 18.575L16.1749 15Z" fill="#654DE4"/>
</svg>
