<svg width="30" height="22" viewBox="0 0 30 22" fill="none" xmlns="http://www.w3.org/2000/svg">
<path d="M7.29167 14.5833H11.6667C12.0534 14.5833 12.4244 14.4297 12.6979 14.1562C12.9714 13.8827 13.125 13.5118 13.125 13.125C13.125 12.7382 12.9714 12.3673 12.6979 12.0938C12.4244 11.8203 12.0534 11.6667 11.6667 11.6667H7.29167C6.90489 11.6667 6.53396 11.8203 6.26047 12.0938C5.98698 12.3673 5.83333 12.7382 5.83333 13.125C5.83333 13.5118 5.98698 13.8827 6.26047 14.1562C6.53396 14.4297 6.90489 14.5833 7.29167 14.5833ZM24.7917 0H4.375C3.21468 0 2.10188 0.460936 1.28141 1.28141C0.460936 2.10188 0 3.21468 0 4.375V17.5C0 18.6603 0.460936 19.7731 1.28141 20.5936C2.10188 21.4141 3.21468 21.875 4.375 21.875H24.7917C25.952 21.875 27.0648 21.4141 27.8853 20.5936C28.7057 19.7731 29.1667 18.6603 29.1667 17.5V4.375C29.1667 3.21468 28.7057 2.10188 27.8853 1.28141C27.0648 0.460936 25.952 0 24.7917 0ZM26.25 17.5C26.25 17.8868 26.0964 18.2577 25.8229 18.5312C25.5494 18.8047 25.1784 18.9583 24.7917 18.9583H4.375C3.98823 18.9583 3.61729 18.8047 3.3438 18.5312C3.07031 18.2577 2.91667 17.8868 2.91667 17.5V8.75H26.25V17.5ZM26.25 5.83333H2.91667V4.375C2.91667 3.98823 3.07031 3.61729 3.3438 3.3438C3.61729 3.07031 3.98823 2.91667 4.375 2.91667H24.7917C25.1784 2.91667 25.5494 3.07031 25.8229 3.3438C26.0964 3.61729 26.25 3.98823 26.25 4.375V5.83333Z" fill="white"/>
</svg>
