<svg width="52" height="51" viewBox="0 0 52 51" fill="none" xmlns="http://www.w3.org/2000/svg">
<path opacity="0.7" d="M51.2721 25.1978C51.2721 39.0049 39.9194 50.1978 25.915 50.1978C11.9106 50.1978 0.557861 39.0049 0.557861 25.1978C0.557861 11.3906 11.9106 0.197754 25.915 0.197754C39.9194 0.197754 51.2721 11.3906 51.2721 25.1978ZM4.36143 25.1978C4.36143 36.9338 14.0113 46.4478 25.915 46.4478C37.8187 46.4478 47.4686 36.9338 47.4686 25.1978C47.4686 13.4617 37.8187 3.94775 25.915 3.94775C14.0113 3.94775 4.36143 13.4617 4.36143 25.1978Z" fill="#E4E4E4"/>
<path d="M25.915 2.07275C25.915 1.03722 26.7557 0.190634 27.7885 0.266045C33.287 0.667535 38.5226 2.82792 42.684 6.44497C47.3157 10.4709 50.2983 16.0247 51.0722 22.0644C51.8461 28.1042 50.3581 34.2148 46.8874 39.2498C43.7675 43.776 39.238 47.1535 34.0099 48.8897C33.031 49.2148 32.0113 48.6068 31.7514 47.6087C31.4889 46.6008 32.1009 45.5797 33.0846 45.2377C37.4064 43.7348 41.1472 40.9057 43.7415 37.142C46.6916 32.8622 47.9564 27.6682 47.2986 22.5344C46.6408 17.4006 44.1056 12.6799 40.1686 9.25789C36.7023 6.24493 32.359 4.42107 27.7878 4.02809C26.7561 3.93939 25.915 3.10829 25.915 2.07275Z" fill="#654DE4" fill-opacity="0.75"/>
<g clip-path="url(#clip0_62_1497)">
<path d="M33.3333 29.1667H16.6666C16.4456 29.1667 16.2336 29.2545 16.0773 29.4108C15.921 29.5671 15.8333 29.779 15.8333 30C15.8333 30.2211 15.921 30.433 16.0773 30.5893C16.2336 30.7456 16.4456 30.8334 16.6666 30.8334H33.3333C33.5543 30.8334 33.7662 30.7456 33.9225 30.5893C34.0788 30.433 34.1666 30.2211 34.1666 30C34.1666 29.779 34.0788 29.5671 33.9225 29.4108C33.7662 29.2545 33.5543 29.1667 33.3333 29.1667ZM33.3333 32.5H16.6666C16.4456 32.5 16.2336 32.5878 16.0773 32.7441C15.921 32.9004 15.8333 33.1124 15.8333 33.3334C15.8333 33.5544 15.921 33.7663 16.0773 33.9226C16.2336 34.0789 16.4456 34.1667 16.6666 34.1667H33.3333C33.5543 34.1667 33.7662 34.0789 33.9225 33.9226C34.0788 33.7663 34.1666 33.5544 34.1666 33.3334C34.1666 33.1124 34.0788 32.9004 33.9225 32.7441C33.7662 32.5878 33.5543 32.5 33.3333 32.5ZM19.9999 20.8334C19.8351 20.8334 19.674 20.8822 19.5369 20.9738C19.3999 21.0654 19.2931 21.1955 19.23 21.3478C19.1669 21.5001 19.1504 21.6676 19.1826 21.8293C19.2148 21.9909 19.2941 22.1394 19.4107 22.256C19.5272 22.3725 19.6757 22.4519 19.8373 22.484C19.999 22.5162 20.1665 22.4997 20.3188 22.4366C20.4711 22.3735 20.6012 22.2667 20.6928 22.1297C20.7844 21.9926 20.8333 21.8315 20.8333 21.6667C20.8333 21.4457 20.7455 21.2337 20.5892 21.0775C20.4329 20.9212 20.2209 20.8334 19.9999 20.8334ZM31.6666 15.8334H18.3333C17.6702 15.8334 17.0343 16.0968 16.5655 16.5656C16.0966 17.0344 15.8333 17.6703 15.8333 18.3334V25C15.8333 25.6631 16.0966 26.299 16.5655 26.7678C17.0343 27.2366 17.6702 27.5 18.3333 27.5H31.6666C32.3296 27.5 32.9655 27.2366 33.4344 26.7678C33.9032 26.299 34.1666 25.6631 34.1666 25V18.3334C34.1666 17.6703 33.9032 17.0344 33.4344 16.5656C32.9655 16.0968 32.3296 15.8334 31.6666 15.8334ZM32.4999 25C32.4999 25.2211 32.4121 25.433 32.2558 25.5893C32.0996 25.7456 31.8876 25.8334 31.6666 25.8334H18.3333C18.1122 25.8334 17.9003 25.7456 17.744 25.5893C17.5877 25.433 17.4999 25.2211 17.4999 25V18.3334C17.4999 18.1124 17.5877 17.9004 17.744 17.7441C17.9003 17.5878 18.1122 17.5 18.3333 17.5H31.6666C31.8876 17.5 32.0996 17.5878 32.2558 17.7441C32.4121 17.9004 32.4999 18.1124 32.4999 18.3334V25ZM24.9999 19.1667C24.5055 19.1667 24.0221 19.3133 23.611 19.588C23.1999 19.8627 22.8794 20.2532 22.6902 20.71C22.501 21.1668 22.4515 21.6695 22.548 22.1544C22.6444 22.6394 22.8825 23.0848 23.2322 23.4345C23.5818 23.7841 24.0272 24.0222 24.5122 24.1187C24.9971 24.2151 25.4998 24.1656 25.9566 23.9764C26.4134 23.7872 26.8039 23.4668 27.0786 23.0556C27.3533 22.6445 27.4999 22.1612 27.4999 21.6667C27.4999 21.0037 27.2365 20.3678 26.7677 19.8989C26.2988 19.4301 25.663 19.1667 24.9999 19.1667ZM24.9999 22.5C24.8351 22.5 24.674 22.4512 24.5369 22.3596C24.3999 22.268 24.2931 22.1379 24.23 21.9856C24.1669 21.8333 24.1504 21.6658 24.1826 21.5041C24.2148 21.3425 24.2941 21.194 24.4107 21.0775C24.5272 20.9609 24.6757 20.8815 24.8373 20.8494C24.999 20.8172 25.1665 20.8337 25.3188 20.8968C25.4711 20.9599 25.6012 21.0667 25.6928 21.2037C25.7844 21.3408 25.8333 21.5019 25.8333 21.6667C25.8333 21.8877 25.7455 22.0997 25.5892 22.256C25.4329 22.4122 25.2209 22.5 24.9999 22.5ZM29.9999 20.8334C29.8351 20.8334 29.674 20.8822 29.5369 20.9738C29.3999 21.0654 29.2931 21.1955 29.23 21.3478C29.1669 21.5001 29.1504 21.6676 29.1826 21.8293C29.2148 21.9909 29.2941 22.1394 29.4107 22.256C29.5272 22.3725 29.6757 22.4519 29.8373 22.484C29.999 22.5162 30.1665 22.4997 30.3188 22.4366C30.4711 22.3735 30.6012 22.2667 30.6928 22.1297C30.7844 21.9926 30.8333 21.8315 30.8333 21.6667C30.8333 21.4457 30.7455 21.2337 30.5892 21.0775C30.4329 20.9212 30.2209 20.8334 29.9999 20.8334Z" fill="#D1D1D1"/>
</g>
<defs>
<clipPath id="clip0_62_1497">
<rect width="20" height="20" fill="white" transform="translate(14.9999 15)"/>
</clipPath>
</defs>
</svg>
