<svg width="414" height="496" viewBox="0 0 414 496" fill="none" xmlns="http://www.w3.org/2000/svg">
<rect width="414" height="496" fill="#C1B9DB"/>
<path d="M313.126 373.744L309.2 373.744L307.332 358.55H313.127L313.126 373.744Z" fill="#9E616A"/>
<path d="M314.128 377.562L301.467 377.562V377.401C301.467 376.09 301.986 374.833 302.91 373.906C303.835 372.978 305.088 372.458 306.395 372.457H306.395L314.128 372.458L314.128 377.562Z" fill="#2F2E41"/>
<path d="M298.073 373.744L294.147 373.744L292.279 358.55H298.074L298.073 373.744Z" fill="#9E616A"/>
<path d="M299.075 377.562L286.414 377.562V377.401C286.414 376.09 286.933 374.833 287.858 373.906C288.782 372.978 290.035 372.458 291.342 372.457H291.342L299.075 372.458L299.075 377.562Z" fill="#2F2E41"/>
<path d="M128.436 376.975V254.937C128.436 254.185 128.733 253.464 129.263 252.933C129.793 252.401 130.511 252.103 131.26 252.103H143.867C144.616 252.103 145.334 252.401 145.864 252.933C146.394 253.464 146.691 254.185 146.691 254.937V377.293L128.436 376.975Z" fill="#3F3D56"/>
<path d="M170.071 377.357V280.32C170.071 279.569 170.369 278.848 170.899 278.316C171.429 277.785 172.147 277.486 172.896 277.486H185.502C186.252 277.486 186.97 277.785 187.5 278.316C188.03 278.848 188.327 279.569 188.327 280.32V377.148L170.071 377.357Z" fill="#3F3D56"/>
<path d="M96.0875 262.069C95.902 262.069 95.7204 262.015 95.5647 261.914C95.4091 261.813 95.286 261.668 95.2104 261.498C95.1348 261.328 95.1098 261.14 95.1386 260.956C95.1673 260.772 95.2485 260.601 95.3724 260.462L137.522 213.296L179.004 236.665L220.732 164.531L263.242 199.633C263.339 199.713 263.42 199.812 263.479 199.924C263.539 200.036 263.576 200.158 263.588 200.284C263.6 200.41 263.588 200.538 263.551 200.659C263.514 200.78 263.454 200.893 263.374 200.99C263.293 201.088 263.195 201.169 263.083 201.229C262.972 201.288 262.85 201.325 262.724 201.337C262.599 201.349 262.472 201.337 262.351 201.3C262.23 201.263 262.118 201.202 262.021 201.122L221.258 167.462L179.715 239.277L137.925 215.734L96.8032 261.749C96.7132 261.85 96.6029 261.931 96.4795 261.986C96.3562 262.041 96.2226 262.07 96.0875 262.069Z" fill="#3F3D56"/>
<path d="M95.9277 270.102C100.88 270.102 104.895 266.074 104.895 261.106C104.895 256.137 100.88 252.109 95.9277 252.109C90.9749 252.109 86.96 256.137 86.96 261.106C86.96 266.074 90.9749 270.102 95.9277 270.102Z" fill="#301786"/>
<path d="M137.564 223.512C142.516 223.512 146.531 219.484 146.531 214.515C146.531 209.546 142.516 205.518 137.564 205.518C132.611 205.518 128.596 209.546 128.596 214.515C128.596 219.484 132.611 223.512 137.564 223.512Z" fill="#CCCCCC"/>
<path d="M179.199 246.968C184.152 246.968 188.167 242.94 188.167 237.971C188.167 233.002 184.152 228.974 179.199 228.974C174.247 228.974 170.232 233.002 170.232 237.971C170.232 242.94 174.247 246.968 179.199 246.968Z" fill="#E6E6E6"/>
<path d="M220.835 174.994C225.788 174.994 229.803 170.966 229.803 165.997C229.803 161.028 225.788 157 220.835 157C215.882 157 211.867 161.028 211.867 165.997C211.867 170.966 215.882 174.994 220.835 174.994Z" fill="#301786"/>
<path d="M300.904 241.999C305.857 241.999 309.872 237.971 309.872 233.002C309.872 228.033 305.857 224.005 300.904 224.005C295.951 224.005 291.936 228.033 291.936 233.002C291.936 237.971 295.951 241.999 300.904 241.999Z" fill="#301786"/>
<path d="M297.733 303.087C301.09 303.493 309.673 300.421 310.138 305.094C314.556 318.141 314.425 368.154 314.425 368.154L307.699 368.475C307.699 368.475 302.324 328.737 299.783 320.236C298.508 330.569 298.731 370.082 298.731 370.082L292.646 370.403C292.646 370.403 287.188 336.756 287.156 326.88C286.493 319.646 288.12 308.927 287.424 301.934C290.752 302.992 294.255 303.384 297.733 303.087L297.733 303.087Z" fill="#3F3D56"/>
<path d="M253.343 376.925V236.268C253.343 234.464 254.608 233.002 256.168 233.002H268.774C270.334 233.002 271.599 234.464 271.599 236.268V377.293L253.343 376.925Z" fill="#3F3D56"/>
<path d="M286.315 265.236C284.969 262.475 283.325 259.871 281.412 257.47C281.012 257.001 280.648 256.503 280.323 255.979C279.634 254.781 279.43 253.373 278.994 252.063C277.777 248.387 274.741 245.434 274.001 241.633C273.732 240.251 271.459 244.267 272.057 245.98C273.123 249.081 273.261 252.365 274.619 255.359C275.977 258.354 277.572 261.226 278.744 264.288C279.41 266.027 279.942 267.823 280.919 269.429C281.896 271.036 283.42 272.382 285.262 272.623C285.249 271.459 285.426 270.3 285.784 269.192C286.184 267.926 286.895 266.435 286.315 265.236Z" fill="#9E616A"/>
<path d="M306.464 267.318C306.382 265.047 306.735 262.78 307.505 260.642C307.8 259.822 308.145 258.99 308.117 258.119C308.075 257.31 307.691 256.567 307.342 255.835C306.137 253.312 305.292 250.639 304.459 247.972L302.858 242.944C302.336 242.56 305.385 242.426 306.035 243.329C308.161 246.292 309.772 249.694 311.457 252.93C311.887 253.701 312.253 254.506 312.552 255.337C312.964 256.683 313.158 258.087 313.129 259.494C313.129 262.126 312.783 264.748 312.424 267.357C312.197 268.993 311.899 270.773 310.666 271.855C309.385 270.21 308.097 268.604 306.464 267.318Z" fill="#9E616A"/>
<path d="M297.996 264.715C301.666 264.715 304.642 261.73 304.642 258.048C304.642 254.366 301.666 251.381 297.996 251.381C294.326 251.381 291.35 254.366 291.35 258.048C291.35 261.73 294.326 264.715 297.996 264.715Z" fill="#9E616A"/>
<path d="M292.593 251.396C292.519 251.194 292.502 250.975 292.545 250.763C292.588 250.552 292.689 250.357 292.837 250.2C293.003 250.069 293.223 250.02 293.401 249.894C293.654 249.681 293.861 249.418 294.009 249.122C294.463 248.485 295.128 248.029 295.884 247.837C296.641 247.644 297.442 247.726 298.144 248.069C299.242 248.646 299.905 249.801 300.882 250.578C301.378 250.981 301.953 251.28 302.452 251.683C303.451 252.549 304.161 253.702 304.487 254.986C304.811 256.261 305 257.566 305.051 258.881C305.103 259.276 305.088 259.676 305.006 260.066C304.905 260.392 304.754 260.701 304.559 260.981C303.555 262.507 302.231 263.893 300.573 264.681C298.915 265.468 296.898 265.596 295.263 264.772C295.098 264.705 294.957 264.592 294.855 264.446C294.762 264.223 294.74 263.977 294.792 263.741C294.88 262.808 294.696 261.869 294.262 261.04C293.958 260.429 293.501 259.904 293.258 259.273C293.032 258.565 292.935 257.823 292.972 257.081C292.943 255.159 293.073 253.246 292.593 251.396Z" fill="#2D293D"/>
<path d="M86.7995 377.116V309.209C86.7995 308.338 88.0643 307.632 89.6243 307.632H102.23C103.79 307.632 105.055 308.339 105.055 309.209V377.293L86.7995 377.116Z" fill="#3F3D56"/>
<path d="M333.68 378H71.3203C71.2353 378 71.1539 377.966 71.0938 377.906C71.0337 377.846 71 377.764 71 377.679C71 377.593 71.0337 377.512 71.0938 377.451C71.1539 377.391 71.2353 377.357 71.3203 377.357H333.68C333.765 377.357 333.846 377.391 333.906 377.451C333.966 377.512 334 377.593 334 377.679C334 377.764 333.966 377.846 333.906 377.906C333.846 377.966 333.765 378 333.68 378H333.68Z" fill="#E6E6E6"/>
<path d="M211.707 376.877V217.258C211.707 215.211 212.972 213.551 214.532 213.551H227.138C228.698 213.551 229.963 215.211 229.963 217.258V377.293L211.707 376.877Z" fill="#301786"/>
<path d="M271.871 245.157C273.463 245.157 274.754 243.863 274.754 242.266C274.754 240.668 273.463 239.374 271.871 239.374C270.279 239.374 268.989 240.668 268.989 242.266C268.989 243.863 270.279 245.157 271.871 245.157Z" fill="#A0616A"/>
<path d="M303.899 243.872C305.491 243.872 306.781 242.577 306.781 240.98C306.781 239.383 305.491 238.088 303.899 238.088C302.307 238.088 301.016 239.383 301.016 240.98C301.016 242.577 302.307 243.872 303.899 243.872Z" fill="#A0616A"/>
<path d="M310.903 276.778C311.184 276.52 313.477 263.066 313.464 262.763C313.428 261.106 308.388 259.213 307.379 259.871C306.427 260.493 304.769 267.623 303.703 268.921L302.575 266.94H293.607L293.063 267.953C291.887 267.242 290.828 266.586 290.451 266.369C290.321 266.281 290.179 266.211 290.031 266.162C289.099 265.953 288.224 265.54 287.468 264.954C286.732 264.385 283.313 258.429 282.397 258.586C281.363 258.76 277.873 261.786 277.913 264.691C278.353 264.682 284.067 276.145 284.147 276.572C284.586 278.378 286.035 304.713 286.502 305.94C288.657 305.731 286.956 305.359 289.041 305.94C291.286 306.567 293.656 305.889 295.972 305.638C296.936 305.543 297.905 305.5 298.873 305.51C302.396 305.526 307.425 305.722 310.836 306.599C310.855 304.356 308.892 299.504 308.165 297.387C308.069 296.754 308.073 296.11 308.174 295.478C308.267 294.704 310.143 277.634 310.903 276.778Z" fill="#E6E6E6"/>
</svg>
