<svg width="31" height="31" viewBox="0 0 31 31" fill="none" xmlns="http://www.w3.org/2000/svg">
<circle cx="15.5" cy="15.5" r="15.5" fill="#0ACF83"/>
<path d="M10.75 18.5H13.93C14.0287 18.5005 14.1266 18.4816 14.2179 18.4443C14.3093 18.407 14.3924 18.352 14.4625 18.2825L19.6525 13.085L21.7825 11C21.8528 10.9302 21.9086 10.8473 21.9467 10.7559C21.9847 10.6645 22.0043 10.5665 22.0043 10.4675C22.0043 10.3684 21.9847 10.2704 21.9467 10.179C21.9086 10.0876 21.8528 10.0047 21.7825 9.93495L18.6025 6.71745C18.5328 6.64716 18.4498 6.59136 18.3584 6.55329C18.267 6.51521 18.169 6.49561 18.07 6.49561C17.971 6.49561 17.873 6.51521 17.7816 6.55329C17.6902 6.59136 17.6072 6.64716 17.5375 6.71745L15.4225 8.83995L10.2175 14.0375C10.148 14.1075 10.093 14.1906 10.0557 14.282C10.0183 14.3734 9.99943 14.4712 10 14.57V17.75C10 17.9489 10.079 18.1396 10.2197 18.2803C10.3603 18.4209 10.5511 18.5 10.75 18.5ZM18.07 8.30745L20.1925 10.43L19.1275 11.495L17.005 9.37245L18.07 8.30745ZM11.5 14.8775L15.9475 10.43L18.07 12.5525L13.6225 17H11.5V14.8775ZM22.75 20H9.25C9.05109 20 8.86032 20.079 8.71967 20.2196C8.57902 20.3603 8.5 20.551 8.5 20.75C8.5 20.9489 8.57902 21.1396 8.71967 21.2803C8.86032 21.4209 9.05109 21.5 9.25 21.5H22.75C22.9489 21.5 23.1397 21.4209 23.2803 21.2803C23.421 21.1396 23.5 20.9489 23.5 20.75C23.5 20.551 23.421 20.3603 23.2803 20.2196C23.1397 20.079 22.9489 20 22.75 20Z" fill="white"/>
</svg>
