<svg width="102" height="92" viewBox="0 0 102 92" fill="none" xmlns="http://www.w3.org/2000/svg">
<path d="M86.5833 30.6667C82.3472 30.6667 78.7465 29.1841 75.7812 26.2188C72.8159 23.2536 71.3333 19.6529 71.3333 15.4167C71.3333 11.1806 72.8159 7.57994 75.7812 4.61467C78.7465 1.64939 82.3472 0.166748 86.5833 0.166748C90.8194 0.166748 94.4201 1.64939 97.3854 4.61467C100.351 7.57994 101.833 11.1806 101.833 15.4167C101.833 19.6529 100.351 23.2536 97.3854 26.2188C94.4201 29.1841 90.8194 30.6667 86.5833 30.6667ZM10.3333 91.6667C7.53746 91.6667 5.1449 90.6721 3.15563 88.6828C1.16296 86.6902 0.166626 84.2959 0.166626 81.5001V20.5001C0.166626 17.7042 1.16296 15.3117 3.15563 13.3224C5.1449 11.3297 7.53746 10.3334 10.3333 10.3334H61.675C61.3361 12.0279 61.1666 13.7223 61.1666 15.4167C61.1666 17.1112 61.3361 18.8056 61.675 20.5001C62.268 23.2112 63.2423 25.7308 64.5979 28.059C65.9534 30.3906 67.6055 32.4459 69.5541 34.2251L51 45.9167L16.9416 24.5667C15.5013 23.6348 14.0407 23.5924 12.5598 24.4397C11.0755 25.2869 10.3333 26.5577 10.3333 28.2522C10.3333 29.0147 10.5027 29.7145 10.8416 30.3516C11.1805 30.9853 11.6888 31.514 12.3666 31.9376L48.3312 54.4313C49.1784 54.9397 50.068 55.1938 51 55.1938C51.9319 55.1938 52.8215 54.9397 53.6687 54.4313L77.8145 39.3084C79.2548 39.8167 80.6951 40.198 82.1354 40.4522C83.5757 40.7063 85.0583 40.8334 86.5833 40.8334C89.2944 40.8334 91.9632 40.4098 94.5895 39.5626C97.2159 38.7154 99.6305 37.4445 101.833 35.7501V81.5001C101.833 84.2959 100.839 86.6902 98.8494 88.6828C96.8567 90.6721 94.4625 91.6667 91.6666 91.6667H10.3333Z" fill="#061E38"/>
</svg>
