<svg width="80" height="27" viewBox="0 0 80 27" fill="none" xmlns="http://www.w3.org/2000/svg">
<path d="M42.4758 18.07C42.2985 18.07 42.1538 18.0187 42.0418 17.916C41.9392 17.804 41.8878 17.6593 41.8878 17.482V9.11H38.8778C38.7098 9.11 38.5792 9.068 38.4858 8.984C38.3925 8.9 38.3458 8.77867 38.3458 8.62C38.3458 8.46133 38.3925 8.34 38.4858 8.256C38.5792 8.172 38.7098 8.13 38.8778 8.13H46.0598C46.2278 8.13 46.3585 8.172 46.4518 8.256C46.5452 8.34 46.5918 8.46133 46.5918 8.62C46.5918 8.77867 46.5452 8.9 46.4518 8.984C46.3585 9.068 46.2278 9.11 46.0598 9.11H43.0498V17.482C43.0498 17.6593 42.9985 17.804 42.8958 17.916C42.7932 18.0187 42.6532 18.07 42.4758 18.07ZM49.1886 18.098C48.5446 18.098 47.9753 17.9533 47.4806 17.664C46.9953 17.3747 46.6173 16.964 46.3466 16.432C46.0853 15.8907 45.9546 15.2653 45.9546 14.556C45.9546 13.8467 46.0853 13.226 46.3466 12.694C46.6173 12.1527 46.9953 11.7373 47.4806 11.448C47.9753 11.1587 48.5446 11.014 49.1886 11.014C49.8326 11.014 50.402 11.1587 50.8966 11.448C51.3913 11.7373 51.7693 12.1527 52.0306 12.694C52.3013 13.226 52.4366 13.8467 52.4366 14.556C52.4366 15.2653 52.3013 15.8907 52.0306 16.432C51.7693 16.964 51.3913 17.3747 50.8966 17.664C50.402 17.9533 49.8326 18.098 49.1886 18.098ZM49.1886 17.16C49.8606 17.16 50.374 16.9407 50.7286 16.502C51.0926 16.054 51.2746 15.4053 51.2746 14.556C51.2746 13.7253 51.0926 13.086 50.7286 12.638C50.3646 12.1807 49.8513 11.952 49.1886 11.952C48.526 11.952 48.0126 12.1807 47.6486 12.638C47.2846 13.086 47.1026 13.7253 47.1026 14.556C47.1026 15.396 47.28 16.04 47.6346 16.488C47.9986 16.936 48.5166 17.16 49.1886 17.16ZM57.2763 11.014C57.8736 11.014 58.4009 11.1633 58.8583 11.462C59.3156 11.7607 59.6703 12.1807 59.9223 12.722C60.1743 13.254 60.3003 13.8747 60.3003 14.584C60.3003 15.2933 60.1743 15.914 59.9223 16.446C59.6703 16.9687 59.3156 17.3747 58.8583 17.664C58.4103 17.9533 57.8829 18.098 57.2763 18.098C56.7443 18.098 56.2776 17.9813 55.8763 17.748C55.4843 17.5147 55.1856 17.1833 54.9803 16.754V20.044C54.9803 20.212 54.9289 20.3427 54.8263 20.436C54.7329 20.5387 54.5976 20.59 54.4203 20.59C54.2429 20.59 54.1029 20.5387 54.0003 20.436C53.8976 20.3333 53.8463 20.2027 53.8463 20.044V11.602C53.8463 11.434 53.8976 11.2987 54.0003 11.196C54.1029 11.0933 54.2429 11.042 54.4203 11.042C54.5976 11.042 54.7329 11.0933 54.8263 11.196C54.9289 11.2987 54.9803 11.434 54.9803 11.602V12.358C55.1856 11.9287 55.4843 11.5973 55.8763 11.364C56.2776 11.1307 56.7443 11.014 57.2763 11.014ZM57.0523 17.16C57.7149 17.16 58.2283 16.936 58.5923 16.488C58.9563 16.04 59.1383 15.4053 59.1383 14.584C59.1383 13.7627 58.9563 13.1233 58.5923 12.666C58.2283 12.1993 57.7149 11.966 57.0523 11.966C56.3896 11.966 55.8763 12.19 55.5123 12.638C55.1576 13.086 54.9803 13.7253 54.9803 14.556C54.9803 15.3867 55.1576 16.0307 55.5123 16.488C55.8763 16.936 56.3896 17.16 57.0523 17.16ZM70.2241 11.042C70.4014 11.042 70.5367 11.0933 70.6301 11.196C70.7327 11.2987 70.7841 11.434 70.7841 11.602V17.524C70.7841 17.6827 70.7327 17.8133 70.6301 17.916C70.5367 18.0187 70.4014 18.07 70.2241 18.07C70.0561 18.07 69.9207 18.0233 69.8181 17.93C69.7247 17.8273 69.6781 17.6967 69.6781 17.538V16.838C69.4634 17.2487 69.1601 17.5613 68.7681 17.776C68.3854 17.9907 67.9514 18.098 67.4661 18.098C66.6541 18.098 66.0427 17.874 65.6321 17.426C65.2214 16.9687 65.0161 16.2967 65.0161 15.41V11.602C65.0161 11.434 65.0674 11.2987 65.1701 11.196C65.2727 11.0933 65.4127 11.042 65.5901 11.042C65.7674 11.042 65.9027 11.0933 65.9961 11.196C66.0987 11.2987 66.1501 11.434 66.1501 11.602V15.382C66.1501 15.9887 66.2714 16.4367 66.5141 16.726C66.7567 17.006 67.1394 17.146 67.6621 17.146C68.2594 17.146 68.7401 16.9547 69.1041 16.572C69.4681 16.18 69.6501 15.6667 69.6501 15.032V11.602C69.6501 11.434 69.7014 11.2987 69.8041 11.196C69.9067 11.0933 70.0467 11.042 70.2241 11.042ZM76.0417 11.014C76.6391 11.014 77.1664 11.1633 77.6237 11.462C78.0811 11.7607 78.4357 12.1807 78.6877 12.722C78.9397 13.254 79.0657 13.8747 79.0657 14.584C79.0657 15.2933 78.9397 15.914 78.6877 16.446C78.4357 16.9687 78.0811 17.3747 77.6237 17.664C77.1757 17.9533 76.6484 18.098 76.0417 18.098C75.5097 18.098 75.0431 17.9813 74.6417 17.748C74.2497 17.5147 73.9511 17.1833 73.7457 16.754V20.044C73.7457 20.212 73.6944 20.3427 73.5917 20.436C73.4984 20.5387 73.3631 20.59 73.1857 20.59C73.0084 20.59 72.8684 20.5387 72.7657 20.436C72.6631 20.3333 72.6117 20.2027 72.6117 20.044V11.602C72.6117 11.434 72.6631 11.2987 72.7657 11.196C72.8684 11.0933 73.0084 11.042 73.1857 11.042C73.3631 11.042 73.4984 11.0933 73.5917 11.196C73.6944 11.2987 73.7457 11.434 73.7457 11.602V12.358C73.9511 11.9287 74.2497 11.5973 74.6417 11.364C75.0431 11.1307 75.5097 11.014 76.0417 11.014ZM75.8177 17.16C76.4804 17.16 76.9937 16.936 77.3577 16.488C77.7217 16.04 77.9037 15.4053 77.9037 14.584C77.9037 13.7627 77.7217 13.1233 77.3577 12.666C76.9937 12.1993 76.4804 11.966 75.8177 11.966C75.1551 11.966 74.6417 12.19 74.2777 12.638C73.9231 13.086 73.7457 13.7253 73.7457 14.556C73.7457 15.3867 73.9231 16.0307 74.2777 16.488C74.6417 16.936 75.1551 17.16 75.8177 17.16Z" fill="white"/>
<path d="M13.5 8.5V18.5M8.5 13.5H18.5M26 13.5C26 20.4036 20.4036 26 13.5 26C6.59644 26 1 20.4036 1 13.5C1 6.59644 6.59644 1 13.5 1C20.4036 1 26 6.59644 26 13.5Z" stroke="white" stroke-width="2" stroke-linecap="round" stroke-linejoin="round"/>
</svg>
