<svg width="122" height="122" viewBox="0 0 122 122" fill="none" xmlns="http://www.w3.org/2000/svg">
<circle cx="61" cy="61" r="61" fill="#0ACF83"/>
<g clip-path="url(#clip0_185_613)">
<path d="M73.9791 52.021C73.7855 51.8258 73.5551 51.6708 73.3012 51.565C73.0473 51.4592 72.775 51.4048 72.5 51.4048C72.225 51.4048 71.9527 51.4592 71.6988 51.565C71.4449 51.6708 71.2145 51.8258 71.0208 52.021L55.5 67.5627L48.9791 61.021C48.7781 60.8268 48.5407 60.674 48.2806 60.5715C48.0204 60.469 47.7427 60.4188 47.4631 60.4236C47.1836 60.4284 46.9078 60.4883 46.6513 60.5997C46.3949 60.7112 46.163 60.872 45.9687 61.0731C45.7745 61.2742 45.6217 61.5116 45.5192 61.7717C45.4167 62.0318 45.3665 62.3096 45.3713 62.5891C45.3761 62.8687 45.436 63.1445 45.5474 63.4009C45.6589 63.6573 45.8197 63.8893 46.0208 64.0835L54.0208 72.0835C54.2145 72.2788 54.4449 72.4338 54.6988 72.5396C54.9527 72.6453 55.225 72.6998 55.5 72.6998C55.775 72.6998 56.0473 72.6453 56.3012 72.5396C56.5551 72.4338 56.7855 72.2788 56.9791 72.0835L73.9791 55.0835C74.1906 54.8884 74.3594 54.6517 74.4748 54.3881C74.5902 54.1246 74.6498 53.84 74.6498 53.5523C74.6498 53.2646 74.5902 52.98 74.4748 52.7164C74.3594 52.4529 74.1906 52.2161 73.9791 52.021Z" fill="white"/>
</g>
<defs>
<clipPath id="clip0_185_613">
<rect x="43" y="49" width="32" height="31" rx="5.00752" fill="white"/>
</clipPath>
</defs>
</svg>
