<svg width="414" height="496" viewBox="0 0 414 496" fill="none" xmlns="http://www.w3.org/2000/svg">
<rect width="414" height="496" fill="#DAFFF1"/>
<g clip-path="url(#clip0_342_1018)">
<path d="M255.234 232.2C254.953 232.2 254.672 232.148 254.416 232.021C253.47 231.56 253.061 230.41 253.522 229.464L266.227 203.081C267.045 201.368 267.148 199.425 266.534 197.636C265.895 195.846 264.617 194.389 262.904 193.571L216.299 171.15C214.586 170.332 212.643 170.23 210.854 170.844C209.064 171.483 207.607 172.761 206.789 174.474L185.825 217.449C185.365 218.395 184.215 218.804 183.269 218.343C182.323 217.883 181.914 216.733 182.374 215.787L203.337 172.812C204.59 170.179 206.814 168.185 209.575 167.239C212.336 166.267 215.302 166.446 217.961 167.699L264.54 190.094C269.985 192.702 272.286 199.272 269.679 204.717L256.973 231.1C256.64 231.816 255.95 232.2 255.234 232.2Z" fill="#0ACF83"/>
<path d="M207.172 319.657C205.587 319.657 203.977 319.299 202.443 318.584L179.076 307.335C178.13 306.875 177.721 305.724 178.181 304.779C178.642 303.833 179.792 303.424 180.738 303.884L204.104 315.132C207.658 316.845 211.927 315.337 213.615 311.809L224.71 288.826C225.17 287.88 226.32 287.471 227.266 287.931C228.212 288.391 228.621 289.542 228.161 290.488L217.066 313.445C215.2 317.382 211.263 319.657 207.172 319.657Z" fill="#0ACF83"/>
<path d="M219.264 304.574C218.983 304.574 218.702 304.523 218.446 304.395L184.343 287.982C183.397 287.522 182.988 286.372 183.448 285.426C183.908 284.48 185.058 284.071 186.004 284.531L220.108 300.944C221.054 301.404 221.463 302.554 221.003 303.5C220.67 304.191 219.98 304.574 219.264 304.574Z" fill="#0ACF83"/>
<path d="M266.33 207.402C266.048 207.402 265.767 207.35 265.512 207.223L205.127 178.181C204.181 177.721 203.772 176.57 204.232 175.624C204.692 174.678 205.843 174.269 206.789 174.73L267.148 203.771C268.094 204.231 268.503 205.382 268.042 206.328C267.71 206.993 267.045 207.402 266.33 207.402Z" fill="#0ACF83"/>
<path d="M190.274 300.56C189.993 300.56 189.711 300.509 189.456 300.381L183.013 297.288C182.067 296.828 181.658 295.677 182.118 294.732C182.579 293.786 183.729 293.377 184.675 293.837L191.117 296.93C192.063 297.39 192.472 298.541 192.012 299.487C191.68 300.177 190.99 300.56 190.274 300.56Z" fill="#0ACF83"/>
<path d="M115.189 338.882C114.908 338.882 114.627 338.831 114.371 338.703C113.425 338.243 113.016 337.093 113.477 336.147L131.704 298.234L139.016 257.458C139.195 250.376 142.723 243.755 148.526 239.69L187.257 212.821C189.737 211.083 192.728 210.444 195.719 211.032C198.685 211.594 201.241 213.307 202.903 215.838C206.124 220.747 204.948 227.317 200.27 230.819L172.302 251.706C174.807 254.518 179.792 260.807 183.064 269.397C185.672 276.274 186.643 283.202 185.928 289.976C185.033 298.438 181.53 306.67 175.472 314.417C174.832 315.26 173.605 315.388 172.787 314.749C171.944 314.11 171.816 312.883 172.455 312.065C178.028 304.906 181.275 297.39 182.093 289.67C182.758 283.509 181.888 277.194 179.511 270.905C175.395 260.04 168.16 252.933 168.083 252.856C167.674 252.473 167.47 251.91 167.495 251.348C167.521 250.785 167.802 250.274 168.262 249.942L197.943 227.777C201.011 225.476 201.778 221.181 199.682 217.96C198.582 216.298 196.921 215.173 194.978 214.815C193.035 214.432 191.066 214.867 189.43 215.991L150.699 242.835C145.867 246.209 142.927 251.782 142.825 257.688C142.825 257.79 142.825 257.892 142.8 257.995L135.411 299.18C135.386 299.359 135.335 299.512 135.258 299.666L116.902 337.809C116.595 338.499 115.905 338.882 115.189 338.882Z" fill="#0ACF83"/>
<path d="M245.059 253.342C240.534 253.342 236.393 250.351 235.115 245.8C233.581 240.329 236.802 234.628 242.298 233.12L259.248 228.416C261.907 227.675 264.693 228.007 267.071 229.362C269.474 230.717 271.187 232.915 271.928 235.574C273.462 241.045 270.241 246.746 264.744 248.254L247.795 252.958C246.9 253.214 245.954 253.342 245.059 253.342ZM262.009 231.842C261.421 231.842 260.833 231.918 260.271 232.072L243.321 236.776C239.87 237.722 237.85 241.301 238.822 244.752C239.767 248.203 243.347 250.223 246.798 249.251L263.747 244.547C267.199 243.602 269.218 240.022 268.247 236.571C267.787 234.909 266.687 233.529 265.205 232.66C264.208 232.123 263.108 231.842 262.009 231.842Z" fill="#0ACF83"/>
<path d="M241.302 272.055C236.777 272.055 232.635 269.064 231.357 264.514C230.615 261.855 230.948 259.068 232.303 256.691C233.658 254.288 235.856 252.575 238.515 251.834L255.465 247.13C258.123 246.388 260.91 246.721 263.287 248.075C265.691 249.43 267.403 251.629 268.145 254.288C268.886 256.947 268.554 259.733 267.199 262.111C265.844 264.514 263.645 266.227 260.987 266.968L244.037 271.672C243.117 271.928 242.196 272.055 241.302 272.055ZM235.038 263.491C235.984 266.942 239.563 268.962 243.014 267.991L259.964 263.287C263.415 262.341 265.435 258.762 264.463 255.31C263.518 251.859 259.938 249.839 256.487 250.811L239.538 255.515C236.112 256.461 234.092 260.04 235.038 263.491Z" fill="#0ACF83"/>
<path d="M231.561 292.277C227.036 292.277 222.895 289.286 221.616 284.736C220.875 282.077 221.207 279.29 222.562 276.913C223.917 274.51 226.116 272.797 228.774 272.055L245.724 267.351C248.383 266.61 251.169 266.942 253.547 268.297C255.95 269.652 257.663 271.851 258.404 274.51C259.938 279.981 256.717 285.682 251.221 287.19L234.271 291.894C233.402 292.149 232.481 292.277 231.561 292.277ZM225.323 283.687C226.269 287.139 229.848 289.158 233.299 288.187L250.249 283.483C253.7 282.537 255.72 278.958 254.748 275.507C254.288 273.845 253.189 272.464 251.706 271.595C250.198 270.752 248.46 270.521 246.798 270.982L229.823 275.737C226.397 276.683 224.377 280.262 225.323 283.687Z" fill="#0ACF83"/>
<path d="M157.985 367.438C157.704 367.438 157.423 367.387 157.167 367.259C156.221 366.799 155.812 365.649 156.272 364.703L173.452 328.963C173.784 328.273 174.475 327.864 175.216 327.889C193.29 328.298 201.574 315.874 201.65 315.746C202.238 314.851 203.414 314.596 204.309 315.184C205.204 315.772 205.459 316.948 204.871 317.842C204.769 317.996 202.443 321.549 197.611 325.026C193.342 328.094 186.26 331.673 176.392 331.75L159.724 366.39C159.391 367.029 158.701 367.438 157.985 367.438Z" fill="#0ACF83"/>
<path d="M191.296 375.082C177.721 375.082 164.53 372.424 152.131 367.183C140.141 362.121 129.404 354.86 120.149 345.632C110.92 336.403 103.66 325.64 98.5978 313.65C93.357 301.251 90.6982 288.059 90.6982 274.484C90.6982 260.909 93.357 247.718 98.5978 235.319C103.66 223.329 110.92 212.591 120.149 203.337C129.378 194.108 140.141 186.847 152.131 181.786C164.53 176.545 177.696 173.886 191.296 173.886C192.345 173.886 193.214 174.755 193.214 175.803C193.214 176.851 192.345 177.721 191.296 177.721C178.233 177.721 165.553 180.277 153.639 185.313C142.109 190.196 131.756 197.176 122.885 206.047C113.988 214.943 107.009 225.272 102.151 236.801C97.1151 248.74 94.5586 261.395 94.5586 274.459C94.5586 287.522 97.1151 300.203 102.151 312.116C107.034 323.646 114.014 333.999 122.885 342.87C131.781 351.767 142.109 358.746 153.639 363.604C165.578 368.64 178.233 371.196 191.296 371.196C204.36 371.196 217.04 368.64 228.954 363.604C240.483 358.721 250.837 351.742 259.708 342.87C268.605 333.974 275.584 323.646 280.442 312.116C285.478 300.177 288.034 287.522 288.034 274.459C288.034 253.828 281.643 234.168 269.525 217.551C268.912 216.707 269.091 215.506 269.934 214.867C270.778 214.253 271.98 214.432 272.619 215.276C285.197 232.558 291.844 253.01 291.844 274.459C291.844 288.034 289.185 301.225 283.944 313.624C278.882 325.614 271.622 336.351 262.393 345.606C253.164 354.835 242.401 362.095 230.411 367.157C218.037 372.424 204.871 375.082 191.296 375.082Z" fill="#0ACF83"/>
<path d="M205.229 256.921C204.744 256.921 204.258 256.742 203.874 256.359L193.572 246.081C192.83 245.34 192.83 244.113 193.572 243.372C194.313 242.63 195.54 242.63 196.282 243.372L205.229 252.319L237.339 220.21C238.08 219.468 239.307 219.468 240.049 220.21C240.79 220.951 240.79 222.178 240.049 222.92L206.584 256.359C206.201 256.742 205.715 256.921 205.229 256.921Z" fill="#0ACF83"/>
<g opacity="0.3">
<g opacity="0.3">
<g opacity="0.3">
<path opacity="0.3" d="M68.5078 316.82H64.4174C63.3692 316.82 62.5 315.951 62.5 314.902C62.5 313.854 63.3692 312.985 64.4174 312.985H68.5078C69.5559 312.985 70.4251 313.854 70.4251 314.902C70.4251 315.951 69.5559 316.82 68.5078 316.82Z" fill="#0ACF83"/>
<path opacity="0.3" d="M84.3581 316.82H79.7564C78.7082 316.82 77.839 315.951 77.839 314.902C77.839 313.854 78.7082 312.985 79.7564 312.985H84.3581C85.4062 312.985 86.2754 313.854 86.2754 314.902C86.2754 315.951 85.4062 316.82 84.3581 316.82Z" fill="#0ACF83"/>
</g>
<g opacity="0.3">
<path opacity="0.3" d="M74.2599 326.918C73.2117 326.918 72.3425 326.049 72.3425 325.001V320.91C72.3425 319.862 73.2117 318.993 74.2599 318.993C75.3081 318.993 76.1773 319.862 76.1773 320.91V325.001C76.1773 326.049 75.3081 326.918 74.2599 326.918Z" fill="#0ACF83"/>
<path opacity="0.3" d="M74.2599 311.579C73.2117 311.579 72.3425 310.71 72.3425 309.662V305.06C72.3425 304.012 73.2117 303.142 74.2599 303.142C75.3081 303.142 76.1773 304.012 76.1773 305.06V309.662C76.1773 310.71 75.3081 311.579 74.2599 311.579Z" fill="#0ACF83"/>
</g>
</g>
<g opacity="0.3">
<g opacity="0.3">
<path opacity="0.3" d="M230.334 338.806H226.244C225.196 338.806 224.326 337.936 224.326 336.888C224.326 335.84 225.196 334.971 226.244 334.971H230.334C231.382 334.971 232.252 335.84 232.252 336.888C232.252 337.936 231.382 338.806 230.334 338.806Z" fill="#0ACF83"/>
<path opacity="0.3" d="M246.184 338.806H241.583C240.535 338.806 239.665 337.936 239.665 336.888C239.665 335.84 240.535 334.971 241.583 334.971H246.184C247.233 334.971 248.102 335.84 248.102 336.888C248.102 337.936 247.233 338.806 246.184 338.806Z" fill="#0ACF83"/>
</g>
<g opacity="0.3">
<path opacity="0.3" d="M236.086 348.904C235.038 348.904 234.169 348.035 234.169 346.986V342.896C234.169 341.848 235.038 340.979 236.086 340.979C237.134 340.979 238.004 341.848 238.004 342.896V346.986C238.004 348.035 237.134 348.904 236.086 348.904Z" fill="#0ACF83"/>
<path opacity="0.3" d="M236.086 333.565C235.038 333.565 234.169 332.696 234.169 331.647V327.046C234.169 325.998 235.038 325.128 236.086 325.128C237.134 325.128 238.004 325.998 238.004 327.046V331.647C238.004 332.696 237.134 333.565 236.086 333.565Z" fill="#0ACF83"/>
</g>
</g>
<g opacity="0.3">
<g opacity="0.3">
<path opacity="0.3" d="M290.156 187.461H286.066C285.018 187.461 284.148 186.592 284.148 185.544C284.148 184.495 285.018 183.626 286.066 183.626H290.156C291.204 183.626 292.074 184.495 292.074 185.544C292.074 186.592 291.204 187.461 290.156 187.461Z" fill="#0ACF83"/>
<path opacity="0.3" d="M306.006 187.461H301.405C300.357 187.461 299.487 186.592 299.487 185.544C299.487 184.495 300.357 183.626 301.405 183.626H306.006C307.055 183.626 307.924 184.495 307.924 185.544C307.924 186.592 307.055 187.461 306.006 187.461Z" fill="#0ACF83"/>
</g>
<g opacity="0.3">
<path opacity="0.3" d="M295.908 197.559C294.86 197.559 293.991 196.69 293.991 195.642V191.551C293.991 190.503 294.86 189.634 295.908 189.634C296.956 189.634 297.826 190.503 297.826 191.551V195.642C297.826 196.69 296.956 197.559 295.908 197.559Z" fill="#0ACF83"/>
<path opacity="0.3" d="M295.908 182.22C294.86 182.22 293.991 181.351 293.991 180.303V175.701C293.991 174.653 294.86 173.784 295.908 173.784C296.956 173.784 297.826 174.653 297.826 175.701V180.303C297.826 181.351 296.956 182.22 295.908 182.22Z" fill="#0ACF83"/>
</g>
</g>
<path opacity="0.3" d="M96.9106 361.047C93.4849 361.047 90.6983 358.261 90.6983 354.835C90.6983 351.409 93.4849 348.623 96.9106 348.623C100.336 348.623 103.123 351.409 103.123 354.835C103.123 358.261 100.336 361.047 96.9106 361.047ZM96.9106 352.457C95.6068 352.457 94.5331 353.531 94.5331 354.835C94.5331 356.139 95.6068 357.212 96.9106 357.212C98.2144 357.212 99.2882 356.139 99.2882 354.835C99.2882 353.506 98.2144 352.457 96.9106 352.457Z" fill="#0ACF83"/>
<path opacity="0.3" d="M301.405 240.79C297.979 240.79 295.192 238.003 295.192 234.577C295.192 231.152 297.979 228.365 301.405 228.365C304.83 228.365 307.617 231.152 307.617 234.577C307.617 238.003 304.83 240.79 301.405 240.79ZM301.405 232.2C300.101 232.2 299.027 233.273 299.027 234.577C299.027 235.881 300.101 236.955 301.405 236.955C302.708 236.955 303.782 235.881 303.782 234.577C303.782 233.273 302.708 232.2 301.405 232.2Z" fill="#0ACF83"/>
</g>
<g opacity="0.3">
<path opacity="0.3" d="M261.447 179.919C261.063 179.919 260.654 179.791 260.322 179.561C256.641 176.877 252.78 174.397 248.818 172.173C247.897 171.662 247.565 170.486 248.076 169.565C248.588 168.645 249.764 168.313 250.684 168.824C254.774 171.125 258.762 173.681 262.546 176.468C263.39 177.082 263.594 178.283 262.955 179.152C262.623 179.638 262.035 179.919 261.447 179.919Z" fill="#0ACF83"/>
<path opacity="0.3" d="M155.812 162.484C154.994 162.484 154.227 161.947 153.971 161.129C153.664 160.106 154.227 159.033 155.224 158.726C166.882 155.121 178.999 153.281 191.296 153.281C200.909 153.281 210.47 154.405 219.724 156.63C220.747 156.885 221.386 157.908 221.13 158.93C220.875 159.953 219.852 160.592 218.83 160.336C209.856 158.215 200.602 157.115 191.296 157.115C179.383 157.115 167.649 158.879 156.4 162.382C156.195 162.458 155.991 162.484 155.812 162.484Z" fill="#0ACF83"/>
<path opacity="0.3" d="M109.412 189.659C108.9 189.659 108.389 189.455 108.005 189.046C107.29 188.279 107.315 187.052 108.082 186.336C109.974 184.546 111.968 182.783 113.962 181.121C114.78 180.456 115.982 180.558 116.672 181.376C117.337 182.195 117.234 183.396 116.416 184.086C114.473 185.697 112.556 187.384 110.715 189.123C110.357 189.481 109.872 189.659 109.412 189.659Z" fill="#0ACF83"/>
<path opacity="0.3" d="M72.9559 291.587C72.01 291.587 71.1664 290.871 71.0641 289.9C70.425 284.812 70.0927 279.648 70.0927 274.484C70.0927 269.346 70.425 264.207 71.0641 259.145C73.0326 243.448 77.9922 228.518 85.8151 214.79C86.3264 213.87 87.5024 213.537 88.4227 214.074C89.3431 214.585 89.6754 215.761 89.1386 216.682C81.5969 230.001 76.7907 244.445 74.8733 259.631C74.2597 264.514 73.953 269.524 73.953 274.484C73.953 279.469 74.2597 284.506 74.8989 289.414C75.0267 290.462 74.2853 291.434 73.2371 291.562C73.1093 291.562 73.0326 291.587 72.9559 291.587Z" fill="#0ACF83"/>
<path opacity="0.3" d="M131.704 379.786C131.372 379.786 131.039 379.71 130.758 379.531C126.105 376.846 121.58 373.83 117.337 370.532C116.493 369.893 116.34 368.691 116.979 367.847C117.618 367.004 118.819 366.85 119.663 367.49C123.779 370.66 128.151 373.6 132.676 376.207C133.596 376.744 133.903 377.92 133.366 378.815C133.008 379.428 132.369 379.786 131.704 379.786Z" fill="#0ACF83"/>
<path opacity="0.3" d="M191.296 395.688C180.482 395.688 169.771 394.256 159.442 391.47C158.42 391.188 157.806 390.14 158.087 389.118C158.369 388.095 159.417 387.481 160.439 387.763C170.435 390.472 180.815 391.853 191.296 391.853C199.758 391.853 208.22 390.958 216.401 389.169C217.424 388.939 218.446 389.603 218.676 390.626C218.907 391.648 218.242 392.671 217.219 392.901C208.757 394.767 200.04 395.688 191.296 395.688Z" fill="#0ACF83"/>
<path opacity="0.3" d="M249.763 380.4C249.099 380.4 248.434 380.042 248.102 379.428C247.59 378.508 247.897 377.332 248.843 376.821C251.706 375.21 254.544 373.446 257.254 371.605C258.123 371.018 259.325 371.248 259.913 372.117C260.501 372.986 260.271 374.188 259.401 374.776C256.589 376.693 253.675 378.508 250.709 380.17C250.403 380.323 250.096 380.4 249.763 380.4Z" fill="#0ACF83"/>
<path opacity="0.3" d="M279.802 356.394C279.342 356.394 278.882 356.241 278.524 355.909C277.732 355.193 277.68 353.991 278.396 353.199C291.486 338.729 300.817 321.089 305.393 302.222C305.649 301.199 306.671 300.56 307.719 300.816C308.742 301.072 309.381 302.094 309.125 303.142C304.396 322.623 294.758 340.825 281.26 355.781C280.85 356.164 280.314 356.394 279.802 356.394Z" fill="#0ACF83"/>
<path opacity="0.3" d="M310.582 276.401C309.534 276.401 308.665 275.532 308.665 274.484C308.665 270.956 308.512 267.403 308.205 263.9C307.949 261.037 307.591 258.148 307.131 255.336C306.952 254.288 307.668 253.316 308.716 253.137C309.764 252.958 310.736 253.674 310.915 254.722C311.4 257.637 311.784 260.628 312.04 263.568C312.372 267.173 312.525 270.854 312.525 274.51C312.5 275.558 311.631 276.401 310.582 276.401Z" fill="#0ACF83"/>
</g>
</g>
<defs>
<clipPath id="clip0_342_1018">
<rect width="250" height="242.407" fill="white" transform="translate(62.5 153.281)"/>
</clipPath>
</defs>
</svg>
