<svg width="38" height="38" viewBox="0 0 38 38" fill="none" xmlns="http://www.w3.org/2000/svg">
<rect width="38" height="38" rx="6" fill="#FFF5CC"/>
<path d="M26 14H25V13C25 12.2044 24.6839 11.4413 24.1213 10.8787C23.5587 10.3161 22.7956 10 22 10H12C11.2044 10 10.4413 10.3161 9.87868 10.8787C9.31607 11.4413 9 12.2044 9 13V13V25C9 25.7956 9.31607 26.5587 9.87868 27.1213C10.4413 27.6839 11.2044 28 12 28H26C26.7956 28 27.5587 27.6839 28.1213 27.1213C28.6839 26.5587 29 25.7956 29 25V17C29 16.2044 28.6839 15.4413 28.1213 14.8787C27.5587 14.3161 26.7956 14 26 14ZM12 12H22C22.2652 12 22.5196 12.1054 22.7071 12.2929C22.8946 12.4804 23 12.7348 23 13V14H12C11.7348 14 11.4804 13.8946 11.2929 13.7071C11.1054 13.5196 11 13.2652 11 13C11 12.7348 11.1054 12.4804 11.2929 12.2929C11.4804 12.1054 11.7348 12 12 12V12ZM27 22H26C25.7348 22 25.4804 21.8946 25.2929 21.7071C25.1054 21.5196 25 21.2652 25 21C25 20.7348 25.1054 20.4804 25.2929 20.2929C25.4804 20.1054 25.7348 20 26 20H27V22ZM27 18H26C25.2044 18 24.4413 18.3161 23.8787 18.8787C23.3161 19.4413 23 20.2044 23 21C23 21.7956 23.3161 22.5587 23.8787 23.1213C24.4413 23.6839 25.2044 24 26 24H27V25C27 25.2652 26.8946 25.5196 26.7071 25.7071C26.5196 25.8946 26.2652 26 26 26H12C11.7348 26 11.4804 25.8946 11.2929 25.7071C11.1054 25.5196 11 25.2652 11 25V15.83C11.3213 15.943 11.6594 16.0005 12 16H26C26.2652 16 26.5196 16.1054 26.7071 16.2929C26.8946 16.4804 27 16.7348 27 17V18Z" fill="#FFDE54"/>
</svg>
