<svg width="38" height="38" viewBox="0 0 38 38" fill="none" xmlns="http://www.w3.org/2000/svg">
<rect width="38" height="38" rx="6" fill="#DAFFF1"/>
<path d="M29 10H9C8.73478 10 8.48043 10.1054 8.29289 10.2929C8.10536 10.4804 8 10.7348 8 11V19C8 19.2652 8.10536 19.5196 8.29289 19.7071C8.48043 19.8946 8.73478 20 9 20H12V29C12 29.2652 12.1054 29.5196 12.2929 29.7071C12.4804 29.8946 12.7348 30 13 30H25C25.2652 30 25.5196 29.8946 25.7071 29.7071C25.8946 29.5196 26 29.2652 26 29V20H29C29.2652 20 29.5196 19.8946 29.7071 19.7071C29.8946 19.5196 30 19.2652 30 19V11C30 10.7348 29.8946 10.4804 29.7071 10.2929C29.5196 10.1054 29.2652 10 29 10V10ZM14 28V26C14.5304 26 15.0391 26.2107 15.4142 26.5858C15.7893 26.9609 16 27.4696 16 28H14ZM24 28H22C22 27.4696 22.2107 26.9609 22.5858 26.5858C22.9609 26.2107 23.4696 26 24 26V28ZM24 24C22.9391 24 21.9217 24.4214 21.1716 25.1716C20.4214 25.9217 20 26.9391 20 28H18C18 26.9391 17.5786 25.9217 16.8284 25.1716C16.0783 24.4214 15.0609 24 14 24V16H24V24ZM28 18H26V15C26 14.7348 25.8946 14.4804 25.7071 14.2929C25.5196 14.1054 25.2652 14 25 14H13C12.7348 14 12.4804 14.1054 12.2929 14.2929C12.1054 14.4804 12 14.7348 12 15V18H10V12H28V18ZM19 23C19.5933 23 20.1734 22.8241 20.6667 22.4944C21.1601 22.1648 21.5446 21.6962 21.7716 21.1481C21.9987 20.5999 22.0581 19.9967 21.9424 19.4147C21.8266 18.8328 21.5409 18.2982 21.1213 17.8787C20.7018 17.4591 20.1672 17.1734 19.5853 17.0576C19.0033 16.9419 18.4001 17.0013 17.8519 17.2284C17.3038 17.4554 16.8352 17.8399 16.5056 18.3333C16.1759 18.8266 16 19.4067 16 20C16 20.7956 16.3161 21.5587 16.8787 22.1213C17.4413 22.6839 18.2044 23 19 23ZM19 19C19.1978 19 19.3911 19.0586 19.5556 19.1685C19.72 19.2784 19.8482 19.4346 19.9239 19.6173C19.9996 19.8 20.0194 20.0011 19.9808 20.1951C19.9422 20.3891 19.847 20.5673 19.7071 20.7071C19.5673 20.847 19.3891 20.9422 19.1951 20.9808C19.0011 21.0194 18.8 20.9996 18.6173 20.9239C18.4346 20.8482 18.2784 20.72 18.1685 20.5556C18.0586 20.3911 18 20.1978 18 20C18 19.7348 18.1054 19.4804 18.2929 19.2929C18.4804 19.1054 18.7348 19 19 19V19Z" fill="#0ACF83"/>
</svg>
