<svg width="38" height="38" viewBox="0 0 38 38" fill="none" xmlns="http://www.w3.org/2000/svg">
<rect width="38" height="38" rx="6" fill="#654DE4" fill-opacity="0.1"/>
<path d="M26 14H23V13C23 12.2044 22.6839 11.4413 22.1213 10.8787C21.5587 10.3161 20.7956 10 20 10H18C17.2044 10 16.4413 10.3161 15.8787 10.8787C15.3161 11.4413 15 12.2044 15 13V14H12C11.2044 14 10.4413 14.3161 9.87868 14.8787C9.31607 15.4413 9 16.2044 9 17V25C9 25.7956 9.31607 26.5587 9.87868 27.1213C10.4413 27.6839 11.2044 28 12 28H26C26.7956 28 27.5587 27.6839 28.1213 27.1213C28.6839 26.5587 29 25.7956 29 25V17C29 16.2044 28.6839 15.4413 28.1213 14.8787C27.5587 14.3161 26.7956 14 26 14ZM17 13C17 12.7348 17.1054 12.4804 17.2929 12.2929C17.4804 12.1054 17.7348 12 18 12H20C20.2652 12 20.5196 12.1054 20.7071 12.2929C20.8946 12.4804 21 12.7348 21 13V14H17V13ZM11 17C11 16.7348 11.1054 16.4804 11.2929 16.2929C11.4804 16.1054 11.7348 16 12 16H13C13 16.5304 12.7893 17.0391 12.4142 17.4142C12.0391 17.7893 11.5304 18 11 18V17ZM12 26C11.7348 26 11.4804 25.8946 11.2929 25.7071C11.1054 25.5196 11 25.2652 11 25V24C11.5304 24 12.0391 24.2107 12.4142 24.5858C12.7893 24.9609 13 25.4696 13 26H12ZM27 25C27 25.2652 26.8946 25.5196 26.7071 25.7071C26.5196 25.8946 26.2652 26 26 26H25C25 25.4696 25.2107 24.9609 25.5858 24.5858C25.9609 24.2107 26.4696 24 27 24V25ZM27 22C25.9391 22 24.9217 22.4214 24.1716 23.1716C23.4214 23.9217 23 24.9391 23 26H15C15 24.9391 14.5786 23.9217 13.8284 23.1716C13.0783 22.4214 12.0609 22 11 22V20C12.0609 20 13.0783 19.5786 13.8284 18.8284C14.5786 18.0783 15 17.0609 15 16H23C23 17.0609 23.4214 18.0783 24.1716 18.8284C24.9217 19.5786 25.9391 20 27 20V22ZM27 18C26.4696 18 25.9609 17.7893 25.5858 17.4142C25.2107 17.0391 25 16.5304 25 16H26C26.2652 16 26.5196 16.1054 26.7071 16.2929C26.8946 16.4804 27 16.7348 27 17V18ZM19 18C18.4067 18 17.8266 18.1759 17.3333 18.5056C16.8399 18.8352 16.4554 19.3038 16.2284 19.8519C16.0013 20.4001 15.9419 21.0033 16.0576 21.5853C16.1734 22.1672 16.4591 22.7018 16.8787 23.1213C17.2982 23.5409 17.8328 23.8266 18.4147 23.9424C18.9967 24.0581 19.5999 23.9987 20.1481 23.7716C20.6962 23.5446 21.1648 23.1601 21.4944 22.6667C21.8241 22.1734 22 21.5933 22 21C22 20.2044 21.6839 19.4413 21.1213 18.8787C20.5587 18.3161 19.7956 18 19 18V18ZM19 22C18.8022 22 18.6089 21.9414 18.4444 21.8315C18.28 21.7216 18.1518 21.5654 18.0761 21.3827C18.0004 21.2 17.9806 20.9989 18.0192 20.8049C18.0578 20.6109 18.153 20.4327 18.2929 20.2929C18.4327 20.153 18.6109 20.0578 18.8049 20.0192C18.9989 19.9806 19.2 20.0004 19.3827 20.0761C19.5654 20.1518 19.7216 20.28 19.8315 20.4444C19.9414 20.6089 20 20.8022 20 21C20 21.2652 19.8946 21.5196 19.7071 21.7071C19.5196 21.8946 19.2652 22 19 22Z" fill="#654DE4"/>
</svg>
