<svg width="23" height="26" viewBox="0 0 23 26" fill="none" xmlns="http://www.w3.org/2000/svg">
<path fill-rule="evenodd" clip-rule="evenodd" d="M21.1765 7.22779L13.7096 0.890857C12.2669 -0.333527 10.138 -0.291255 8.74505 0.989429L1.21194 7.91532C0.439558 8.62545 0 9.62668 0 10.6759V21.2536C0 23.3247 1.67893 25.0036 3.75 25.0036H18.75C20.8211 25.0036 22.5 23.3246 22.5 21.2536V10.0869C22.5 8.98579 22.016 7.9403 21.1765 7.22779ZM10.4371 2.82981C10.9014 2.40292 11.611 2.38883 12.0919 2.79695L19.5588 9.13389C19.8387 9.37139 20 9.71989 20 10.0869V21.2536C20 21.9439 19.4404 22.5036 18.75 22.5036H16.25C16.25 22.5004 16.25 22.4972 16.25 22.494V16.2872C16.25 14.9065 15.1307 13.7872 13.75 13.7872H8.75C7.36929 13.7872 6.25 14.9065 6.25 16.2872V22.494C6.25 22.4972 6.25001 22.5004 6.25002 22.5036H3.75C3.05964 22.5036 2.5 21.9439 2.5 21.2536V10.6759C2.5 10.3262 2.64652 9.99242 2.90398 9.75571L10.4371 2.82981ZM8.75 16.2872H13.75V22.494H8.75V16.2872Z" fill="#D1D1D1"/>
</svg>
