<svg width="100" height="40" viewBox="0 0 100 40" fill="none" xmlns="http://www.w3.org/2000/svg">
<path d="M40.582 22.728C40.582 18.43 43.008 15.634 47.018 15.634C50.718 15.634 52.96 17.69 52.96 21.002V21.124H50.6V21C50.6 18.738 49.55 17.77 46.96 17.77C44.102 17.77 42.95 19.148 42.95 22.726C42.95 26.304 44.102 27.682 46.96 27.682C49.55 27.682 50.6 26.716 50.6 24.454V24.33H52.96V24.454C52.96 27.764 50.718 29.82 47.018 29.82C43 29.822 40.582 27.026 40.582 22.728Z" fill="black"/>
<path d="M53.908 27.088C53.908 25.402 55.142 24.518 57.32 24.208L60.898 23.674V23.12C60.898 21.598 60.2 21.146 58.596 21.146C56.992 21.146 56.334 21.66 56.334 23.016V23.324H54.2V23.124C54.2 20.836 55.984 19.2 58.718 19.2C61.576 19.2 63.016 20.926 63.016 23.414V29.624H60.96V28.0239H60.858C60.258 28.9899 59.088 29.8239 57.156 29.8239C55.326 29.8219 53.908 28.876 53.908 27.088ZM57.876 28.054C59.314 28.054 60.898 27.478 60.898 25.422V25.236L57.65 25.7299C56.478 25.8959 56.066 26.1619 56.066 26.9299C56.066 27.7259 56.58 28.054 57.876 28.054Z" fill="black"/>
<path d="M64.4159 26.162V26.122H66.5539V26.492C66.5539 27.602 67.0479 28.014 68.9999 28.014C70.6459 28.014 70.9539 27.642 70.9539 26.882C70.9539 26.06 70.4599 25.812 68.9539 25.546L67.3699 25.278C65.5399 24.95 64.3879 24.126 64.3879 22.278C64.3879 20.43 65.9159 19.2 68.5999 19.2C70.9999 19.2 72.8139 20.4 72.8139 22.716V22.9H70.6859V22.654C70.6859 21.708 70.3579 21.03 68.5279 21.03C66.9039 21.03 66.5119 21.462 66.5119 22.242C66.5119 23.022 66.8819 23.242 68.3219 23.538L70.0499 23.868C72.0239 24.268 73.0499 25.142 73.0499 26.828C73.0499 28.72 71.5479 29.828 68.9579 29.828C65.9779 29.822 64.4159 28.65 64.4159 26.162Z" fill="black"/>
<path d="M74.3479 29.6161V15.8401H76.5679V21.1041H76.6499C77.1239 20.1781 78.2139 19.1921 80.0639 19.1921C82.7379 19.1921 83.8639 20.9401 83.8639 23.1801V29.6161H81.6439V23.6941C81.6439 21.8641 81.0679 21.0941 79.1959 21.0941C77.3959 21.0941 76.5639 21.7941 76.5639 23.7261V29.6061L74.3479 29.6161Z" fill="black"/>
<path d="M85.728 29.616L90.416 22.75V22.584L85.728 15.84H88.38L92.124 21.2H92.288L95.988 15.834H98.6L93.912 22.578V22.744L98.6 29.616H95.948L92.2 24.126H92.056L88.34 29.616H85.728Z" fill="black"/>
<path d="M30.874 27.706L35.004 11.664L30.874 10.936V27.706Z" fill="black"/>
<path d="M34.918 17.2261L30.874 32.5801L37.828 18.2841L34.918 17.2261Z" fill="black"/>
<path d="M8.35412 27.706L4.22412 11.664L8.35412 10.936V27.706Z" fill="black"/>
<path d="M4.3119 17.2261L8.3539 32.5801L1.3999 18.2841L4.3119 17.2261Z" fill="black"/>
<path d="M9.72998 8.34399V36.976H29.498V8.34399H9.72998ZM19.256 22.978L14.64 28.724H11.888L16.504 22.978H17.88L12.484 16.6H15.234L19.256 21.356L17.88 22.982L19.256 22.978ZM24.586 28.724L19.972 22.978H21.348L19.972 21.35L24 16.6H26.754L21.354 22.982H22.73L27.344 28.728L24.586 28.724Z" fill="black"/>
</svg>
