<svg width="91" height="43" viewBox="0 0 91 43" fill="none" xmlns="http://www.w3.org/2000/svg">
<path d="M9.65833 6.22999L9.6167 4.06486C8.74708 4.24645 7.87283 4.42805 7.00321 4.62361C5.17146 5.01473 3.34896 5.42447 1.52646 5.83887L0 6.18343L1.2998 12.0921L2.30357 16.5295L3.33046 20.9529C3.67275 22.4289 4.03355 23.9003 4.39435 25.3763L5.47213 29.7997L6.59616 34.2091C6.96621 35.6805 7.36864 37.1472 7.75719 38.6139C8.14574 40.0806 8.56205 41.5426 8.97836 43C8.80258 41.4914 8.61756 39.9828 8.4094 38.4788C8.20125 36.9749 8.0116 35.4663 7.78032 33.967L7.11885 29.4644L6.41113 24.9712C6.1706 23.4719 5.93931 21.9726 5.6849 20.478L4.9263 15.9987L4.14457 11.5194L3.62187 8.6C4.96331 8.35788 6.30937 8.10644 7.65543 7.85035C8.33539 7.72463 9.01536 7.5896 9.69533 7.45457L9.69071 7.20314L9.65833 6.22999Z" fill="#061E38"/>
<path d="M15.7595 6.22999C15.778 6.22534 15.7965 6.22068 15.8151 6.21603L15.7642 5.92734L15.7595 6.22999Z" fill="#061E38"/>
<path d="M32.0834 5.96459L32.0371 6.22068C32.0557 6.22534 32.0695 6.22534 32.088 6.22999L32.0834 5.96459Z" fill="#061E38"/>
<path d="M46.3257 5.83422C44.5032 5.41982 42.6807 5.01007 40.849 4.61895C39.9794 4.42804 39.1098 4.2418 38.2355 4.06021L38.1939 6.22534L38.1707 7.20314L38.1661 7.45457C38.8415 7.5896 39.5214 7.72463 40.2014 7.85035C41.5475 8.10644 42.8935 8.35788 44.2349 8.6L43.7123 11.5194L42.9305 15.9987L42.1719 20.478C41.9175 21.9726 41.6862 23.4719 41.4457 24.9712L40.738 29.4644L40.0765 33.967C39.8499 35.4663 39.6556 36.9749 39.4474 38.4788C39.2393 39.9828 39.0542 41.4914 38.8785 43C39.2948 41.5426 39.7111 40.0806 40.0996 38.6139C40.4882 37.1472 40.886 35.6805 41.2607 34.2091L42.3847 29.7997L43.4578 25.3809C43.8186 23.9096 44.1794 22.4336 44.5217 20.9576L45.5486 16.5295L46.5524 12.0921L47.8522 6.18343L46.3257 5.83422Z" fill="#061E38"/>
<path d="M36.1725 19.868C36.302 16.8368 36.3991 13.8103 36.4824 10.7791L36.487 10.5789L36.5703 7.21245L36.5934 6.23465L36.7044 0.172279L35.1363 0.139686L32.3332 0.0744992L29.5301 0.0372496C27.9342 0.0139686 26.3384 0.0139686 24.7425 0.0046562C24.4742 0 24.2013 0 23.9284 0C23.6694 0 23.4057 0 23.1467 0.0046562C21.537 0.0093124 19.9272 0.0093124 18.3175 0.0372496C16.4488 0.0558744 14.58 0.093124 12.7112 0.139686L11.1478 0.176936L11.2634 6.23L11.2866 7.2078L11.3698 10.5742L11.3744 10.7744L11.5132 15.3189C11.5595 16.8368 11.6242 18.3501 11.6844 19.868L11.8694 24.4171L11.9064 25.1528L12.1053 28.9616C12.1747 30.4795 12.2857 31.9927 12.3782 33.5107C12.4707 35.0286 12.5864 36.5419 12.7112 38.0551C12.8361 36.5419 12.9518 35.0286 13.0443 33.5107C13.1368 31.9927 13.2432 30.4795 13.3172 28.9616L13.5161 25.1528L13.5531 24.4171L13.7381 19.868C13.8029 18.3501 13.8677 16.8368 13.9093 15.3189L14.0481 10.7744L14.0527 10.5603L14.1359 7.21245L14.1637 6.22534L14.2238 3.25934C15.593 3.28728 16.9622 3.31056 18.3268 3.32453C19.9457 3.35246 21.5647 3.34781 23.1791 3.35712C23.4335 3.35712 23.6833 3.35712 23.9377 3.36178C24.2198 3.36178 24.502 3.35712 24.7842 3.35712C26.3708 3.35246 27.9573 3.34781 29.5439 3.32453L32.3471 3.28728L33.6469 3.25934L33.7024 6.22068L33.7301 7.2078L33.8134 10.5509L33.818 10.7698C33.9013 13.801 33.9984 16.8275 34.1279 19.8587L34.3176 24.4078L34.3592 25.19L34.5535 28.9476C34.6275 30.4655 34.7339 31.9788 34.8264 33.4967C34.9143 35.0146 35.0346 36.5279 35.1595 38.0411C35.2844 36.5279 35.4 35.0146 35.4925 33.4967C35.585 31.9788 35.6914 30.4655 35.7654 28.9476L35.9597 25.19L36.0013 24.4078L36.1725 19.868Z" fill="#061E38"/>
<path d="M23.9284 30.3165C27.3517 30.3165 30.1268 27.5231 30.1268 24.0772C30.1268 20.6313 27.3517 17.8379 23.9284 17.8379C20.5052 17.8379 17.7301 20.6313 17.7301 24.0772C17.7301 27.5231 20.5052 30.3165 23.9284 30.3165Z" fill="#061E38"/>
<path d="M66.574 16.7864C64.9807 16.7864 63.7598 17.2763 62.9114 18.2561C62.063 19.2359 61.6388 20.6221 61.6388 22.4149C61.6388 24.2285 62.1044 25.6252 63.0356 26.605C63.9874 27.5848 65.26 28.0747 66.8534 28.0747C67.7018 28.0747 68.4157 27.96 68.9951 27.7307C69.5952 27.5014 70.1642 27.2408 70.7023 26.949C71.054 27.2408 71.3231 27.5952 71.5093 28.0121C71.7162 28.4082 71.8197 28.8772 71.8197 29.4192C71.8197 30.2739 71.3437 31.0036 70.3919 31.6081C69.4607 32.1918 68.0329 32.4836 66.1085 32.4836C64.722 32.4836 63.4184 32.2856 62.1975 31.8895C60.9766 31.4934 59.9109 30.8889 59.0005 30.0759C58.09 29.242 57.3657 28.1997 56.8277 26.949C56.3104 25.6773 56.0517 24.166 56.0517 22.4149C56.0517 20.7889 56.3 19.3609 56.7967 18.131C57.314 16.8802 58.0072 15.8275 58.8763 14.9728C59.7661 14.1181 60.8007 13.4719 61.9802 13.0341C63.1597 12.5963 64.422 12.3774 65.767 12.3774C67.6708 12.3774 69.14 12.6901 70.1746 13.3155C71.2299 13.9409 71.7576 14.7435 71.7576 15.7233C71.7576 16.2653 71.6231 16.7343 71.3541 17.1304C71.0851 17.5265 70.7747 17.8392 70.4229 18.0685C69.8849 17.7141 69.3055 17.4118 68.6847 17.1617C68.0846 16.9115 67.3811 16.7864 66.574 16.7864Z" fill="#061E38"/>
<path d="M73.8663 15.2855C73.9698 14.9936 74.1146 14.7018 74.3009 14.41C74.4871 14.1181 74.7147 13.8575 74.9837 13.6282C75.2734 13.3781 75.6045 13.18 75.977 13.0341C76.3495 12.8673 76.7633 12.7839 77.2186 12.7839C77.8187 12.7839 78.3463 12.9403 78.8016 13.253C79.2568 13.5448 79.7224 14.0556 80.1983 14.7852L82.6194 18.5062L86.1889 13.1904C86.3545 13.1071 86.5821 13.0341 86.8718 12.9716C87.1822 12.8882 87.4822 12.8465 87.7719 12.8465C88.7238 12.8465 89.4687 13.0758 90.0067 13.5344C90.5447 13.993 90.8138 14.5559 90.8138 15.223C90.8138 15.8067 90.6586 16.3278 90.3482 16.7864C90.0585 17.245 89.655 17.7975 89.1376 18.4437L85.9406 22.3836L91 29.6694C90.8345 30.4407 90.4723 31.0557 89.9136 31.5143C89.3756 31.9521 88.641 32.1709 87.7098 32.1709C87.1097 32.1709 86.5924 32.025 86.1579 31.7332C85.7233 31.4205 85.2784 30.8993 84.8232 30.1697L82.309 26.1672L78.3981 32.1084C78.2325 32.1292 78.0773 32.1397 77.9325 32.1397C77.7876 32.1605 77.6428 32.1709 77.4979 32.1709C76.3184 32.1709 75.4493 31.9312 74.8906 31.4517C74.3319 30.9723 74.0526 30.3782 74.0526 29.6694C74.0526 29.0649 74.1767 28.5437 74.425 28.1059C74.694 27.6473 75.0665 27.1157 75.5424 26.5112L78.8016 22.2898L73.8663 15.2855Z" fill="#061E38"/>
</svg>
