<svg width="92" height="84" viewBox="0 0 92 84" fill="none" xmlns="http://www.w3.org/2000/svg">
<path d="M39.5834 17L41.8334 14.5417V29.5C41.8334 30.6051 42.2724 31.6649 43.0538 32.4463C43.8352 33.2277 44.895 33.6667 46.0001 33.6667C47.1051 33.6667 48.165 33.2277 48.9464 32.4463C49.7278 31.6649 50.1667 30.6051 50.1667 29.5V14.5417L52.4167 16.8334C52.795 17.2605 53.2569 17.6055 53.7739 17.8468C54.2909 18.0882 54.8519 18.2208 55.4223 18.2364C55.9926 18.252 56.5601 18.1503 57.0895 17.9377C57.6189 17.725 58.099 17.4058 58.5001 17C58.8906 16.6127 59.2006 16.1518 59.4121 15.6441C59.6237 15.1363 59.7326 14.5917 59.7326 14.0417C59.7326 13.4916 59.6237 12.947 59.4121 12.4393C59.2006 11.9315 58.8906 11.4707 58.5001 11.0833L48.9584 1.54168C48.5621 1.16235 48.0949 0.864992 47.5834 0.666682C46.569 0.249941 45.4312 0.249941 44.4167 0.666682C43.9053 0.864992 43.438 1.16235 43.0417 1.54168L33.5001 10.9167C32.6934 11.7234 32.2402 12.8175 32.2402 13.9583C32.2402 15.0992 32.6934 16.1933 33.5001 17C34.3068 17.8067 35.4009 18.2599 36.5417 18.2599C37.6826 18.2599 38.7767 17.8067 39.5834 17V17ZM46.0001 42C43.5278 42 41.1111 42.7331 39.0555 44.1066C36.9998 45.4802 35.3977 47.4324 34.4516 49.7165C33.5055 52.0006 33.2579 54.5139 33.7403 56.9386C34.2226 59.3634 35.4131 61.5907 37.1612 63.3389C38.9094 65.087 41.1367 66.2775 43.5615 66.7598C45.9862 67.2422 48.4995 66.9946 50.7836 66.0485C53.0677 65.1024 55.0199 63.5003 56.3934 61.4446C57.767 59.389 58.5001 56.9723 58.5001 54.5C58.5001 51.1848 57.1831 48.0054 54.8389 45.6612C52.4947 43.317 49.3153 42 46.0001 42ZM46.0001 58.6667C45.176 58.6667 44.3704 58.4223 43.6852 57.9645C43 57.5066 42.4659 56.8559 42.1506 56.0945C41.8352 55.3332 41.7527 54.4954 41.9135 53.6871C42.0742 52.8789 42.4711 52.1365 43.0538 51.5537C43.6365 50.971 44.3789 50.5742 45.1872 50.4134C45.9955 50.2526 46.8332 50.3352 47.5946 50.6505C48.356 50.9659 49.0067 51.4999 49.4645 52.1851C49.9224 52.8703 50.1667 53.6759 50.1667 54.5C50.1667 55.6051 49.7278 56.6649 48.9464 57.4463C48.165 58.2277 47.1051 58.6667 46.0001 58.6667ZM16.8334 54.5C16.8334 55.3241 17.0778 56.1297 17.5356 56.8149C17.9935 57.5001 18.6442 58.0342 19.4056 58.3495C20.1669 58.6649 21.0047 58.7474 21.813 58.5866C22.6212 58.4259 23.3636 58.029 23.9464 57.4463C24.5291 56.8636 24.9259 56.1211 25.0867 55.3129C25.2475 54.5046 25.1649 53.6669 24.8496 52.9055C24.5342 52.1441 24.0002 51.4934 23.315 51.0356C22.6298 50.5777 21.8242 50.3334 21.0001 50.3334C19.895 50.3334 18.8352 50.7723 18.0538 51.5537C17.2724 52.3351 16.8334 53.3949 16.8334 54.5ZM75.1667 54.5C75.1667 53.6759 74.9224 52.8703 74.4645 52.1851C74.0067 51.4999 73.3559 50.9659 72.5946 50.6505C71.8332 50.3352 70.9955 50.2526 70.1872 50.4134C69.3789 50.5742 68.6365 50.971 68.0538 51.5537C67.4711 52.1365 67.0742 52.8789 66.9135 53.6871C66.7527 54.4954 66.8352 55.3332 67.1506 56.0945C67.4659 56.8559 68 57.5066 68.6852 57.9645C69.3704 58.4223 70.176 58.6667 71.0001 58.6667C72.1051 58.6667 73.165 58.2277 73.9464 57.4463C74.7278 56.6649 75.1667 55.6051 75.1667 54.5ZM79.3334 25.3334H62.6667C61.5617 25.3334 60.5019 25.7723 59.7205 26.5537C58.9391 27.3351 58.5001 28.3949 58.5001 29.5C58.5001 30.6051 58.9391 31.6649 59.7205 32.4463C60.5019 33.2277 61.5617 33.6667 62.6667 33.6667H79.3334C80.4385 33.6667 81.4983 34.1057 82.2797 34.8871C83.0611 35.6685 83.5001 36.7283 83.5001 37.8334V71.1667C83.5001 72.2718 83.0611 73.3316 82.2797 74.113C81.4983 74.8944 80.4385 75.3334 79.3334 75.3334H12.6667C11.5617 75.3334 10.5019 74.8944 9.72047 74.113C8.93907 73.3316 8.50008 72.2718 8.50008 71.1667V37.8334C8.50008 36.7283 8.93907 35.6685 9.72047 34.8871C10.5019 34.1057 11.5617 33.6667 12.6667 33.6667H29.3334C30.4385 33.6667 31.4983 33.2277 32.2797 32.4463C33.0611 31.6649 33.5001 30.6051 33.5001 29.5C33.5001 28.3949 33.0611 27.3351 32.2797 26.5537C31.4983 25.7723 30.4385 25.3334 29.3334 25.3334H12.6667C9.35154 25.3334 6.17212 26.6503 3.82791 28.9945C1.48371 31.3387 0.166748 34.5181 0.166748 37.8334V71.1667C0.166748 74.4819 1.48371 77.6613 3.82791 80.0055C6.17212 82.3497 9.35154 83.6667 12.6667 83.6667H79.3334C82.6486 83.6667 85.828 82.3497 88.1722 80.0055C90.5165 77.6613 91.8334 74.4819 91.8334 71.1667V37.8334C91.8334 34.5181 90.5165 31.3387 88.1722 28.9945C85.828 26.6503 82.6486 25.3334 79.3334 25.3334Z" fill="#D1D1D1"/>
</svg>
