<svg width="18" height="21" viewBox="0 0 18 21" fill="none" xmlns="http://www.w3.org/2000/svg">
<path fill-rule="evenodd" clip-rule="evenodd" d="M3.06 2.85997C4.63539 1.28458 6.77207 0.399536 9 0.399536C11.2279 0.399536 13.3646 1.28458 14.94 2.85997C16.5154 4.43535 17.4004 6.57203 17.4004 8.79997C17.4004 11.0279 16.5154 13.1646 14.94 14.74L9 20.68L3.06 14.74C2.2799 13.9599 1.66108 13.0339 1.23889 12.0147C0.816696 10.9955 0.599396 9.90314 0.599396 8.79997C0.599396 7.69679 0.816696 6.60442 1.23889 5.58523C1.66108 4.56604 2.2799 3.63999 3.06 2.85997ZM9 11.2C9.63652 11.2 10.247 10.9471 10.6971 10.497C11.1471 10.0469 11.4 9.43649 11.4 8.79997C11.4 8.16345 11.1471 7.553 10.6971 7.10291C10.247 6.65282 9.63652 6.39997 9 6.39997C8.36348 6.39997 7.75303 6.65282 7.30295 7.10291C6.85286 7.553 6.6 8.16345 6.6 8.79997C6.6 9.43649 6.85286 10.0469 7.30295 10.497C7.75303 10.9471 8.36348 11.2 9 11.2Z" fill="#DC2626"/>
</svg>
