<svg width="12" height="14" viewBox="0 0 12 14" fill="none" xmlns="http://www.w3.org/2000/svg">
<path d="M9.65685 1.65685C8.59599 0.595988 7.15714 -1.1178e-08 5.65685 0C4.15656 1.1178e-08 2.71772 0.595988 1.65685 1.65685C0.595988 2.71772 1.1178e-08 4.15656 0 5.65685C-1.1178e-08 7.15715 0.595988 8.59599 1.65685 9.65685L5.17019 13.1769C5.23216 13.2393 5.3059 13.2889 5.38714 13.3228C5.46838 13.3566 5.55551 13.3741 5.64352 13.3741C5.73153 13.3741 5.81867 13.3566 5.8999 13.3228C5.98114 13.2889 6.05488 13.2393 6.11685 13.1769L9.65685 9.62352C10.7133 8.56707 11.3068 7.13422 11.3068 5.64019C11.3068 4.14615 10.7133 2.71331 9.65685 1.65685ZM8.70352 8.67019L5.65685 11.7302L2.61019 8.67019C2.00828 8.06773 1.5985 7.30035 1.43265 6.46505C1.2668 5.62974 1.35231 4.76402 1.67839 3.97731C2.00447 3.1906 2.55647 2.51822 3.26461 2.04517C3.97275 1.57212 4.80524 1.31964 5.65685 1.31964C6.50846 1.31964 7.34096 1.57212 8.0491 2.04517C8.75724 2.51822 9.30924 3.1906 9.63532 3.97731C9.96139 4.76402 10.0469 5.62974 9.88106 6.46505C9.7152 7.30035 9.30542 8.06773 8.70352 8.67019ZM3.65685 3.61019C3.11866 4.15004 2.81645 4.88123 2.81645 5.64352C2.81645 6.40581 3.11866 7.13701 3.65685 7.67685C4.05669 8.07738 4.56591 8.35091 5.12062 8.46312C5.67533 8.57534 6.25082 8.52124 6.7749 8.30762C7.29898 8.094 7.74831 7.73037 8.06651 7.26235C8.38471 6.79433 8.55761 6.24277 8.56352 5.67685C8.56652 5.29899 8.49374 4.92436 8.34946 4.57511C8.20518 4.22587 7.99234 3.90909 7.72352 3.64352C7.4593 3.37324 7.14424 3.15788 6.79647 3.00983C6.4487 2.86178 6.07508 2.78397 5.69712 2.78087C5.31916 2.77778 4.94432 2.84945 4.59417 2.99178C4.24402 3.13411 3.92547 3.34427 3.65685 3.61019ZM6.78352 6.73019C6.53088 6.98668 6.19699 7.14746 5.83894 7.18502C5.48088 7.22259 5.1209 7.13461 4.82053 6.93614C4.52015 6.73766 4.29805 6.44102 4.19219 6.09691C4.08633 5.7528 4.10329 5.38261 4.24016 5.04962C4.37703 4.71664 4.62532 4.44153 4.94258 4.27134C5.25983 4.10116 5.62636 4.04646 5.97948 4.1166C6.3326 4.18674 6.65039 4.37736 6.87853 4.65587C7.10666 4.93439 7.23096 5.2835 7.23019 5.64352C7.22049 6.05503 7.04785 6.44587 6.75019 6.73019H6.78352Z" fill="white"/>
</svg>
