<svg width="20" height="27" viewBox="0 0 20 27" fill="none" xmlns="http://www.w3.org/2000/svg">
<path d="M3.68182 27H6.13636V24.5455H3.68182V27ZM8.59091 27H11.0455V24.5455H8.59091V27ZM11.0455 0H8.59091V12.2727H11.0455V0ZM15.4145 2.99455L13.635 4.77409C15.7582 6.06273 17.1818 8.38227 17.1818 11.0455C17.1818 15.1077 13.8805 18.4091 9.81818 18.4091C5.75591 18.4091 2.45455 15.1077 2.45455 11.0455C2.45455 8.38227 3.87818 6.06273 5.98909 4.76182L4.22182 2.99455C1.66909 4.76182 0 7.70727 0 11.0455C0 16.47 4.39364 20.8636 9.81818 20.8636C15.2427 20.8636 19.6364 16.47 19.6364 11.0455C19.6364 7.70727 17.9673 4.76182 15.4145 2.99455V2.99455ZM13.5 27H15.9545V24.5455H13.5V27Z" fill="white"/>
</svg>
