<svg width="49" height="48" viewBox="0 0 49 48" fill="none" xmlns="http://www.w3.org/2000/svg">
<path fill-rule="evenodd" clip-rule="evenodd" d="M0.312744 4C0.312744 1.79086 2.10361 0 4.31274 0H44.3127C46.5219 0 48.3127 1.79086 48.3127 4V44C48.3127 46.2091 46.5219 48 44.3127 48H4.31274C2.1036 48 0.312744 46.2091 0.312744 44V4Z" fill="white"/>
<path d="M0.812744 4C0.812744 2.067 2.37975 0.5 4.31274 0.5H44.3127C46.2457 0.5 47.8127 2.067 47.8127 4V44C47.8127 45.933 46.2457 47.5 44.3127 47.5H4.31274C2.37975 47.5 0.812744 45.933 0.812744 44V4Z" stroke="#E4E4E4" stroke-opacity="0.6"/>
<circle cx="31.5524" cy="23.9999" r="11.1276" fill="#F79E1B"/>
<circle cx="17.0731" cy="23.9999" r="11.1276" fill="#EB001B"/>
</svg>
