<svg width="354" height="103" viewBox="0 0 354 103" fill="none" xmlns="http://www.w3.org/2000/svg">
<path d="M137.422 29.5L177.55 0L207.233 29.5H137.422Z" fill="#061E38"/>
<path d="M0 28C0 21.3726 5.9065 16 13.1925 16H340.807C348.093 16 354 21.3726 354 28V91C354 97.6274 348.093 103 340.807 103H13.1925C5.90651 103 0 97.6274 0 91V28Z" fill="#061E38"/>
<path d="M116.828 49.06C117.089 49.06 117.299 49.144 117.458 49.312C117.617 49.4707 117.696 49.6853 117.696 49.956V58.244C117.696 58.5053 117.621 58.7107 117.472 58.86C117.323 59.0093 117.127 59.084 116.884 59.084C116.641 59.084 116.45 59.0093 116.31 58.86C116.17 58.7107 116.1 58.5053 116.1 58.244V52.476L113.72 56.984C113.608 57.1893 113.487 57.3433 113.356 57.446C113.225 57.5393 113.071 57.586 112.894 57.586C112.717 57.586 112.563 57.5393 112.432 57.446C112.301 57.3527 112.18 57.1987 112.068 56.984L109.674 52.546V58.244C109.674 58.496 109.599 58.7013 109.45 58.86C109.31 59.0093 109.119 59.084 108.876 59.084C108.633 59.084 108.442 59.0093 108.302 58.86C108.162 58.7107 108.092 58.5053 108.092 58.244V49.956C108.092 49.6853 108.167 49.4707 108.316 49.312C108.475 49.144 108.685 49.06 108.946 49.06C109.31 49.06 109.595 49.2607 109.8 49.662L112.908 55.584L116.002 49.662C116.207 49.2607 116.483 49.06 116.828 49.06ZM122.649 51.986C123.601 51.986 124.306 52.224 124.763 52.7C125.23 53.1667 125.463 53.8807 125.463 54.842V58.258C125.463 58.51 125.389 58.7107 125.239 58.86C125.09 59 124.885 59.07 124.623 59.07C124.381 59.07 124.18 58.9953 124.021 58.846C123.872 58.6967 123.797 58.5007 123.797 58.258V57.95C123.639 58.314 123.387 58.5987 123.041 58.804C122.705 59.0093 122.313 59.112 121.865 59.112C121.408 59.112 120.993 59.0187 120.619 58.832C120.246 58.6453 119.952 58.3887 119.737 58.062C119.523 57.7353 119.415 57.3713 119.415 56.97C119.415 56.466 119.541 56.0693 119.793 55.78C120.055 55.4907 120.475 55.2807 121.053 55.15C121.632 55.0193 122.43 54.954 123.447 54.954H123.797V54.632C123.797 54.1747 123.699 53.8433 123.503 53.638C123.307 53.4233 122.99 53.316 122.551 53.316C122.281 53.316 122.005 53.358 121.725 53.442C121.445 53.5167 121.114 53.6287 120.731 53.778C120.489 53.8993 120.311 53.96 120.199 53.96C120.031 53.96 119.891 53.8993 119.779 53.778C119.677 53.6567 119.625 53.498 119.625 53.302C119.625 53.1433 119.663 53.008 119.737 52.896C119.821 52.7747 119.957 52.6627 120.143 52.56C120.47 52.3827 120.857 52.2427 121.305 52.14C121.763 52.0373 122.211 51.986 122.649 51.986ZM122.215 57.852C122.682 57.852 123.06 57.698 123.349 57.39C123.648 57.0727 123.797 56.6667 123.797 56.172V55.878H123.545C122.92 55.878 122.435 55.906 122.089 55.962C121.744 56.018 121.497 56.116 121.347 56.256C121.198 56.396 121.123 56.5873 121.123 56.83C121.123 57.1287 121.226 57.376 121.431 57.572C121.646 57.7587 121.907 57.852 122.215 57.852ZM130.798 57.782C131.265 57.81 131.498 58.02 131.498 58.412C131.498 58.636 131.405 58.8087 131.218 58.93C131.041 59.042 130.784 59.0887 130.448 59.07L130.07 59.042C128.502 58.93 127.718 58.09 127.718 56.522V53.47H127.018C126.766 53.47 126.57 53.414 126.43 53.302C126.299 53.19 126.234 53.0267 126.234 52.812C126.234 52.5973 126.299 52.434 126.43 52.322C126.57 52.21 126.766 52.154 127.018 52.154H127.718V50.866C127.718 50.614 127.797 50.4133 127.956 50.264C128.115 50.1147 128.329 50.04 128.6 50.04C128.861 50.04 129.071 50.1147 129.23 50.264C129.389 50.4133 129.468 50.614 129.468 50.866V52.154H130.658C130.91 52.154 131.101 52.21 131.232 52.322C131.372 52.434 131.442 52.5973 131.442 52.812C131.442 53.0267 131.372 53.19 131.232 53.302C131.101 53.414 130.91 53.47 130.658 53.47H129.468V56.648C129.468 57.3387 129.785 57.7073 130.42 57.754L130.798 57.782ZM135.448 59.112C134.767 59.112 134.165 58.9673 133.642 58.678C133.129 58.3887 132.732 57.978 132.452 57.446C132.172 56.914 132.032 56.2933 132.032 55.584C132.032 54.8747 132.177 54.2493 132.466 53.708C132.765 53.1573 133.18 52.7327 133.712 52.434C134.244 52.1353 134.855 51.986 135.546 51.986C135.91 51.986 136.274 52.0373 136.638 52.14C137.011 52.2427 137.338 52.3827 137.618 52.56C137.917 52.756 138.066 53.0033 138.066 53.302C138.066 53.5073 138.015 53.6753 137.912 53.806C137.819 53.9273 137.693 53.988 137.534 53.988C137.431 53.988 137.324 53.9647 137.212 53.918C137.1 53.8713 136.988 53.8153 136.876 53.75C136.671 53.6287 136.475 53.5353 136.288 53.47C136.101 53.3953 135.887 53.358 135.644 53.358C135.065 53.358 134.617 53.5493 134.3 53.932C133.992 54.3053 133.838 54.8467 133.838 55.556C133.838 56.256 133.992 56.7973 134.3 57.18C134.617 57.5533 135.065 57.74 135.644 57.74C135.877 57.74 136.083 57.7073 136.26 57.642C136.447 57.5673 136.652 57.4693 136.876 57.348C137.016 57.264 137.137 57.2033 137.24 57.166C137.343 57.1193 137.445 57.096 137.548 57.096C137.697 57.096 137.823 57.1613 137.926 57.292C138.029 57.4227 138.08 57.586 138.08 57.782C138.08 57.9407 138.043 58.0807 137.968 58.202C137.903 58.314 137.791 58.4167 137.632 58.51C137.343 58.6967 137.007 58.846 136.624 58.958C136.241 59.0607 135.849 59.112 135.448 59.112ZM143.25 51.986C144.855 51.986 145.658 52.924 145.658 54.8V58.244C145.658 58.5053 145.579 58.7107 145.42 58.86C145.271 59.0093 145.061 59.084 144.79 59.084C144.519 59.084 144.305 59.0093 144.146 58.86C143.987 58.7107 143.908 58.5053 143.908 58.244V54.8C143.908 54.3053 143.805 53.946 143.6 53.722C143.404 53.4887 143.091 53.372 142.662 53.372C142.158 53.372 141.752 53.5307 141.444 53.848C141.145 54.1653 140.996 54.59 140.996 55.122V58.244C140.996 58.5053 140.917 58.7107 140.758 58.86C140.599 59.0093 140.385 59.084 140.114 59.084C139.843 59.084 139.629 59.0093 139.47 58.86C139.321 58.7107 139.246 58.5053 139.246 58.244V49.872C139.246 49.6293 139.325 49.4333 139.484 49.284C139.652 49.1347 139.867 49.06 140.128 49.06C140.389 49.06 140.599 49.13 140.758 49.27C140.917 49.41 140.996 49.6013 140.996 49.844V53.106C141.229 52.742 141.537 52.4667 141.92 52.28C142.312 52.084 142.755 51.986 143.25 51.986ZM148.303 59.084C148.051 59.084 147.841 59.014 147.673 58.874C147.515 58.7247 147.435 58.5147 147.435 58.244V52.84C147.435 52.5693 147.515 52.364 147.673 52.224C147.841 52.084 148.051 52.014 148.303 52.014C148.555 52.014 148.765 52.084 148.933 52.224C149.101 52.364 149.185 52.5693 149.185 52.84V58.244C149.185 58.5147 149.101 58.7247 148.933 58.874C148.765 59.014 148.555 59.084 148.303 59.084ZM148.303 50.768C147.986 50.768 147.734 50.684 147.547 50.516C147.361 50.3387 147.267 50.11 147.267 49.83C147.267 49.55 147.361 49.326 147.547 49.158C147.734 48.99 147.986 48.906 148.303 48.906C148.611 48.906 148.859 48.99 149.045 49.158C149.241 49.326 149.339 49.55 149.339 49.83C149.339 50.11 149.246 50.3387 149.059 50.516C148.873 50.684 148.621 50.768 148.303 50.768ZM154.966 51.986C155.787 51.986 156.399 52.2193 156.8 52.686C157.201 53.1527 157.402 53.8573 157.402 54.8V58.244C157.402 58.5053 157.323 58.7107 157.164 58.86C157.015 59.0093 156.805 59.084 156.534 59.084C156.263 59.084 156.049 59.0093 155.89 58.86C155.731 58.7107 155.652 58.5053 155.652 58.244V54.898C155.652 54.366 155.549 53.9787 155.344 53.736C155.148 53.4933 154.835 53.372 154.406 53.372C153.902 53.372 153.496 53.5307 153.188 53.848C152.889 54.1653 152.74 54.59 152.74 55.122V58.244C152.74 58.5053 152.661 58.7107 152.502 58.86C152.343 59.0093 152.129 59.084 151.858 59.084C151.587 59.084 151.373 59.0093 151.214 58.86C151.065 58.7107 150.99 58.5053 150.99 58.244V52.826C150.99 52.5833 151.069 52.3873 151.228 52.238C151.387 52.0887 151.601 52.014 151.872 52.014C152.115 52.014 152.311 52.0887 152.46 52.238C152.619 52.378 152.698 52.5647 152.698 52.798V53.176C152.931 52.7933 153.244 52.4993 153.636 52.294C154.028 52.0887 154.471 51.986 154.966 51.986ZM164.976 52.014C165.237 52.014 165.447 52.0887 165.606 52.238C165.764 52.3873 165.844 52.588 165.844 52.84V58.37C165.844 59.4433 165.545 60.2553 164.948 60.806C164.35 61.3567 163.468 61.632 162.302 61.632C161.284 61.632 160.435 61.4407 159.754 61.058C159.408 60.8527 159.236 60.6053 159.236 60.316C159.236 60.1107 159.282 59.9473 159.376 59.826C159.478 59.7047 159.609 59.644 159.768 59.644C159.852 59.644 159.954 59.6627 160.076 59.7C160.197 59.7467 160.323 59.798 160.454 59.854C160.79 59.994 161.088 60.1013 161.35 60.176C161.62 60.2507 161.928 60.288 162.274 60.288C163.496 60.288 164.108 59.6907 164.108 58.496V57.6C163.902 57.9827 163.604 58.2813 163.212 58.496C162.82 58.7013 162.372 58.804 161.868 58.804C161.27 58.804 160.738 58.664 160.272 58.384C159.814 58.0947 159.455 57.6933 159.194 57.18C158.932 56.6667 158.802 56.074 158.802 55.402C158.802 54.73 158.928 54.1373 159.18 53.624C159.441 53.1013 159.805 52.7 160.272 52.42C160.738 52.1307 161.27 51.986 161.868 51.986C162.372 51.986 162.82 52.0933 163.212 52.308C163.604 52.5133 163.902 52.8073 164.108 53.19V52.826C164.108 52.5833 164.187 52.3873 164.346 52.238C164.504 52.0887 164.714 52.014 164.976 52.014ZM162.33 57.446C162.89 57.446 163.324 57.264 163.632 56.9C163.949 56.536 164.108 56.0367 164.108 55.402C164.108 54.758 163.949 54.254 163.632 53.89C163.324 53.526 162.89 53.344 162.33 53.344C161.779 53.344 161.345 53.526 161.028 53.89C160.71 54.254 160.552 54.758 160.552 55.402C160.552 56.0367 160.71 56.536 161.028 56.9C161.345 57.264 161.779 57.446 162.33 57.446ZM176.231 52.518C176.306 52.35 176.404 52.2287 176.525 52.154C176.656 52.07 176.796 52.028 176.945 52.028C177.16 52.028 177.351 52.1027 177.519 52.252C177.696 52.392 177.785 52.5693 177.785 52.784C177.785 52.8867 177.757 52.994 177.701 53.106L173.879 61.114C173.72 61.4313 173.473 61.59 173.137 61.59C172.922 61.59 172.731 61.52 172.563 61.38C172.404 61.2493 172.325 61.0813 172.325 60.876C172.325 60.7733 172.353 60.6567 172.409 60.526L173.361 58.524L170.757 53.106C170.71 53.0127 170.687 52.9053 170.687 52.784C170.687 52.5693 170.776 52.3873 170.953 52.238C171.14 52.0887 171.35 52.014 171.583 52.014C171.742 52.014 171.886 52.056 172.017 52.14C172.148 52.2147 172.25 52.336 172.325 52.504L174.285 56.83L176.231 52.518ZM181.839 59.112C181.139 59.112 180.523 58.9673 179.991 58.678C179.468 58.3887 179.062 57.9733 178.773 57.432C178.483 56.8907 178.339 56.2607 178.339 55.542C178.339 54.8233 178.483 54.198 178.773 53.666C179.062 53.1247 179.468 52.7093 179.991 52.42C180.523 52.1307 181.139 51.986 181.839 51.986C182.539 51.986 183.15 52.1307 183.673 52.42C184.205 52.7093 184.611 53.1247 184.891 53.666C185.18 54.198 185.325 54.8233 185.325 55.542C185.325 56.2607 185.18 56.8907 184.891 57.432C184.611 57.9733 184.205 58.3887 183.673 58.678C183.15 58.9673 182.539 59.112 181.839 59.112ZM181.825 57.754C182.394 57.754 182.828 57.5673 183.127 57.194C183.425 56.8207 183.575 56.27 183.575 55.542C183.575 54.8233 183.425 54.2773 183.127 53.904C182.828 53.5213 182.399 53.33 181.839 53.33C181.279 53.33 180.845 53.5213 180.537 53.904C180.238 54.2773 180.089 54.8233 180.089 55.542C180.089 56.27 180.238 56.8207 180.537 57.194C180.835 57.5673 181.265 57.754 181.825 57.754ZM192.173 52.014C192.444 52.014 192.659 52.0887 192.817 52.238C192.976 52.3873 193.055 52.588 193.055 52.84V58.272C193.055 58.5147 192.971 58.7107 192.803 58.86C192.645 59.0093 192.435 59.084 192.173 59.084C191.921 59.084 191.721 59.014 191.571 58.874C191.422 58.734 191.347 58.5427 191.347 58.3V57.95C191.133 58.3233 190.843 58.6127 190.479 58.818C190.115 59.014 189.705 59.112 189.247 59.112C187.567 59.112 186.727 58.1693 186.727 56.284V52.84C186.727 52.588 186.807 52.3873 186.965 52.238C187.124 52.0887 187.334 52.014 187.595 52.014C187.866 52.014 188.081 52.0887 188.239 52.238C188.398 52.3873 188.477 52.588 188.477 52.84V56.298C188.477 56.7833 188.575 57.1427 188.771 57.376C188.967 57.6093 189.275 57.726 189.695 57.726C190.181 57.726 190.568 57.5673 190.857 57.25C191.156 56.9233 191.305 56.494 191.305 55.962V52.84C191.305 52.588 191.385 52.3873 191.543 52.238C191.702 52.0887 191.912 52.014 192.173 52.014ZM204.082 52.014C204.352 52.014 204.567 52.0887 204.726 52.238C204.884 52.3873 204.964 52.588 204.964 52.84V58.272C204.964 58.5147 204.88 58.7107 204.712 58.86C204.553 59.0093 204.343 59.084 204.082 59.084C203.83 59.084 203.629 59.014 203.48 58.874C203.33 58.734 203.256 58.5427 203.256 58.3V57.95C203.041 58.3233 202.752 58.6127 202.388 58.818C202.024 59.014 201.613 59.112 201.156 59.112C199.476 59.112 198.636 58.1693 198.636 56.284V52.84C198.636 52.588 198.715 52.3873 198.874 52.238C199.032 52.0887 199.242 52.014 199.504 52.014C199.774 52.014 199.989 52.0887 200.148 52.238C200.306 52.3873 200.386 52.588 200.386 52.84V56.298C200.386 56.7833 200.484 57.1427 200.68 57.376C200.876 57.6093 201.184 57.726 201.604 57.726C202.089 57.726 202.476 57.5673 202.766 57.25C203.064 56.9233 203.214 56.494 203.214 55.962V52.84C203.214 52.588 203.293 52.3873 203.452 52.238C203.61 52.0887 203.82 52.014 204.082 52.014ZM210.719 51.986C211.307 51.986 211.83 52.1353 212.287 52.434C212.754 52.7327 213.113 53.1573 213.365 53.708C213.626 54.2493 213.757 54.8747 213.757 55.584C213.757 56.2933 213.626 56.914 213.365 57.446C213.113 57.978 212.758 58.3887 212.301 58.678C211.844 58.9673 211.316 59.112 210.719 59.112C210.234 59.112 209.8 59.0093 209.417 58.804C209.034 58.5987 208.74 58.314 208.535 57.95V60.806C208.535 61.0487 208.456 61.24 208.297 61.38C208.138 61.52 207.928 61.59 207.667 61.59C207.406 61.59 207.191 61.5153 207.023 61.366C206.864 61.2167 206.785 61.0207 206.785 60.778V52.84C206.785 52.588 206.86 52.3873 207.009 52.238C207.168 52.0887 207.378 52.014 207.639 52.014C207.9 52.014 208.11 52.0887 208.269 52.238C208.428 52.3873 208.507 52.588 208.507 52.84V53.19C208.712 52.8073 209.006 52.5133 209.389 52.308C209.781 52.0933 210.224 51.986 210.719 51.986ZM210.257 57.754C210.808 57.754 211.237 57.5673 211.545 57.194C211.853 56.8113 212.007 56.2747 212.007 55.584C212.007 54.8747 211.853 54.324 211.545 53.932C211.237 53.54 210.808 53.344 210.257 53.344C209.697 53.344 209.263 53.5353 208.955 53.918C208.656 54.3007 208.507 54.8467 208.507 55.556C208.507 56.256 208.656 56.7973 208.955 57.18C209.263 57.5627 209.697 57.754 210.257 57.754ZM228.248 52.532C228.313 52.364 228.407 52.238 228.528 52.154C228.659 52.07 228.799 52.028 228.948 52.028C229.163 52.028 229.354 52.1027 229.522 52.252C229.699 52.392 229.788 52.5693 229.788 52.784C229.788 52.9053 229.765 53.0127 229.718 53.106L227.408 58.524C227.333 58.7013 227.217 58.8367 227.058 58.93C226.909 59.0233 226.741 59.07 226.554 59.07C226.377 59.07 226.209 59.0233 226.05 58.93C225.901 58.8367 225.789 58.7013 225.714 58.524L224.048 54.52L222.438 58.524C222.363 58.7013 222.247 58.8367 222.088 58.93C221.939 59.0233 221.771 59.07 221.584 59.07C221.407 59.07 221.239 59.0233 221.08 58.93C220.921 58.8367 220.805 58.7013 220.73 58.524L218.434 53.106C218.387 52.9847 218.364 52.882 218.364 52.798C218.364 52.5833 218.457 52.4013 218.644 52.252C218.831 52.0933 219.036 52.014 219.26 52.014C219.419 52.014 219.563 52.056 219.694 52.14C219.825 52.224 219.923 52.35 219.988 52.518L221.64 56.788L223.334 52.56C223.409 52.3827 223.516 52.252 223.656 52.168C223.796 52.0747 223.95 52.028 224.118 52.028C224.286 52.028 224.44 52.0747 224.58 52.168C224.72 52.252 224.827 52.3827 224.902 52.56L226.61 56.802L228.248 52.532ZM232.085 59.084C231.833 59.084 231.623 59.014 231.455 58.874C231.296 58.7247 231.217 58.5147 231.217 58.244V52.84C231.217 52.5693 231.296 52.364 231.455 52.224C231.623 52.084 231.833 52.014 232.085 52.014C232.337 52.014 232.547 52.084 232.715 52.224C232.883 52.364 232.967 52.5693 232.967 52.84V58.244C232.967 58.5147 232.883 58.7247 232.715 58.874C232.547 59.014 232.337 59.084 232.085 59.084ZM232.085 50.768C231.767 50.768 231.515 50.684 231.329 50.516C231.142 50.3387 231.049 50.11 231.049 49.83C231.049 49.55 231.142 49.326 231.329 49.158C231.515 48.99 231.767 48.906 232.085 48.906C232.393 48.906 232.64 48.99 232.827 49.158C233.023 49.326 233.121 49.55 233.121 49.83C233.121 50.11 233.027 50.3387 232.841 50.516C232.654 50.684 232.402 50.768 232.085 50.768ZM238.628 57.782C239.095 57.81 239.328 58.02 239.328 58.412C239.328 58.636 239.235 58.8087 239.048 58.93C238.871 59.042 238.614 59.0887 238.278 59.07L237.9 59.042C236.332 58.93 235.548 58.09 235.548 56.522V53.47H234.848C234.596 53.47 234.4 53.414 234.26 53.302C234.129 53.19 234.064 53.0267 234.064 52.812C234.064 52.5973 234.129 52.434 234.26 52.322C234.4 52.21 234.596 52.154 234.848 52.154H235.548V50.866C235.548 50.614 235.627 50.4133 235.786 50.264C235.945 50.1147 236.159 50.04 236.43 50.04C236.691 50.04 236.901 50.1147 237.06 50.264C237.219 50.4133 237.298 50.614 237.298 50.866V52.154H238.488C238.74 52.154 238.931 52.21 239.062 52.322C239.202 52.434 239.272 52.5973 239.272 52.812C239.272 53.0267 239.202 53.19 239.062 53.302C238.931 53.414 238.74 53.47 238.488 53.47H237.298V56.648C237.298 57.3387 237.615 57.7073 238.25 57.754L238.628 57.782ZM244.244 51.986C245.849 51.986 246.652 52.924 246.652 54.8V58.244C246.652 58.5053 246.573 58.7107 246.414 58.86C246.265 59.0093 246.055 59.084 245.784 59.084C245.513 59.084 245.299 59.0093 245.14 58.86C244.981 58.7107 244.902 58.5053 244.902 58.244V54.8C244.902 54.3053 244.799 53.946 244.594 53.722C244.398 53.4887 244.085 53.372 243.656 53.372C243.152 53.372 242.746 53.5307 242.438 53.848C242.139 54.1653 241.99 54.59 241.99 55.122V58.244C241.99 58.5053 241.911 58.7107 241.752 58.86C241.593 59.0093 241.379 59.084 241.108 59.084C240.837 59.084 240.623 59.0093 240.464 58.86C240.315 58.7107 240.24 58.5053 240.24 58.244V49.872C240.24 49.6293 240.319 49.4333 240.478 49.284C240.646 49.1347 240.861 49.06 241.122 49.06C241.383 49.06 241.593 49.13 241.752 49.27C241.911 49.41 241.99 49.6013 241.99 49.844V53.106C242.223 52.742 242.531 52.4667 242.914 52.28C243.306 52.084 243.749 51.986 244.244 51.986ZM255.198 51.986C256.15 51.986 256.855 52.224 257.312 52.7C257.779 53.1667 258.012 53.8807 258.012 54.842V58.258C258.012 58.51 257.938 58.7107 257.788 58.86C257.639 59 257.434 59.07 257.172 59.07C256.93 59.07 256.729 58.9953 256.57 58.846C256.421 58.6967 256.346 58.5007 256.346 58.258V57.95C256.188 58.314 255.936 58.5987 255.59 58.804C255.254 59.0093 254.862 59.112 254.414 59.112C253.957 59.112 253.542 59.0187 253.168 58.832C252.795 58.6453 252.501 58.3887 252.286 58.062C252.072 57.7353 251.964 57.3713 251.964 56.97C251.964 56.466 252.09 56.0693 252.342 55.78C252.604 55.4907 253.024 55.2807 253.602 55.15C254.181 55.0193 254.979 54.954 255.996 54.954H256.346V54.632C256.346 54.1747 256.248 53.8433 256.052 53.638C255.856 53.4233 255.539 53.316 255.1 53.316C254.83 53.316 254.554 53.358 254.274 53.442C253.994 53.5167 253.663 53.6287 253.28 53.778C253.038 53.8993 252.86 53.96 252.748 53.96C252.58 53.96 252.44 53.8993 252.328 53.778C252.226 53.6567 252.174 53.498 252.174 53.302C252.174 53.1433 252.212 53.008 252.286 52.896C252.37 52.7747 252.506 52.6627 252.692 52.56C253.019 52.3827 253.406 52.2427 253.854 52.14C254.312 52.0373 254.76 51.986 255.198 51.986ZM254.764 57.852C255.231 57.852 255.609 57.698 255.898 57.39C256.197 57.0727 256.346 56.6667 256.346 56.172V55.878H256.094C255.469 55.878 254.984 55.906 254.638 55.962C254.293 56.018 254.046 56.116 253.896 56.256C253.747 56.396 253.672 56.5873 253.672 56.83C253.672 57.1287 253.775 57.376 253.98 57.572C254.195 57.7587 254.456 57.852 254.764 57.852ZM267.568 51.986C268.389 51.986 269 52.2193 269.402 52.686C269.803 53.1527 270.004 53.8573 270.004 54.8V58.244C270.004 58.5053 269.924 58.7107 269.766 58.86C269.616 59.0093 269.406 59.084 269.136 59.084C268.865 59.084 268.65 59.0093 268.492 58.86C268.333 58.7107 268.254 58.5053 268.254 58.244V54.898C268.254 54.366 268.151 53.9787 267.946 53.736C267.75 53.4933 267.437 53.372 267.008 53.372C266.504 53.372 266.098 53.5307 265.79 53.848C265.491 54.1653 265.342 54.59 265.342 55.122V58.244C265.342 58.5053 265.262 58.7107 265.104 58.86C264.945 59.0093 264.73 59.084 264.46 59.084C264.189 59.084 263.974 59.0093 263.816 58.86C263.666 58.7107 263.592 58.5053 263.592 58.244V52.826C263.592 52.5833 263.671 52.3873 263.83 52.238C263.988 52.0887 264.203 52.014 264.474 52.014C264.716 52.014 264.912 52.0887 265.062 52.238C265.22 52.378 265.3 52.5647 265.3 52.798V53.176C265.533 52.7933 265.846 52.4993 266.238 52.294C266.63 52.0887 267.073 51.986 267.568 51.986ZM277.199 57.124C277.358 57.124 277.484 57.1847 277.577 57.306C277.68 57.4273 277.731 57.5907 277.731 57.796C277.731 58.0853 277.558 58.328 277.213 58.524C276.896 58.7013 276.536 58.846 276.135 58.958C275.734 59.0607 275.351 59.112 274.987 59.112C273.886 59.112 273.013 58.7947 272.369 58.16C271.725 57.5253 271.403 56.6573 271.403 55.556C271.403 54.856 271.543 54.2353 271.823 53.694C272.103 53.1527 272.495 52.7327 272.999 52.434C273.512 52.1353 274.091 51.986 274.735 51.986C275.351 51.986 275.888 52.1213 276.345 52.392C276.802 52.6627 277.157 53.0453 277.409 53.54C277.661 54.0347 277.787 54.618 277.787 55.29C277.787 55.6913 277.61 55.892 277.255 55.892H273.125C273.181 56.536 273.363 57.012 273.671 57.32C273.979 57.6187 274.427 57.768 275.015 57.768C275.314 57.768 275.575 57.7307 275.799 57.656C276.032 57.5813 276.294 57.4787 276.583 57.348C276.863 57.1987 277.068 57.124 277.199 57.124ZM274.777 53.218C274.301 53.218 273.918 53.3673 273.629 53.666C273.349 53.9647 273.181 54.394 273.125 54.954H276.289C276.27 54.3847 276.13 53.9553 275.869 53.666C275.608 53.3673 275.244 53.218 274.777 53.218ZM282.187 51.986C283.139 51.986 283.843 52.224 284.301 52.7C284.767 53.1667 285.001 53.8807 285.001 54.842V58.258C285.001 58.51 284.926 58.7107 284.777 58.86C284.627 59 284.422 59.07 284.161 59.07C283.918 59.07 283.717 58.9953 283.559 58.846C283.409 58.6967 283.335 58.5007 283.335 58.258V57.95C283.176 58.314 282.924 58.5987 282.579 58.804C282.243 59.0093 281.851 59.112 281.403 59.112C280.945 59.112 280.53 59.0187 280.157 58.832C279.783 58.6453 279.489 58.3887 279.275 58.062C279.06 57.7353 278.953 57.3713 278.953 56.97C278.953 56.466 279.079 56.0693 279.331 55.78C279.592 55.4907 280.012 55.2807 280.591 55.15C281.169 55.0193 281.967 54.954 282.985 54.954H283.335V54.632C283.335 54.1747 283.237 53.8433 283.041 53.638C282.845 53.4233 282.527 53.316 282.089 53.316C281.818 53.316 281.543 53.358 281.263 53.442C280.983 53.5167 280.651 53.6287 280.269 53.778C280.026 53.8993 279.849 53.96 279.737 53.96C279.569 53.96 279.429 53.8993 279.317 53.778C279.214 53.6567 279.163 53.498 279.163 53.302C279.163 53.1433 279.2 53.008 279.275 52.896C279.359 52.7747 279.494 52.6627 279.681 52.56C280.007 52.3827 280.395 52.2427 280.843 52.14C281.3 52.0373 281.748 51.986 282.187 51.986ZM281.753 57.852C282.219 57.852 282.597 57.698 282.887 57.39C283.185 57.0727 283.335 56.6667 283.335 56.172V55.878H283.083C282.457 55.878 281.972 55.906 281.627 55.962C281.281 56.018 281.034 56.116 280.885 56.256C280.735 56.396 280.661 56.5873 280.661 56.83C280.661 57.1287 280.763 57.376 280.969 57.572C281.183 57.7587 281.445 57.852 281.753 57.852ZM290.601 52.014C290.844 51.9953 291.035 52.0467 291.175 52.168C291.315 52.2893 291.385 52.4713 291.385 52.714C291.385 52.966 291.324 53.1527 291.203 53.274C291.082 53.3953 290.862 53.4747 290.545 53.512L290.125 53.554C289.574 53.61 289.168 53.7967 288.907 54.114C288.655 54.4313 288.529 54.828 288.529 55.304V58.244C288.529 58.5147 288.445 58.7247 288.277 58.874C288.109 59.014 287.899 59.084 287.647 59.084C287.395 59.084 287.185 59.014 287.017 58.874C286.858 58.7247 286.779 58.5147 286.779 58.244V52.826C286.779 52.5647 286.858 52.364 287.017 52.224C287.185 52.084 287.39 52.014 287.633 52.014C287.876 52.014 288.072 52.084 288.221 52.224C288.37 52.3547 288.445 52.546 288.445 52.798V53.358C288.622 52.9473 288.884 52.63 289.229 52.406C289.584 52.182 289.976 52.056 290.405 52.028L290.601 52.014ZM296.073 51.986C296.67 51.986 297.197 52.1307 297.655 52.42C298.112 52.7093 298.467 53.12 298.719 53.652C298.98 54.184 299.111 54.8047 299.111 55.514C299.111 56.2233 298.98 56.8533 298.719 57.404C298.467 57.9453 298.107 58.3653 297.641 58.664C297.183 58.9627 296.661 59.112 296.073 59.112C295.578 59.112 295.135 59.0047 294.743 58.79C294.36 58.5753 294.066 58.2767 293.861 57.894V58.244C293.861 58.496 293.781 58.6967 293.623 58.846C293.464 58.9953 293.254 59.07 292.993 59.07C292.731 59.07 292.521 58.9953 292.363 58.846C292.213 58.6967 292.139 58.496 292.139 58.244V49.872C292.139 49.6293 292.218 49.4333 292.377 49.284C292.545 49.1347 292.759 49.06 293.021 49.06C293.282 49.06 293.492 49.13 293.651 49.27C293.809 49.41 293.889 49.6013 293.889 49.844V53.148C294.094 52.7747 294.388 52.49 294.771 52.294C295.153 52.0887 295.587 51.986 296.073 51.986ZM295.611 57.754C296.161 57.754 296.591 57.558 296.899 57.166C297.207 56.774 297.361 56.2233 297.361 55.514C297.361 54.814 297.207 54.2773 296.899 53.904C296.6 53.5307 296.171 53.344 295.611 53.344C295.051 53.344 294.617 53.5353 294.309 53.918C294.01 54.2913 293.861 54.8327 293.861 55.542C293.861 56.2513 294.01 56.7973 294.309 57.18C294.617 57.5627 295.051 57.754 295.611 57.754ZM305.211 52.518C305.286 52.35 305.384 52.2287 305.505 52.154C305.636 52.07 305.776 52.028 305.925 52.028C306.14 52.028 306.331 52.1027 306.499 52.252C306.677 52.392 306.765 52.5693 306.765 52.784C306.765 52.8867 306.737 52.994 306.681 53.106L302.859 61.114C302.701 61.4313 302.453 61.59 302.117 61.59C301.903 61.59 301.711 61.52 301.543 61.38C301.385 61.2493 301.305 61.0813 301.305 60.876C301.305 60.7733 301.333 60.6567 301.389 60.526L302.341 58.524L299.737 53.106C299.691 53.0127 299.667 52.9053 299.667 52.784C299.667 52.5693 299.756 52.3873 299.933 52.238C300.12 52.0887 300.33 52.014 300.563 52.014C300.722 52.014 300.867 52.056 300.997 52.14C301.128 52.2147 301.231 52.336 301.305 52.504L303.265 56.83L305.211 52.518ZM110.948 77.112C110.267 77.112 109.665 76.9673 109.142 76.678C108.629 76.3887 108.232 75.978 107.952 75.446C107.672 74.914 107.532 74.2933 107.532 73.584C107.532 72.8747 107.677 72.2493 107.966 71.708C108.265 71.1573 108.68 70.7327 109.212 70.434C109.744 70.1353 110.355 69.986 111.046 69.986C111.41 69.986 111.774 70.0373 112.138 70.14C112.511 70.2427 112.838 70.3827 113.118 70.56C113.417 70.756 113.566 71.0033 113.566 71.302C113.566 71.5073 113.515 71.6753 113.412 71.806C113.319 71.9273 113.193 71.988 113.034 71.988C112.931 71.988 112.824 71.9647 112.712 71.918C112.6 71.8713 112.488 71.8153 112.376 71.75C112.171 71.6287 111.975 71.5353 111.788 71.47C111.601 71.3953 111.387 71.358 111.144 71.358C110.565 71.358 110.117 71.5493 109.8 71.932C109.492 72.3053 109.338 72.8467 109.338 73.556C109.338 74.256 109.492 74.7973 109.8 75.18C110.117 75.5533 110.565 75.74 111.144 75.74C111.377 75.74 111.583 75.7073 111.76 75.642C111.947 75.5673 112.152 75.4693 112.376 75.348C112.516 75.264 112.637 75.2033 112.74 75.166C112.843 75.1193 112.945 75.096 113.048 75.096C113.197 75.096 113.323 75.1613 113.426 75.292C113.529 75.4227 113.58 75.586 113.58 75.782C113.58 75.9407 113.543 76.0807 113.468 76.202C113.403 76.314 113.291 76.4167 113.132 76.51C112.843 76.6967 112.507 76.846 112.124 76.958C111.741 77.0607 111.349 77.112 110.948 77.112ZM117.714 69.986C118.666 69.986 119.371 70.224 119.828 70.7C120.295 71.1667 120.528 71.8807 120.528 72.842V76.258C120.528 76.51 120.453 76.7107 120.304 76.86C120.155 77 119.949 77.07 119.688 77.07C119.445 77.07 119.245 76.9953 119.086 76.846C118.937 76.6967 118.862 76.5007 118.862 76.258V75.95C118.703 76.314 118.451 76.5987 118.106 76.804C117.77 77.0093 117.378 77.112 116.93 77.112C116.473 77.112 116.057 77.0187 115.684 76.832C115.311 76.6453 115.017 76.3887 114.802 76.062C114.587 75.7353 114.48 75.3713 114.48 74.97C114.48 74.466 114.606 74.0693 114.858 73.78C115.119 73.4907 115.539 73.2807 116.118 73.15C116.697 73.0193 117.495 72.954 118.512 72.954H118.862V72.632C118.862 72.1747 118.764 71.8433 118.568 71.638C118.372 71.4233 118.055 71.316 117.616 71.316C117.345 71.316 117.07 71.358 116.79 71.442C116.51 71.5167 116.179 71.6287 115.796 71.778C115.553 71.8993 115.376 71.96 115.264 71.96C115.096 71.96 114.956 71.8993 114.844 71.778C114.741 71.6567 114.69 71.498 114.69 71.302C114.69 71.1433 114.727 71.008 114.802 70.896C114.886 70.7747 115.021 70.6627 115.208 70.56C115.535 70.3827 115.922 70.2427 116.37 70.14C116.827 70.0373 117.275 69.986 117.714 69.986ZM117.28 75.852C117.747 75.852 118.125 75.698 118.414 75.39C118.713 75.0727 118.862 74.6667 118.862 74.172V73.878H118.61C117.985 73.878 117.499 73.906 117.154 73.962C116.809 74.018 116.561 74.116 116.412 74.256C116.263 74.396 116.188 74.5873 116.188 74.83C116.188 75.1287 116.291 75.376 116.496 75.572C116.711 75.7587 116.972 75.852 117.28 75.852ZM124.784 77.112C123.767 77.112 122.946 76.9113 122.32 76.51C122.022 76.3327 121.872 76.0807 121.872 75.754C121.872 75.5673 121.924 75.418 122.026 75.306C122.129 75.1847 122.255 75.124 122.404 75.124C122.563 75.124 122.782 75.1987 123.062 75.348C123.361 75.488 123.632 75.5953 123.874 75.67C124.126 75.7447 124.444 75.782 124.826 75.782C125.218 75.782 125.522 75.7167 125.736 75.586C125.96 75.4553 126.072 75.2733 126.072 75.04C126.072 74.8813 126.026 74.7553 125.932 74.662C125.848 74.5687 125.69 74.4847 125.456 74.41C125.232 74.326 124.887 74.2327 124.42 74.13C123.59 73.962 122.992 73.724 122.628 73.416C122.274 73.108 122.096 72.6833 122.096 72.142C122.096 71.7313 122.218 71.3627 122.46 71.036C122.703 70.7 123.034 70.4433 123.454 70.266C123.884 70.0793 124.369 69.986 124.91 69.986C125.302 69.986 125.68 70.0373 126.044 70.14C126.408 70.2333 126.735 70.3733 127.024 70.56C127.323 70.7467 127.472 70.994 127.472 71.302C127.472 71.4887 127.421 71.6473 127.318 71.778C127.216 71.8993 127.09 71.96 126.94 71.96C126.838 71.96 126.735 71.9413 126.632 71.904C126.539 71.8573 126.418 71.792 126.268 71.708C125.998 71.568 125.764 71.4653 125.568 71.4C125.372 71.3253 125.13 71.288 124.84 71.288C124.495 71.288 124.22 71.358 124.014 71.498C123.818 71.638 123.72 71.8293 123.72 72.072C123.72 72.3053 123.823 72.4827 124.028 72.604C124.234 72.7253 124.63 72.8467 125.218 72.968C125.844 73.0987 126.334 73.248 126.688 73.416C127.043 73.584 127.295 73.794 127.444 74.046C127.603 74.298 127.682 74.62 127.682 75.012C127.682 75.6467 127.416 76.1553 126.884 76.538C126.362 76.9207 125.662 77.112 124.784 77.112ZM133.105 69.986C134.711 69.986 135.513 70.924 135.513 72.8V76.244C135.513 76.5053 135.434 76.7107 135.275 76.86C135.126 77.0093 134.916 77.084 134.645 77.084C134.375 77.084 134.16 77.0093 134.001 76.86C133.843 76.7107 133.763 76.5053 133.763 76.244V72.8C133.763 72.3053 133.661 71.946 133.455 71.722C133.259 71.4887 132.947 71.372 132.517 71.372C132.013 71.372 131.607 71.5307 131.299 71.848C131.001 72.1653 130.851 72.59 130.851 73.122V76.244C130.851 76.5053 130.772 76.7107 130.613 76.86C130.455 77.0093 130.24 77.084 129.969 77.084C129.699 77.084 129.484 77.0093 129.325 76.86C129.176 76.7107 129.101 76.5053 129.101 76.244V67.872C129.101 67.6293 129.181 67.4333 129.339 67.284C129.507 67.1347 129.722 67.06 129.983 67.06C130.245 67.06 130.455 67.13 130.613 67.27C130.772 67.41 130.851 67.6013 130.851 67.844V71.106C131.085 70.742 131.393 70.4667 131.775 70.28C132.167 70.084 132.611 69.986 133.105 69.986ZM145.866 70.518C145.94 70.35 146.038 70.224 146.16 70.14C146.29 70.056 146.43 70.014 146.58 70.014C146.794 70.014 146.986 70.0887 147.154 70.238C147.331 70.378 147.42 70.5553 147.42 70.77C147.42 70.882 147.392 70.994 147.336 71.106L144.746 76.524C144.662 76.7013 144.54 76.8367 144.382 76.93C144.232 77.0233 144.064 77.07 143.878 77.07C143.7 77.07 143.528 77.0233 143.36 76.93C143.201 76.8367 143.08 76.7013 142.996 76.524L140.392 71.106C140.345 71.0127 140.322 70.9053 140.322 70.784C140.322 70.5693 140.41 70.3873 140.588 70.238C140.774 70.0887 140.984 70.014 141.218 70.014C141.554 70.014 141.801 70.1773 141.96 70.504L143.92 74.83L145.866 70.518ZM153.769 75.124C153.928 75.124 154.054 75.1847 154.147 75.306C154.25 75.4273 154.301 75.5907 154.301 75.796C154.301 76.0853 154.129 76.328 153.783 76.524C153.466 76.7013 153.107 76.846 152.705 76.958C152.304 77.0607 151.921 77.112 151.557 77.112C150.456 77.112 149.583 76.7947 148.939 76.16C148.295 75.5253 147.973 74.6573 147.973 73.556C147.973 72.856 148.113 72.2353 148.393 71.694C148.673 71.1527 149.065 70.7327 149.569 70.434C150.083 70.1353 150.661 69.986 151.305 69.986C151.921 69.986 152.458 70.1213 152.915 70.392C153.373 70.6627 153.727 71.0453 153.979 71.54C154.231 72.0347 154.357 72.618 154.357 73.29C154.357 73.6913 154.18 73.892 153.825 73.892H149.695C149.751 74.536 149.933 75.012 150.241 75.32C150.549 75.6187 150.997 75.768 151.585 75.768C151.884 75.768 152.145 75.7307 152.369 75.656C152.603 75.5813 152.864 75.4787 153.153 75.348C153.433 75.1987 153.639 75.124 153.769 75.124ZM151.347 71.218C150.871 71.218 150.489 71.3673 150.199 71.666C149.919 71.9647 149.751 72.394 149.695 72.954H152.859C152.841 72.3847 152.701 71.9553 152.439 71.666C152.178 71.3673 151.814 71.218 151.347 71.218ZM159.765 69.986C160.586 69.986 161.198 70.2193 161.599 70.686C162 71.1527 162.201 71.8573 162.201 72.8V76.244C162.201 76.5053 162.122 76.7107 161.963 76.86C161.814 77.0093 161.604 77.084 161.333 77.084C161.062 77.084 160.848 77.0093 160.689 76.86C160.53 76.7107 160.451 76.5053 160.451 76.244V72.898C160.451 72.366 160.348 71.9787 160.143 71.736C159.947 71.4933 159.634 71.372 159.205 71.372C158.701 71.372 158.295 71.5307 157.987 71.848C157.688 72.1653 157.539 72.59 157.539 73.122V76.244C157.539 76.5053 157.46 76.7107 157.301 76.86C157.142 77.0093 156.928 77.084 156.657 77.084C156.386 77.084 156.172 77.0093 156.013 76.86C155.864 76.7107 155.789 76.5053 155.789 76.244V70.826C155.789 70.5833 155.868 70.3873 156.027 70.238C156.186 70.0887 156.4 70.014 156.671 70.014C156.914 70.014 157.11 70.0887 157.259 70.238C157.418 70.378 157.497 70.5647 157.497 70.798V71.176C157.73 70.7933 158.043 70.4993 158.435 70.294C158.827 70.0887 159.27 69.986 159.765 69.986ZM169.69 67.06C169.952 67.06 170.166 67.1347 170.334 67.284C170.502 67.4333 170.586 67.6293 170.586 67.872V76.244C170.586 76.496 170.507 76.6967 170.348 76.846C170.19 76.9953 169.98 77.07 169.718 77.07C169.457 77.07 169.247 76.9953 169.088 76.846C168.93 76.6967 168.85 76.496 168.85 76.244V75.894C168.645 76.2767 168.346 76.5753 167.954 76.79C167.572 77.0047 167.133 77.112 166.638 77.112C166.05 77.112 165.523 76.9627 165.056 76.664C164.599 76.3653 164.24 75.9453 163.978 75.404C163.726 74.8533 163.6 74.2233 163.6 73.514C163.6 72.8047 163.726 72.184 163.978 71.652C164.24 71.12 164.599 70.7093 165.056 70.42C165.514 70.1307 166.041 69.986 166.638 69.986C167.133 69.986 167.572 70.0887 167.954 70.294C168.337 70.4993 168.631 70.7887 168.836 71.162V67.844C168.836 67.6107 168.911 67.424 169.06 67.284C169.219 67.1347 169.429 67.06 169.69 67.06ZM167.1 75.754C167.66 75.754 168.09 75.5627 168.388 75.18C168.696 74.7973 168.85 74.2513 168.85 73.542C168.85 72.8327 168.696 72.2913 168.388 71.918C168.09 71.5353 167.665 71.344 167.114 71.344C166.554 71.344 166.12 71.5307 165.812 71.904C165.504 72.2773 165.35 72.814 165.35 73.514C165.35 74.2233 165.504 74.774 165.812 75.166C166.12 75.558 166.55 75.754 167.1 75.754ZM175.509 77.112C174.809 77.112 174.193 76.9673 173.661 76.678C173.138 76.3887 172.732 75.9733 172.443 75.432C172.153 74.8907 172.009 74.2607 172.009 73.542C172.009 72.8233 172.153 72.198 172.443 71.666C172.732 71.1247 173.138 70.7093 173.661 70.42C174.193 70.1307 174.809 69.986 175.509 69.986C176.209 69.986 176.82 70.1307 177.343 70.42C177.875 70.7093 178.281 71.1247 178.561 71.666C178.85 72.198 178.995 72.8233 178.995 73.542C178.995 74.2607 178.85 74.8907 178.561 75.432C178.281 75.9733 177.875 76.3887 177.343 76.678C176.82 76.9673 176.209 77.112 175.509 77.112ZM175.495 75.754C176.064 75.754 176.498 75.5673 176.797 75.194C177.095 74.8207 177.245 74.27 177.245 73.542C177.245 72.8233 177.095 72.2773 176.797 71.904C176.498 71.5213 176.069 71.33 175.509 71.33C174.949 71.33 174.515 71.5213 174.207 71.904C173.908 72.2773 173.759 72.8233 173.759 73.542C173.759 74.27 173.908 74.8207 174.207 75.194C174.505 75.5673 174.935 75.754 175.495 75.754ZM184.261 70.014C184.504 69.9953 184.695 70.0467 184.835 70.168C184.975 70.2893 185.045 70.4713 185.045 70.714C185.045 70.966 184.985 71.1527 184.863 71.274C184.742 71.3953 184.523 71.4747 184.205 71.512L183.785 71.554C183.235 71.61 182.829 71.7967 182.567 72.114C182.315 72.4313 182.189 72.828 182.189 73.304V76.244C182.189 76.5147 182.105 76.7247 181.937 76.874C181.769 77.014 181.559 77.084 181.307 77.084C181.055 77.084 180.845 77.014 180.677 76.874C180.519 76.7247 180.439 76.5147 180.439 76.244V70.826C180.439 70.5647 180.519 70.364 180.677 70.224C180.845 70.084 181.051 70.014 181.293 70.014C181.536 70.014 181.732 70.084 181.881 70.224C182.031 70.3547 182.105 70.546 182.105 70.798V71.358C182.283 70.9473 182.544 70.63 182.889 70.406C183.244 70.182 183.636 70.056 184.065 70.028L184.261 70.014Z" fill="#0ACF83"/>
<path d="M61 56.5C59.5166 56.5 58.0666 56.9399 56.8332 57.764C55.5999 58.5881 54.6386 59.7594 54.0709 61.1299C53.5032 62.5003 53.3547 64.0083 53.6441 65.4632C53.9335 66.918 54.6478 68.2544 55.6967 69.3033C56.7456 70.3522 58.082 71.0665 59.5368 71.3559C60.9917 71.6453 62.4997 71.4968 63.8701 70.9291C65.2406 70.3614 66.4119 69.4001 67.236 68.1668C68.0601 66.9334 68.5 65.4834 68.5 64C68.5 62.0109 67.7098 60.1032 66.3033 58.6967C64.8968 57.2902 62.9891 56.5 61 56.5ZM61 66.5C60.5055 66.5 60.0222 66.3534 59.6111 66.0787C59.2 65.804 58.8795 65.4135 58.6903 64.9567C58.5011 64.4999 58.4516 63.9972 58.548 63.5123C58.6445 63.0273 58.8826 62.5819 59.2322 62.2322C59.5819 61.8826 60.0273 61.6445 60.5123 61.548C60.9972 61.4516 61.4999 61.5011 61.9567 61.6903C62.4135 61.8795 62.804 62.2 63.0787 62.6111C63.3534 63.0222 63.5 63.5055 63.5 64C63.5 64.663 63.2366 65.2989 62.7678 65.7678C62.2989 66.2366 61.663 66.5 61 66.5ZM78.5 44H71V41.5C71 39.5109 70.2098 37.6032 68.8033 36.1967C67.3968 34.7902 65.4891 34 63.5 34H58.5C56.5109 34 54.6032 34.7902 53.1967 36.1967C51.7902 37.6032 51 39.5109 51 41.5V44H43.5C41.5109 44 39.6032 44.7902 38.1967 46.1967C36.7902 47.6032 36 49.5109 36 51.5V76.5C36 78.4891 36.7902 80.3968 38.1967 81.8033C39.6032 83.2098 41.5109 84 43.5 84H78.5C80.4891 84 82.3968 83.2098 83.8033 81.8033C85.2098 80.3968 86 78.4891 86 76.5V51.5C86 49.5109 85.2098 47.6032 83.8033 46.1967C82.3968 44.7902 80.4891 44 78.5 44ZM56 41.5C56 40.837 56.2634 40.2011 56.7322 39.7322C57.2011 39.2634 57.837 39 58.5 39H63.5C64.163 39 64.7989 39.2634 65.2678 39.7322C65.7366 40.2011 66 40.837 66 41.5V44H56V41.5ZM41 51.5C41 50.837 41.2634 50.2011 41.7322 49.7322C42.2011 49.2634 42.837 49 43.5 49H46C46 50.3261 45.4732 51.5979 44.5355 52.5355C43.5979 53.4732 42.3261 54 41 54V51.5ZM43.5 79C42.837 79 42.2011 78.7366 41.7322 78.2678C41.2634 77.7989 41 77.163 41 76.5V74C42.3261 74 43.5979 74.5268 44.5355 75.4645C45.4732 76.4021 46 77.6739 46 79H43.5ZM81 76.5C81 77.163 80.7366 77.7989 80.2678 78.2678C79.7989 78.7366 79.163 79 78.5 79H76C76 77.6739 76.5268 76.4021 77.4645 75.4645C78.4021 74.5268 79.6739 74 81 74V76.5ZM81 69C78.3478 69 75.8043 70.0536 73.9289 71.9289C72.0536 73.8043 71 76.3478 71 79H51C51 76.3478 49.9464 73.8043 48.0711 71.9289C46.1957 70.0536 43.6522 69 41 69V59C43.6522 59 46.1957 57.9464 48.0711 56.0711C49.9464 54.1957 51 51.6522 51 49H71C71 51.6522 72.0536 54.1957 73.9289 56.0711C75.8043 57.9464 78.3478 59 81 59V69ZM81 54C79.6739 54 78.4021 53.4732 77.4645 52.5355C76.5268 51.5979 76 50.3261 76 49H78.5C79.163 49 79.7989 49.2634 80.2678 49.7322C80.7366 50.2011 81 50.837 81 51.5V54Z" fill="#DAFFF1"/>
</svg>
