<svg width="46" height="46" viewBox="0 0 46 46" fill="none" xmlns="http://www.w3.org/2000/svg">
<circle cx="23" cy="23" r="23" fill="#DAFFF1"/>
<path fill-rule="evenodd" clip-rule="evenodd" d="M13 17.0163V26.065C13 27.7309 14.3431 29.0813 16 29.0813H19V29.4816C19 31.6411 21.5298 32.7953 23.1463 31.3732L25.7515 29.0813H30C31.6569 29.0813 33 27.7309 33 26.065V17.0163C33 15.3504 31.6569 14 30 14H16C14.3431 14 13 15.3504 13 17.0163ZM19 27.0704C19.7613 27.0704 20.4233 27.4981 20.7612 28.1276L20.7772 28.158C20.8931 28.383 20.9679 28.6329 20.9918 28.8976C20.9972 28.9581 21 29.0194 21 29.0813V29.4816C21 29.9135 21.506 30.1443 21.8293 29.8599L24.4345 27.568C24.799 27.2472 25.267 27.0704 25.7515 27.0704H30C30.5523 27.0704 31 26.6203 31 26.065V17.0163C31 16.461 30.5523 16.0108 30 16.0108H16C15.4477 16.0108 15 16.461 15 17.0163V26.065C15 26.6203 15.4477 27.0704 16 27.0704H19ZM18.5 20C17.6716 20 17 20.6716 17 21.5C17 22.3284 17.6716 23 18.5 23C19.3284 23 20 22.3284 20 21.5C20 20.6716 19.3284 20 18.5 20ZM21.5 21.5C21.5 20.6716 22.1716 20 23 20C23.8284 20 24.5 20.6716 24.5 21.5C24.5 22.3284 23.8284 23 23 23C22.1716 23 21.5 22.3284 21.5 21.5ZM27.5 20C26.6716 20 26 20.6716 26 21.5C26 22.3284 26.6716 23 27.5 23C28.3284 23 29 22.3284 29 21.5C29 20.6716 28.3284 20 27.5 20Z" fill="#0ACF83"/>
</svg>
