<svg width="52" height="52" viewBox="0 0 52 52" fill="none" xmlns="http://www.w3.org/2000/svg">
<circle cx="26" cy="26" r="26" fill="#DAFFF1"/>
<path d="M26 24.75C25.2583 24.75 24.5333 24.9699 23.9166 25.382C23.2999 25.794 22.8193 26.3797 22.5355 27.0649C22.2516 27.7502 22.1774 28.5042 22.3221 29.2316C22.4667 29.959 22.8239 30.6272 23.3483 31.1517C23.8728 31.6761 24.541 32.0333 25.2684 32.1779C25.9958 32.3226 26.7498 32.2484 27.4351 31.9645C28.1203 31.6807 28.706 31.2001 29.118 30.5834C29.5301 29.9667 29.75 29.2417 29.75 28.5C29.75 27.5054 29.3549 26.5516 28.6517 25.8483C27.9484 25.1451 26.9946 24.75 26 24.75V24.75ZM26 29.75C25.7528 29.75 25.5111 29.6767 25.3055 29.5393C25.1 29.402 24.9398 29.2068 24.8452 28.9784C24.7505 28.7499 24.7258 28.4986 24.774 28.2561C24.8222 28.0137 24.9413 27.7909 25.1161 27.6161C25.2909 27.4413 25.5137 27.3222 25.7561 27.274C25.9986 27.2258 26.2499 27.2505 26.4784 27.3452C26.7068 27.4398 26.902 27.6 27.0393 27.8055C27.1767 28.0111 27.25 28.2528 27.25 28.5C27.25 28.8315 27.1183 29.1495 26.8839 29.3839C26.6495 29.6183 26.3315 29.75 26 29.75ZM34.75 18.5H31V17.25C31 16.2554 30.6049 15.3016 29.9017 14.5983C29.1984 13.8951 28.2446 13.5 27.25 13.5H24.75C23.7554 13.5 22.8016 13.8951 22.0983 14.5983C21.3951 15.3016 21 16.2554 21 17.25V18.5H17.25C16.2554 18.5 15.3016 18.8951 14.5983 19.5983C13.8951 20.3016 13.5 21.2554 13.5 22.25V34.75C13.5 35.7446 13.8951 36.6984 14.5983 37.4017C15.3016 38.1049 16.2554 38.5 17.25 38.5H34.75C35.7446 38.5 36.6984 38.1049 37.4017 37.4017C38.1049 36.6984 38.5 35.7446 38.5 34.75V22.25C38.5 21.2554 38.1049 20.3016 37.4017 19.5983C36.6984 18.8951 35.7446 18.5 34.75 18.5ZM23.5 17.25C23.5 16.9185 23.6317 16.6005 23.8661 16.3661C24.1005 16.1317 24.4185 16 24.75 16H27.25C27.5815 16 27.8995 16.1317 28.1339 16.3661C28.3683 16.6005 28.5 16.9185 28.5 17.25V18.5H23.5V17.25ZM16 22.25C16 21.9185 16.1317 21.6005 16.3661 21.3661C16.6005 21.1317 16.9185 21 17.25 21H18.5C18.5 21.663 18.2366 22.2989 17.7678 22.7678C17.2989 23.2366 16.663 23.5 16 23.5V22.25ZM17.25 36C16.9185 36 16.6005 35.8683 16.3661 35.6339C16.1317 35.3995 16 35.0815 16 34.75V33.5C16.663 33.5 17.2989 33.7634 17.7678 34.2322C18.2366 34.7011 18.5 35.337 18.5 36H17.25ZM36 34.75C36 35.0815 35.8683 35.3995 35.6339 35.6339C35.3995 35.8683 35.0815 36 34.75 36H33.5C33.5 35.337 33.7634 34.7011 34.2322 34.2322C34.7011 33.7634 35.337 33.5 36 33.5V34.75ZM36 31C34.6739 31 33.4021 31.5268 32.4645 32.4645C31.5268 33.4021 31 34.6739 31 36H21C21 34.6739 20.4732 33.4021 19.5355 32.4645C18.5979 31.5268 17.3261 31 16 31V26C17.3261 26 18.5979 25.4732 19.5355 24.5355C20.4732 23.5979 21 22.3261 21 21H31C31 22.3261 31.5268 23.5979 32.4645 24.5355C33.4021 25.4732 34.6739 26 36 26V31ZM36 23.5C35.337 23.5 34.7011 23.2366 34.2322 22.7678C33.7634 22.2989 33.5 21.663 33.5 21H34.75C35.0815 21 35.3995 21.1317 35.6339 21.3661C35.8683 21.6005 36 21.9185 36 22.25V23.5Z" fill="#0ACF83"/>
</svg>
