<svg width="414" height="496" viewBox="0 0 414 496" fill="none" xmlns="http://www.w3.org/2000/svg">
<rect width="414" height="496" fill="#FFF5CC"/>
<path d="M188.286 364.625C237.396 364.625 277.208 324.639 277.208 275.313C277.208 225.987 237.396 186 188.286 186C139.175 186 99.363 225.987 99.363 275.313C99.363 324.639 139.175 364.625 188.286 364.625Z" fill="#F2F2F2"/>
<path d="M111.283 377C130.769 377 146.566 374.461 146.566 371.33C146.566 368.198 130.769 365.66 111.283 365.66C91.7967 365.66 76 368.198 76 371.33C76 374.461 91.7967 377 111.283 377Z" fill="#F2F2F2"/>
<path d="M283.407 371.236C313.558 371.236 338 367.308 338 362.463C338 357.618 313.558 353.69 283.407 353.69C253.256 353.69 228.813 357.618 228.813 362.463C228.813 367.308 253.256 371.236 283.407 371.236Z" fill="#F2F2F2"/>
<path d="M271.277 278.135C271.277 278.135 271.742 279.691 269.108 281.091C266.474 282.492 265.7 287.782 268.798 289.338C271.897 290.894 272.826 292.917 271.277 294.318C269.728 295.718 266.939 299.453 270.657 300.387C274.376 301.32 274.84 303.188 273.756 303.966C272.671 304.744 276.235 302.565 276.235 302.565C276.235 302.565 276.855 306.3 280.108 305.366C283.362 304.432 292.502 286.693 287.855 284.203C283.207 281.714 271.277 278.135 271.277 278.135Z" fill="#2F2E41"/>
<path d="M276.893 293.16C276.893 293.16 278.5 298.81 275.687 299.213C273.942 299.486 272.288 300.179 270.866 301.231L276.089 308.091H285.732L291.758 302.038C291.758 302.038 283.723 295.985 285.33 292.353C286.937 288.721 276.893 293.16 276.893 293.16Z" fill="#FFB9B9"/>
<path opacity="0.1" d="M276.893 293.16C276.893 293.16 278.5 298.81 275.687 299.213C273.942 299.486 272.288 300.179 270.866 301.231L276.089 308.091H285.732L291.758 302.038C291.758 302.038 283.723 295.985 285.33 292.353C286.937 288.721 276.893 293.16 276.893 293.16Z" fill="black"/>
<path d="M279.303 363.375L288.544 366.603L294.972 367.007L294.57 361.358L281.312 357.419L279.303 363.375Z" fill="#FFB9B9"/>
<path d="M291.156 362.165C291.156 362.165 291.156 367.814 291.959 367.814C292.763 367.814 303.61 366.603 306.825 367.814C310.039 369.025 314.86 364.586 312.449 362.165C310.039 359.743 306.107 356.112 303.653 356.919C301.2 357.726 291.156 359.743 291.156 359.743V362.165Z" fill="#575A89"/>
<path d="M261.625 356.919C261.625 356.919 256.804 366.603 260.018 367.411C263.232 368.218 266.848 367.007 267.25 366.603C267.652 366.2 273.277 364.586 274.08 365.393C274.884 366.2 274.884 362.165 274.884 362.165L261.625 356.919Z" fill="#575A89"/>
<path d="M265.643 343.602C265.643 343.602 258.009 354.094 263.634 356.919C269.259 359.743 296.178 359.743 298.186 356.919C300.195 354.094 300.999 345.216 298.186 344.409C295.374 343.602 265.643 343.602 265.643 343.602Z" fill="#2F2E41"/>
<path opacity="0.2" d="M265.643 343.602C265.643 343.602 258.009 354.094 263.634 356.919C269.259 359.743 296.178 359.743 298.186 356.919C300.195 354.094 300.999 345.216 298.186 344.409C295.374 343.602 265.643 343.602 265.643 343.602Z" fill="black"/>
<path d="M280.107 295.985C285.21 295.985 289.347 291.83 289.347 286.704C289.347 281.578 285.21 277.422 280.107 277.422C275.003 277.422 270.866 281.578 270.866 286.704C270.866 291.83 275.003 295.985 280.107 295.985Z" fill="#FFB9B9"/>
<path d="M265.643 301.231L273.678 299.617C273.678 299.617 275.687 306.073 282.115 304.863C288.544 303.652 290.151 299.617 290.151 299.617C290.151 299.617 294.972 301.634 295.374 301.634C295.776 301.634 300.999 303.652 300.999 304.863C300.999 306.073 294.972 318.179 294.972 318.179L295.776 339.97L266.045 339.163L268.053 317.776L265.643 301.231Z" fill="#FFDE54"/>
<path d="M261.223 311.723C261.223 311.723 258.813 333.11 260.42 334.724C262.027 336.338 268.455 340.777 268.455 340.777V335.935L265.241 329.882L268.455 315.758L261.223 311.723Z" fill="#FFB9B9"/>
<path d="M302.807 311.117C302.807 311.117 301.401 333.11 301.401 333.917C301.401 334.724 297.785 337.549 296.579 337.549C295.374 337.549 294.57 335.531 294.57 335.531L297.383 332.303L295.374 315.758L302.807 311.117Z" fill="#FFB9B9"/>
<path d="M298.99 341.988C298.99 341.988 317.07 331.899 317.472 341.988C317.873 352.076 308.231 356.112 308.231 356.112C308.231 356.112 283.321 363.614 282.316 360.871C281.312 358.129 279.303 353.69 280.91 353.287C282.517 352.883 284.526 352.076 285.33 352.883C286.133 353.69 296.178 346.83 296.178 346.83L298.99 341.988Z" fill="#2F2E41"/>
<path opacity="0.2" d="M307.427 340.777C307.427 340.777 303.811 342.391 302.606 343.602C301.401 344.813 296.178 346.83 296.178 346.83" stroke="black" stroke-width="2" stroke-miterlimit="10"/>
<path d="M268.054 302.038L265.643 301.231C265.643 301.231 256.804 310.512 259.616 312.933C262.429 315.355 264.036 316.162 264.839 316.969C265.643 317.776 269.661 318.179 269.661 318.179L268.054 302.038Z" fill="#FFDE54"/>
<path d="M297.383 304.056L300.999 304.863C300.999 304.863 303.811 310.916 304.615 311.723C305.418 312.53 303.409 312.126 302.204 313.74C300.999 315.355 299.794 318.179 297.383 318.179C294.972 318.179 291.758 314.144 291.758 314.144L297.383 304.056Z" fill="#FFDE54"/>
<path d="M266.446 345.62C266.446 345.62 251.179 334.724 245.956 342.795C240.733 350.866 268.455 361.761 272.473 363.375C276.491 364.989 280.107 366.603 280.107 366.603C280.107 366.603 283.723 357.726 283.723 356.112C283.723 354.497 280.91 354.497 280.107 354.497C279.303 354.497 275.687 353.69 274.884 352.48C274.08 351.269 266.446 345.62 266.446 345.62Z" fill="#2F2E41"/>
<path opacity="0.2" d="M258.009 342.795C258.009 342.795 262.027 346.023 265.643 346.83C269.259 347.637 270.464 349.655 270.464 349.655" stroke="black" stroke-width="2" stroke-miterlimit="10"/>
<path d="M263.675 327.622L263.996 344.708C264.007 345.272 264.239 345.81 264.642 346.203C265.045 346.596 265.587 346.813 266.149 346.806L297.806 346.449C298.345 346.443 298.862 346.232 299.252 345.858C299.643 345.483 299.877 344.974 299.908 344.434L300.869 327.705C300.886 327.414 300.843 327.123 300.744 326.849C300.644 326.576 300.491 326.325 300.291 326.114C300.092 325.902 299.852 325.733 299.586 325.618C299.32 325.502 299.033 325.443 298.743 325.443H265.804C265.521 325.443 265.241 325.5 264.98 325.61C264.719 325.72 264.482 325.881 264.284 326.084C264.086 326.287 263.93 326.527 263.825 326.791C263.721 327.055 263.67 327.338 263.675 327.622Z" fill="#575A89"/>
<path d="M280.6 275.044C280.6 275.044 281.115 276.768 278.198 278.32C275.28 279.871 274.422 285.732 277.854 287.456C281.287 289.18 282.317 291.421 280.6 292.972C278.884 294.524 275.795 298.661 279.914 299.695C284.033 300.73 284.548 302.798 283.346 303.66C282.145 304.522 286.093 302.109 286.093 302.109C286.093 302.109 286.779 306.246 290.383 305.212C293.988 304.177 297.584 285.376 293.566 280.534C289.83 276.031 280.6 275.044 280.6 275.044Z" fill="#2F2E41"/>
<path d="M279.504 273.27C279.505 270.745 287.028 272.559 290.253 276.085C292.486 278.527 295.879 282.201 293.036 284.791C290.193 287.38 297.909 290.775 299.978 291.804C302.047 292.833 306.133 295.981 302.444 298.092C298.755 300.204 298.814 302.335 300.203 302.84C301.591 303.344 297.142 302.089 297.142 302.089C297.142 302.089 297.591 306.259 293.843 306.239C290.094 306.219 279.341 285.529 281.91 279.778C284.298 274.43 279.504 273.27 279.504 273.27Z" fill="#2F2E41"/>
<path d="M281.134 272.717C271.074 272.108 270.064 279.714 270.064 279.714C270.134 284.115 277.093 281.971 279.025 282.627C281.357 280.942 285.852 277.754 289.067 275.479C286.733 273.829 283.984 272.871 281.134 272.717Z" fill="#2F2E41"/>
<path d="M278.267 321.25C278.267 321.25 269.244 278.773 212.762 247.959" stroke="#3F3D56" stroke-width="2" stroke-miterlimit="10"/>
<path d="M215.089 247.032L215.202 247.498L212.918 248.054L213.637 250.303L213.183 250.449L212.307 247.711L215.089 247.032Z" fill="#3F3D56"/>
<path d="M92.3239 364.652C92.3239 370.032 89.1398 371.911 85.2116 371.911C85.1206 371.911 85.0297 371.91 84.939 371.908C84.757 371.904 84.5768 371.895 84.3987 371.883C80.8535 371.631 78.0992 369.656 78.0992 364.652C78.0992 359.474 84.6873 352.94 85.1821 352.457L85.183 352.456C85.2021 352.437 85.2116 352.428 85.2116 352.428C85.2116 352.428 92.3239 359.272 92.3239 364.652Z" fill="#FFDE54"/>
<path d="M84.9525 371.088L87.5538 367.437L84.946 371.488L84.939 371.908C84.757 371.904 84.5768 371.895 84.3987 371.883L84.679 366.5L84.6769 366.458L84.6816 366.451L84.7081 365.942L82.0938 361.881L84.7163 365.561L84.7224 365.669L84.9343 361.602L82.6961 357.405L84.9616 360.888L85.1821 352.457L85.183 352.428V352.456L85.1462 359.105L87.3744 356.469L85.1371 359.677L85.0781 363.319L87.1586 359.824L85.0695 363.854L85.0365 365.879L88.0569 361.015L85.0253 366.585L84.9525 371.088Z" fill="#3F3D56"/>
<path d="M126.248 363.258L127.769 362.123C127.769 362.123 128.777 367.773 127.653 368.62C126.529 369.466 122.315 370.877 122.315 372.57C122.315 374.263 112.763 376.521 112.482 373.981C112.201 371.441 113.325 370.031 113.325 370.031C113.325 370.031 117.82 365.516 118.382 364.669C118.943 363.823 120.348 362.13 120.348 362.13L126.248 363.258Z" fill="#061E38"/>
<path d="M103.773 292.997C103.773 292.997 103.815 293.245 103.888 293.699C103.955 294.103 104.048 294.673 104.16 295.375C105.34 302.607 108.782 323.898 108.549 324.6C108.268 325.447 106.301 328.551 108.549 329.397C108.765 329.479 108.998 329.744 109.248 330.162C109.731 331.061 110.129 332.004 110.437 332.978C111.777 336.883 113.209 343.134 114.038 347.462C114.401 349.364 114.648 350.893 114.721 351.695C114.746 351.88 114.749 352.068 114.729 352.254C114.448 353.382 116.415 357.333 117.258 358.461C118.101 359.59 119.505 360.719 119.224 361.847C118.944 362.976 126.248 366.08 127.091 364.105C127.934 362.13 127.934 361.001 128.215 360.437C128.496 359.872 128.777 355.922 127.372 355.357C125.967 354.793 126.81 344.917 125.405 342.942C124.936 342.284 124.22 340.058 123.47 337.38C123.175 336.33 122.877 335.213 122.585 334.093C121.399 329.502 120.348 324.882 120.348 324.882L120.629 291.868L105.177 289.893L104.781 290.77L103.992 292.511L103.773 292.997Z" fill="#061E38"/>
<path d="M102.93 347.174C102.93 347.174 100.682 344.917 99.5584 347.174C98.4346 349.432 97.3109 358.179 95.3443 360.154C93.3776 362.13 90.8492 372.006 93.6586 372.57C96.468 373.134 99.5584 371.724 99.8393 370.031C100.12 368.337 106.02 359.59 106.02 358.744C106.02 357.897 102.087 354.793 102.087 354.793L102.93 347.174Z" fill="#061E38"/>
<path d="M137.486 277.477C137.486 277.477 133.833 310.491 132.991 313.595C132.148 316.699 127.653 328.551 126.248 330.526C124.843 332.501 115.853 348.585 114.729 349.432C113.606 350.278 111.358 352.536 111.358 352.536C111.358 352.536 107.144 356.768 106.582 357.615C106.02 358.461 101.244 355.922 100.963 354.229C100.682 352.536 101.244 349.714 101.525 348.585C101.806 347.456 100.963 345.763 101.806 344.917C102.649 344.07 106.863 339.838 106.863 337.862C106.863 335.887 114.167 324.318 116.977 321.778C119.786 319.239 119.224 315.006 119.224 315.006V297.794L103.773 292.997C103.773 292.997 104.615 279.452 106.582 279.452C108.549 279.452 134.395 274.937 137.486 277.477Z" fill="#061E38"/>
<path d="M114.729 230.354C119.85 230.354 124 226.185 124 221.042C124 215.899 119.85 211.73 114.729 211.73C109.609 211.73 105.458 215.899 105.458 221.042C105.458 226.185 109.609 230.354 114.729 230.354Z" fill="#9F616A"/>
<path d="M117.82 228.378C117.82 228.378 118.943 232.611 120.348 233.74C121.753 234.868 116.696 239.665 116.696 239.665L107.144 240.23L105.458 234.868C105.458 234.868 108.549 228.66 107.706 224.71C106.863 220.76 117.82 228.378 117.82 228.378Z" fill="#9F616A"/>
<path d="M121.753 233.175C121.753 233.175 119.224 233.457 118.663 234.304C118.101 235.151 114.167 237.69 111.077 237.126C107.987 236.561 106.02 235.715 105.458 235.997C104.896 236.279 103.773 242.205 103.773 242.205L106.863 251.235L106.301 276.066L105.458 282.838C105.458 282.838 103.773 280.581 110.515 281.992C117.258 283.403 125.967 280.863 128.777 280.581C131.586 280.299 136.362 279.452 136.643 277.759C136.924 276.066 135.8 269.858 135.8 269.858L131.305 250.952L128.496 240.794L121.753 233.175Z" fill="#FFDE54"/>
<path d="M119.096 231.902C119.096 231.902 121.472 230.636 122.315 231.764C123.158 232.893 133.833 234.586 133.833 235.433C133.833 236.279 136.081 259.135 135.519 261.111C134.957 263.086 136.643 265.343 136.643 265.343L138.61 273.809C138.61 273.809 143.947 289.893 141.7 290.457C139.452 291.021 137.486 290.457 136.643 290.457C135.8 290.457 136.081 279.734 133.833 276.913C131.586 274.091 128.496 267.036 127.934 265.626C127.372 264.215 120.348 244.745 120.629 242.487C120.91 240.23 119.096 231.902 119.096 231.902Z" fill="#D0CDE1"/>
<path d="M107.425 233.175C107.425 233.175 105.177 233.175 104.896 233.74C104.615 234.304 101.806 237.972 100.682 238.819C99.5584 239.665 95.6252 243.334 95.6252 244.18C95.6252 245.027 103.773 251.235 103.773 251.235C103.773 251.235 107.144 267.883 105.458 273.526C103.773 279.17 101.244 292.714 102.368 293.561C103.492 294.407 106.02 294.69 106.02 293.561C106.02 292.432 107.706 280.299 109.11 277.759C110.515 275.219 114.729 259.135 113.044 254.621C111.358 250.106 107.425 233.175 107.425 233.175Z" fill="#D0CDE1"/>
<path d="M144.509 261.111C144.509 261.111 144.79 269.858 141.7 274.373C138.61 278.888 136.643 283.967 136.643 283.967C136.643 283.967 131.586 282.556 130.743 280.863C129.9 279.17 124.562 280.581 124.562 280.016C124.562 279.452 131.024 276.63 131.586 276.066C132.148 275.502 134.114 275.502 135.238 274.373C136.362 273.244 136.643 270.705 136.643 270.705L137.767 263.368L144.509 261.111Z" fill="#9F616A"/>
<path d="M121.115 215.3C121.828 215.235 122.564 215.164 123.194 214.822C124.606 214.057 124.981 211.878 123.906 210.682C123.609 210.378 123.278 210.11 122.918 209.884L120.782 208.424C119.838 207.779 118.871 207.122 117.77 206.818C116.773 206.543 115.721 206.571 114.689 206.635C112.687 206.76 110.673 207.019 108.789 207.713C106.906 208.407 105.15 209.569 104.009 211.226C102.201 213.854 102.176 217.398 103.172 220.432C104.168 223.465 106.059 226.107 107.923 228.695L108.891 223.955C108.977 223.533 109.088 223.07 109.438 222.82C110.307 222.199 111.369 223.474 112.436 223.466C113.121 223.461 113.696 222.895 113.956 222.258C114.215 221.621 114.233 220.916 114.293 220.23C114.42 218.778 114.925 216.758 116.294 215.957C117.57 215.211 119.681 215.431 121.115 215.3Z" fill="#2F2E41"/>
<path opacity="0.1" d="M120.595 293.224C120.595 293.224 119.646 320.791 119.084 321.637C118.522 322.484 119.084 293.138 119.084 293.138L120.595 293.224Z" fill="black"/>
<path d="M131.586 235.433H133.833C133.833 235.433 143.386 248.413 142.262 249.259C141.138 250.106 142.262 252.363 142.262 252.363L144.509 256.596C144.509 256.596 147.319 259.135 146.476 259.7C145.633 260.264 144.509 262.522 144.509 262.522C144.509 262.522 138.89 261.675 137.205 265.061L133.561 260.441L131.586 235.433Z" fill="#D0CDE1"/>
<path d="M132.38 239.608L124.668 242.806L130.603 257.242L138.315 254.043L132.38 239.608Z" fill="#2F2E41"/>
<path d="M131.476 248.074C132.328 247.721 132.757 246.797 132.434 246.011C132.111 245.225 131.158 244.874 130.306 245.228C129.454 245.581 129.026 246.505 129.349 247.291C129.672 248.077 130.625 248.427 131.476 248.074Z" fill="#FFDE54"/>
<path d="M125.967 258.007C125.967 258.007 105.739 274.937 102.368 269.576C98.9965 264.215 106.02 259.7 106.02 259.7C106.02 259.7 112.201 259.982 119.224 255.467L126.248 252.363C126.248 252.363 132.66 243.169 134.845 246.67C137.03 250.171 131.115 256.265 125.967 258.007Z" fill="#9F616A"/>
<path d="M98.7156 243.051L95.6252 244.18V252.645L94.5014 254.338C94.5014 254.338 94.7823 257.725 95.6252 258.571C96.468 259.418 98.1537 259.135 97.5918 261.111C97.2541 262.398 97.1588 263.738 97.3108 265.061C97.3108 265.061 102.368 271.551 102.649 270.705C102.93 269.858 106.863 259.418 107.425 259.418C107.987 259.418 101.806 243.051 101.806 243.051H98.7156Z" fill="#D0CDE1"/>
<path d="M135.66 285.801C135.66 285.801 138.565 282.979 137.112 282.838C135.66 282.697 130.603 279.875 129.76 281.286C128.917 282.697 135.66 285.801 135.66 285.801Z" fill="#2F2E41"/>
<path d="M190.908 231.973C193.146 231.973 194.961 231.009 194.961 229.818C194.961 228.628 193.146 227.663 190.908 227.663C188.67 227.663 186.855 228.628 186.855 229.818C186.855 231.009 188.67 231.973 190.908 231.973Z" fill="#FFDE54"/>
<path d="M206.404 237.002C197.265 233.535 188.127 233.535 178.988 237.002V225.748C187.928 223.038 197.464 223.038 206.404 225.748V237.002Z" stroke="#3F3D56" stroke-width="2" stroke-miterlimit="10"/>
<path d="M202.59 234.674C195.994 232.172 189.398 232.172 182.803 234.674V226.552C189.255 224.597 196.138 224.597 202.59 226.552V234.674Z" stroke="#3F3D56" stroke-width="2" stroke-miterlimit="10"/>
<path d="M192.338 231.016C194.577 231.016 196.391 230.051 196.391 228.861C196.391 227.67 194.577 226.706 192.338 226.706C190.1 226.706 188.286 227.67 188.286 228.861C188.286 230.051 190.1 231.016 192.338 231.016Z" stroke="#3F3D56" stroke-width="2" stroke-miterlimit="10"/>
<path d="M193.888 245.469C196.081 245.02 197.667 243.71 197.43 242.544C197.193 241.378 195.223 240.797 193.03 241.246C190.837 241.696 189.251 243.006 189.488 244.172C189.725 245.338 191.695 245.919 193.888 245.469Z" fill="#FFDE54"/>
<path d="M210.072 247.284C200.428 245.723 191.474 247.558 183.21 252.79L180.969 241.764C189.189 237.313 198.533 235.398 207.832 236.257L210.072 247.284Z" stroke="#3F3D56" stroke-width="2" stroke-miterlimit="10"/>
<path d="M205.871 245.769C198.911 244.643 192.448 245.968 186.484 249.744L184.867 241.785C190.799 238.574 197.543 237.191 204.254 237.811L205.871 245.769Z" stroke="#3F3D56" stroke-width="2" stroke-miterlimit="10"/>
<path d="M195.099 244.244C197.292 243.794 198.878 242.484 198.641 241.318C198.404 240.152 196.434 239.571 194.241 240.021C192.048 240.47 190.462 241.78 190.699 242.946C190.936 244.112 192.906 244.693 195.099 244.244Z" stroke="#3F3D56" stroke-width="2" stroke-miterlimit="10"/>
<path d="M196.662 257.035C196.744 255.847 195 254.758 192.767 254.602C190.535 254.446 188.658 255.282 188.576 256.47C188.493 257.657 190.237 258.746 192.47 258.902C194.702 259.058 196.579 258.222 196.662 257.035Z" fill="#FFDE54"/>
<path d="M207.581 264.999C198.704 260.903 189.587 260.266 180.231 263.087L181.009 251.86C190.114 249.781 199.628 250.446 208.358 253.772L207.581 264.999Z" stroke="#3F3D56" stroke-width="2" stroke-miterlimit="10"/>
<path d="M203.936 262.411C197.529 259.455 190.95 258.995 184.197 261.031L184.758 252.929C191.33 251.428 198.196 251.908 204.498 254.308L203.936 262.411Z" stroke="#3F3D56" stroke-width="2" stroke-miterlimit="10"/>
<path d="M198.155 256.179C198.237 254.992 196.494 253.903 194.261 253.747C192.028 253.591 190.151 254.427 190.069 255.614C189.986 256.801 191.73 257.89 193.963 258.046C196.196 258.202 198.072 257.366 198.155 256.179Z" stroke="#3F3D56" stroke-width="2" stroke-miterlimit="10"/>
<path d="M174.917 237.263C174.917 237.263 157.395 234.855 144.883 242.22" stroke="#3F3D56" stroke-width="2" stroke-miterlimit="10"/>
<path d="M145.304 239.745L145.759 239.89L145.048 242.141L147.335 242.689L147.224 243.155L144.439 242.487L145.304 239.745Z" fill="#3F3D56"/>
</svg>
