<svg width="25" height="25" viewBox="0 0 25 25" fill="none" xmlns="http://www.w3.org/2000/svg">
<path d="M12.5 11.25C11.7583 11.25 11.0333 11.4699 10.4166 11.882C9.79993 12.294 9.31928 12.8797 9.03545 13.5649C8.75162 14.2502 8.67736 15.0042 8.82205 15.7316C8.96675 16.459 9.3239 17.1272 9.84835 17.6517C10.3728 18.1761 11.041 18.5333 11.7684 18.6779C12.4958 18.8226 13.2498 18.7484 13.9351 18.4645C14.6203 18.1807 15.206 17.7001 15.618 17.0834C16.0301 16.4667 16.25 15.7417 16.25 15C16.25 14.0054 15.8549 13.0516 15.1517 12.3483C14.4484 11.6451 13.4946 11.25 12.5 11.25V11.25ZM12.5 16.25C12.2528 16.25 12.0111 16.1767 11.8055 16.0393C11.6 15.902 11.4398 15.7068 11.3452 15.4784C11.2505 15.2499 11.2258 14.9986 11.274 14.7561C11.3222 14.5137 11.4413 14.2909 11.6161 14.1161C11.7909 13.9413 12.0137 13.8222 12.2561 13.774C12.4986 13.7258 12.7499 13.7505 12.9784 13.8452C13.2068 13.9398 13.402 14.1 13.5393 14.3055C13.6767 14.5111 13.75 14.7528 13.75 15C13.75 15.3315 13.6183 15.6495 13.3839 15.8839C13.1495 16.1183 12.8315 16.25 12.5 16.25ZM21.25 5H17.5V3.75C17.5 2.75544 17.1049 1.80161 16.4017 1.09835C15.6984 0.395088 14.7446 0 13.75 0H11.25C10.2554 0 9.30161 0.395088 8.59835 1.09835C7.89509 1.80161 7.5 2.75544 7.5 3.75V5H3.75C2.75544 5 1.80161 5.39509 1.09835 6.09835C0.395088 6.80161 0 7.75544 0 8.75V21.25C0 22.2446 0.395088 23.1984 1.09835 23.9017C1.80161 24.6049 2.75544 25 3.75 25H21.25C22.2446 25 23.1984 24.6049 23.9017 23.9017C24.6049 23.1984 25 22.2446 25 21.25V8.75C25 7.75544 24.6049 6.80161 23.9017 6.09835C23.1984 5.39509 22.2446 5 21.25 5ZM10 3.75C10 3.41848 10.1317 3.10054 10.3661 2.86612C10.6005 2.6317 10.9185 2.5 11.25 2.5H13.75C14.0815 2.5 14.3995 2.6317 14.6339 2.86612C14.8683 3.10054 15 3.41848 15 3.75V5H10V3.75ZM2.5 8.75C2.5 8.41848 2.6317 8.10054 2.86612 7.86612C3.10054 7.6317 3.41848 7.5 3.75 7.5H5C5 8.16304 4.73661 8.79893 4.26777 9.26777C3.79893 9.73661 3.16304 10 2.5 10V8.75ZM3.75 22.5C3.41848 22.5 3.10054 22.3683 2.86612 22.1339C2.6317 21.8995 2.5 21.5815 2.5 21.25V20C3.16304 20 3.79893 20.2634 4.26777 20.7322C4.73661 21.2011 5 21.837 5 22.5H3.75ZM22.5 21.25C22.5 21.5815 22.3683 21.8995 22.1339 22.1339C21.8995 22.3683 21.5815 22.5 21.25 22.5H20C20 21.837 20.2634 21.2011 20.7322 20.7322C21.2011 20.2634 21.837 20 22.5 20V21.25ZM22.5 17.5C21.1739 17.5 19.9021 18.0268 18.9645 18.9645C18.0268 19.9021 17.5 21.1739 17.5 22.5H7.5C7.5 21.1739 6.97322 19.9021 6.03553 18.9645C5.09785 18.0268 3.82608 17.5 2.5 17.5V12.5C3.82608 12.5 5.09785 11.9732 6.03553 11.0355C6.97322 10.0979 7.5 8.82608 7.5 7.5H17.5C17.5 8.82608 18.0268 10.0979 18.9645 11.0355C19.9021 11.9732 21.1739 12.5 22.5 12.5V17.5ZM22.5 10C21.837 10 21.2011 9.73661 20.7322 9.26777C20.2634 8.79893 20 8.16304 20 7.5H21.25C21.5815 7.5 21.8995 7.6317 22.1339 7.86612C22.3683 8.10054 22.5 8.41848 22.5 8.75V10Z" fill="#0ACF83"/>
</svg>
