<svg width="127" height="101" viewBox="0 0 127 101" fill="none" xmlns="http://www.w3.org/2000/svg">
<path d="M53.2138 13.299C52.9225 13.2805 52.6499 13.1498 52.4531 12.9344C52.2563 12.7189 52.1507 12.4355 52.1586 12.1439L52.2396 1.15245C52.2378 0.999588 52.2668 0.847929 52.3248 0.706506C52.3828 0.565083 52.4688 0.436791 52.5774 0.329276C52.6861 0.221762 52.8153 0.137224 52.9573 0.0807036C53.0994 0.024183 53.2513 -0.00316376 53.4042 0.00029089L54.2828 0.0395662C54.4351 0.0495997 54.5838 0.0903425 54.7199 0.159334C54.8561 0.228325 54.9769 0.324144 55.075 0.441026C55.1732 0.557908 55.2466 0.693434 55.2911 0.839456C55.3355 0.985479 55.3499 1.13898 55.3334 1.29072L54.3738 12.2429C54.3537 12.5344 54.2219 12.807 54.0058 13.0038C53.7896 13.2005 53.5059 13.3063 53.2138 13.299V13.299Z" fill="#E3E3E3"/>
<path d="M48.0745 14.4898C47.895 14.5519 47.6982 14.5401 47.5275 14.4571C47.3567 14.3741 47.2258 14.2267 47.1638 14.0473L44.6974 7.32895C44.6258 7.13796 44.633 6.92638 44.7172 6.74065C44.8015 6.55492 44.956 6.41022 45.1469 6.33829L45.694 6.14451C45.7879 6.11222 45.8875 6.09975 45.9865 6.10788C46.0854 6.11602 46.1816 6.14459 46.269 6.19178C46.3564 6.23898 46.433 6.30377 46.4941 6.38208C46.5552 6.46038 46.5993 6.5505 46.6238 6.64674L48.5432 13.5587C48.5963 13.7444 48.5776 13.9433 48.4907 14.1158C48.4039 14.2884 48.2553 14.4219 48.0745 14.4898V14.4898Z" fill="#E3E3E3"/>
<path d="M45.369 18.5596C45.0075 19.0536 44.2348 19.0846 43.6174 18.6296L32.6551 10.5531C32.0004 10.0706 31.7742 9.23175 32.1577 8.70778L32.6922 7.97743C33.0757 7.45336 33.9144 7.45495 34.5375 7.98125L44.9651 16.7882C45.5524 17.2841 45.7305 18.0655 45.369 18.5596Z" fill="#E3E3E3"/>
<path d="M122.369 36.0105L54.7354 19.9104C52.2291 19.3137 49.7136 20.8619 49.117 23.3682L39.171 65.1492C38.5744 67.6555 40.1225 70.171 42.6289 70.7676L110.262 86.8677C112.769 87.4643 115.284 85.9162 115.881 83.4099L125.827 41.6289C126.423 39.1226 124.875 36.6071 122.369 36.0105Z" fill="#ADB0B9"/>
<path d="M124.888 45.5727L48.1777 27.312L46.0965 36.0549L122.806 54.3156L124.888 45.5727Z" fill="#E3E3E3"/>
<path d="M112.591 78.23L97.3379 74.5991C97.2894 74.5875 97.2406 74.6175 97.2291 74.6661L96.2627 78.7255C96.2512 78.774 96.2812 78.8228 96.3297 78.8344L111.583 82.4653C111.631 82.4769 111.68 82.4469 111.692 82.3983L112.658 78.3389C112.67 78.2904 112.64 78.2416 112.591 78.23Z" fill="white"/>
<path d="M83.1835 14.081L4.41061 41.2169C1.9747 42.0561 0.680251 44.711 1.51938 47.1469L18.486 96.3991C19.3251 98.835 21.98 100.129 24.416 99.2903L103.189 72.1544C105.625 71.3152 106.919 68.6603 106.08 66.2244L89.1135 16.9722C88.2743 14.5363 85.6194 13.2419 83.1835 14.081Z" fill="#E3E3E3"/>
<path d="M81.5458 20.448L72.3573 23.6133C70.8958 24.1168 70.1191 25.7097 70.6226 27.1713L73.7879 36.3598C74.2914 37.8214 75.8843 38.598 77.3459 38.0946L86.5344 34.9293C87.996 34.4258 88.7726 32.8328 88.2691 31.3713L85.1038 22.1827C84.6004 20.7212 83.0074 19.9445 81.5458 20.448Z" fill="white"/>
<path d="M49.3647 64.4831L18.8011 75.0118C18.7135 75.042 18.667 75.1374 18.6972 75.2249L20.254 79.7441C20.2841 79.8317 20.3796 79.8782 20.4671 79.848L51.0307 69.3194C51.1182 69.2892 51.1648 69.1938 51.1346 69.1063L49.5778 64.5871C49.5476 64.4995 49.4522 64.453 49.3647 64.4831Z" fill="white"/>
<path d="M65.6354 69.3241L22.0159 84.3502C21.9284 84.3803 21.8819 84.4758 21.912 84.5633L23.4688 89.0825C23.499 89.17 23.5944 89.2165 23.6819 89.1864L67.3014 74.1603C67.3889 74.1301 67.4354 74.0347 67.4053 73.9471L65.8485 69.428C65.8183 69.3404 65.7229 69.2939 65.6354 69.3241Z" fill="white"/>
</svg>
