<svg width="28" height="26" viewBox="0 0 28 26" fill="none" xmlns="http://www.w3.org/2000/svg">
<path d="M17.7499 25.5088H5.24991V23.0088H17.7499V25.5088ZM26.4999 3L20.5812 10.4438L20.3062 10.7812L13.2687 19.7688C13.0364 20.001 12.7606 20.1853 12.4572 20.311C12.1537 20.4367 11.8284 20.5014 11.4999 20.5014C11.1714 20.5014 10.8462 20.4367 10.5427 20.311C10.2392 20.1853 9.96344 20.001 9.73116 19.7688C9.49889 19.5365 9.31464 19.2607 9.18893 18.9572C9.06322 18.6538 8.99852 18.3285 8.99852 18C8.99852 17.6715 9.06322 17.3462 9.18893 17.0428C9.31464 16.7393 9.49889 16.4635 9.73116 16.2312L26.4999 3ZM2.30616 7.0425C0.500578 9.93443 -0.148825 13.4006 0.487412 16.75H1.49991V15.5C1.48629 13.0387 2.2232 10.6318 3.61241 8.6L2.30616 7.0425ZM13.9999 0.5C12.0883 0.499577 10.1977 0.899298 8.44983 1.67345C6.70195 2.44761 5.13548 3.57905 3.85116 4.995L5.28116 6.7C6.97807 5.13967 9.19473 4.26637 11.4999 4.25C13.8175 4.26616 16.0454 5.14803 17.7462 6.7225L22.1837 3.22C19.8207 1.45407 16.9499 0.499903 13.9999 0.5ZM22.5374 12L22.2462 12.3588L21.3362 13.5212C21.4425 14.1755 21.4973 14.8371 21.4999 15.5V16.75H27.5124C28.1056 13.6217 27.5823 10.3845 26.0337 7.6025L22.5374 12Z" fill="white"/>
</svg>
