<svg width="21" height="27" viewBox="0 0 21 27" fill="none" xmlns="http://www.w3.org/2000/svg">
<path fill-rule="evenodd" clip-rule="evenodd" d="M10.4348 18.8695C9.41463 18.8695 8.59667 18.9384 7.89879 19.0406C5.02205 19.4618 2.6087 22.3886 2.6087 25.3912C2.6087 26.1116 2.02472 26.6956 1.30435 26.6956C0.583976 26.6956 0 26.1116 0 25.3912C0 22.009 2.11948 18.6868 5.16404 17.1955C2.82873 15.5417 1.30435 12.8184 1.30435 9.73908C1.30435 4.69648 5.39218 0.608643 10.4348 0.608643C15.4774 0.608643 19.5652 4.69648 19.5652 9.73908C19.5652 12.8184 18.0408 15.5417 15.7055 17.1955C18.7501 18.6868 20.8696 22.009 20.8696 25.3912C20.8696 26.1116 20.2856 26.6956 19.5652 26.6956C18.8448 26.6956 18.2609 26.1116 18.2609 25.3912C18.2609 22.3886 15.8475 19.4618 12.9708 19.0406C12.2729 18.9384 11.4549 18.8695 10.4348 18.8695ZM10.4348 16.2608C6.83293 16.2608 3.91304 13.3409 3.91304 9.73908C3.91304 6.13722 6.83293 3.21734 10.4348 3.21734C14.0366 3.21734 16.9565 6.13722 16.9565 9.73908C16.9565 13.3409 14.0366 16.2608 10.4348 16.2608Z" fill="white"/>
</svg>
