<svg width="28" height="28" viewBox="0 0 28 28" fill="none" xmlns="http://www.w3.org/2000/svg">
<path d="M10.945 24.7075C11.1962 24.9588 11.4944 25.1582 11.8227 25.2942C12.151 25.4302 12.5028 25.5002 12.8581 25.5002C13.2134 25.5002 13.5653 25.4302 13.8935 25.2942C14.2218 25.1582 14.5201 24.9588 14.7713 24.7075L25.4575 14.0213C25.9648 13.5141 26.2499 12.8261 26.25 12.1087V4.45375C26.25 2.9625 25.0375 1.75 23.545 1.75H15.8913C15.175 1.75 14.4862 2.035 13.9787 2.5425L3.2925 13.2287C3.0412 13.4799 2.84185 13.7782 2.70584 14.1065C2.56983 14.4347 2.49982 14.7866 2.49982 15.1419C2.49982 15.4972 2.56983 15.849 2.70584 16.1773C2.84185 16.5056 3.0412 16.8038 3.2925 17.055L10.945 24.7075Z" stroke="white" stroke-width="3.33333" stroke-linecap="round" stroke-linejoin="round"/>
</svg>
