<svg width="30" height="31" viewBox="0 0 30 31" fill="none" xmlns="http://www.w3.org/2000/svg">
<path d="M14.75 19.25C16.8211 19.25 18.5 17.5711 18.5 15.5C18.5 13.4289 16.8211 11.75 14.75 11.75C12.6789 11.75 11 13.4289 11 15.5C11 17.5711 12.6789 19.25 14.75 19.25Z" stroke="white" stroke-width="2" stroke-linecap="round" stroke-linejoin="round"/>
<path d="M24 19.25C23.8336 19.627 23.784 20.0452 23.8575 20.4507C23.931 20.8562 24.1243 21.2304 24.4125 21.525L24.4875 21.6C24.7199 21.8322 24.9043 22.1079 25.0301 22.4114C25.156 22.7149 25.2207 23.0402 25.2207 23.3688C25.2207 23.6973 25.156 24.0226 25.0301 24.3261C24.9043 24.6296 24.7199 24.9053 24.4875 25.1375C24.2553 25.3699 23.9796 25.5543 23.6761 25.6801C23.3726 25.806 23.0473 25.8707 22.7188 25.8707C22.3902 25.8707 22.0649 25.806 21.7614 25.6801C21.4579 25.5543 21.1822 25.3699 20.95 25.1375L20.875 25.0625C20.5804 24.7743 20.2062 24.581 19.8007 24.5075C19.3952 24.434 18.977 24.4836 18.6 24.65C18.2303 24.8085 17.915 25.0716 17.6929 25.4069C17.4708 25.7423 17.3516 26.1353 17.35 26.5375V26.75C17.35 27.413 17.0866 28.0489 16.6178 28.5178C16.1489 28.9866 15.513 29.25 14.85 29.25C14.187 29.25 13.5511 28.9866 13.0822 28.5178C12.6134 28.0489 12.35 27.413 12.35 26.75V26.6375C12.3403 26.2238 12.2064 25.8225 11.9656 25.4859C11.7249 25.1493 11.3884 24.8929 11 24.75C10.623 24.5836 10.2048 24.534 9.79926 24.6075C9.39377 24.681 9.0196 24.8743 8.725 25.1625L8.65 25.2375C8.41782 25.4699 8.1421 25.6543 7.8386 25.7801C7.53511 25.906 7.20979 25.9707 6.88125 25.9707C6.55271 25.9707 6.22739 25.906 5.9239 25.7801C5.6204 25.6543 5.34468 25.4699 5.1125 25.2375C4.88006 25.0053 4.69566 24.7296 4.56985 24.4261C4.44404 24.1226 4.37928 23.7973 4.37928 23.4688C4.37928 23.1402 4.44404 22.8149 4.56985 22.5114C4.69566 22.2079 4.88006 21.9322 5.1125 21.7L5.1875 21.625C5.47567 21.3304 5.66898 20.9562 5.74251 20.5507C5.81603 20.1452 5.76639 19.727 5.6 19.35C5.44155 18.9803 5.17844 18.665 4.84308 18.4429C4.50772 18.2208 4.11473 18.1016 3.7125 18.1H3.5C2.83696 18.1 2.20107 17.8366 1.73223 17.3678C1.26339 16.8989 1 16.263 1 15.6C1 14.937 1.26339 14.3011 1.73223 13.8322C2.20107 13.3634 2.83696 13.1 3.5 13.1H3.6125C4.02624 13.0903 4.42751 12.9564 4.76412 12.7156C5.10074 12.4749 5.35714 12.1384 5.5 11.75C5.66639 11.373 5.71603 10.9548 5.64251 10.5493C5.56898 10.1438 5.37567 9.7696 5.0875 9.475L5.0125 9.4C4.78006 9.16782 4.59566 8.8921 4.46985 8.5886C4.34404 8.28511 4.27928 7.95979 4.27928 7.63125C4.27928 7.30271 4.34404 6.97739 4.46985 6.6739C4.59566 6.3704 4.78006 6.09468 5.0125 5.8625C5.24468 5.63006 5.5204 5.44566 5.8239 5.31985C6.12739 5.19404 6.45271 5.12928 6.78125 5.12928C7.10979 5.12928 7.43511 5.19404 7.7386 5.31985C8.0421 5.44566 8.31782 5.63006 8.55 5.8625L8.625 5.9375C8.9196 6.22567 9.29377 6.41898 9.69926 6.49251C10.1048 6.56603 10.523 6.51639 10.9 6.35H11C11.3697 6.19155 11.685 5.92844 11.9071 5.59308C12.1292 5.25772 12.2484 4.86473 12.25 4.4625V4.25C12.25 3.58696 12.5134 2.95107 12.9822 2.48223C13.4511 2.01339 14.087 1.75 14.75 1.75C15.413 1.75 16.0489 2.01339 16.5178 2.48223C16.9866 2.95107 17.25 3.58696 17.25 4.25V4.3625C17.2516 4.76473 17.3708 5.15772 17.5929 5.49308C17.815 5.82844 18.1303 6.09155 18.5 6.25C18.877 6.41639 19.2952 6.46603 19.7007 6.39251C20.1062 6.31898 20.4804 6.12567 20.775 5.8375L20.85 5.7625C21.0822 5.53006 21.3579 5.34566 21.6614 5.21985C21.9649 5.09404 22.2902 5.02928 22.6188 5.02928C22.9473 5.02928 23.2726 5.09404 23.5761 5.21985C23.8796 5.34566 24.1553 5.53006 24.3875 5.7625C24.6199 5.99468 24.8043 6.2704 24.9301 6.5739C25.056 6.87739 25.1207 7.20271 25.1207 7.53125C25.1207 7.85979 25.056 8.18511 24.9301 8.4886C24.8043 8.7921 24.6199 9.06782 24.3875 9.3L24.3125 9.375C24.0243 9.6696 23.831 10.0438 23.7575 10.4493C23.684 10.8548 23.7336 11.273 23.9 11.65V11.75C24.0585 12.1197 24.3216 12.435 24.6569 12.6571C24.9923 12.8792 25.3853 12.9984 25.7875 13H26C26.663 13 27.2989 13.2634 27.7678 13.7322C28.2366 14.2011 28.5 14.837 28.5 15.5C28.5 16.163 28.2366 16.7989 27.7678 17.2678C27.2989 17.7366 26.663 18 26 18H25.8875C25.4853 18.0016 25.0923 18.1208 24.7569 18.3429C24.4216 18.565 24.1585 18.8803 24 19.25Z" stroke="white" stroke-width="2" stroke-linecap="round" stroke-linejoin="round"/>
</svg>
