<svg width="179" height="55" viewBox="0 0 179 55" fill="none" xmlns="http://www.w3.org/2000/svg">
    <path d="M118.142 8.27387C120.393 8.27387 122.251 6.41647 122.251 4.10879C122.251 1.80112 120.393 0 118.142 0C115.778 0 113.92 1.80112 113.92 4.10879C113.92 6.41647 115.778 8.27387 118.142 8.27387Z" fill="white"/>
    <path d="M11.3132 42.3825C4.39022 42.3825 0 38.6677 0 33.208H6.52904C6.58532 35.6283 8.38644 37.148 11.5384 37.148C14.7466 37.148 16.4915 35.8534 16.4915 33.8272C16.4915 32.4201 15.7597 31.4069 13.2832 30.8441L8.27387 29.6621C3.26452 28.5364 0.844272 26.1724 0.844272 21.7259C0.844272 16.2663 5.45963 13.0018 11.8761 13.0018C18.1237 13.0018 22.3451 16.604 22.4014 22.0074H15.8723C15.816 19.6434 14.2401 18.1237 11.5947 18.1237C8.893 18.1237 7.31703 19.362 7.31703 21.4445C7.31703 23.0205 8.55529 24.0336 10.9193 24.5965L15.9286 25.7785C20.6002 26.8479 22.9642 28.9867 22.9642 33.2643C22.9642 38.8928 18.18 42.3825 11.3132 42.3825Z" fill="white"/>
    <path fill-rule="evenodd" clip-rule="evenodd" d="M35.2718 54.54H28.4051V13.8461H34.7653L35.2155 18.0674C36.9041 14.8592 40.5626 13.0018 44.784 13.0018C52.6075 13.0018 57.7857 18.6866 57.7857 27.4107C57.7857 36.0786 53.0578 42.3825 44.784 42.3825C40.6189 42.3825 37.0166 40.7502 35.2718 37.936V54.54ZM43.1517 19.2494C38.4238 19.2494 35.3281 22.7391 35.3281 27.7484C35.3281 32.7578 38.4238 36.1911 43.1517 36.1911C47.9922 36.1911 50.8627 32.7015 50.8627 27.7484C50.8627 22.7954 47.9922 19.2494 43.1517 19.2494Z" fill="white"/>
    <path d="M136.584 26.679V41.6508H129.718V13.8461H136.078L136.641 17.4483C138.386 14.6341 141.763 13.0018 145.534 13.0018C152.513 13.0018 156.115 17.3357 156.115 24.5402V41.6508H149.249V26.1724C149.249 21.5008 146.941 19.2494 143.395 19.2494C139.174 19.2494 136.584 22.1762 136.584 26.679Z" fill="white"/>
    <path d="M114.708 41.6508H121.575V13.8461H114.708V41.6508Z" fill="white"/>
    <path d="M172.944 41.6508V19.5871H178.348V13.8461H172.944V5.17821H166.078V13.8461H160.731V19.5871H166.078V41.6508H172.944Z" fill="white"/>
    <path d="M72.9842 3.36942C74.4395 2.82368 76.0617 3.56103 76.6074 5.01633L80.8861 16.4262L74.5281 22.7843L63.0007 17.0206C61.6105 16.3255 61.047 14.6351 61.7421 13.2449C62.4372 11.8547 64.1276 11.2912 65.5178 11.9863L73.4167 15.9358L74.3435 15.009L71.3373 6.99263C70.7916 5.53732 71.5289 3.91516 72.9842 3.36942Z" fill="white"/>
    <path d="M94.5285 4.74591C95.2236 3.35574 96.9141 2.79226 98.3042 3.48734C99.6944 4.18243 100.258 5.87287 99.5628 7.26305L95.6134 15.1619L96.5401 16.0887L104.557 13.0826C106.012 12.5368 107.634 13.2742 108.18 14.7295C108.725 16.1848 107.988 17.8069 106.533 18.3527L95.1229 22.6314L88.7649 16.2733L94.5285 4.74591Z" fill="white"/>
    <path d="M95.2759 30.5101L106.803 36.2738C108.193 36.9689 108.757 38.6593 108.062 40.0495C107.367 41.4396 105.676 42.0031 104.286 41.308L96.3872 37.3586L95.4604 38.2854L98.4666 46.3017C99.0123 47.757 98.275 49.3792 96.8197 49.9249C95.3644 50.4707 93.7422 49.7333 93.1965 48.278L88.9178 36.8682L95.2759 30.5101Z" fill="white"/>
    <path d="M74.681 30.663L81.0391 37.0211L75.2754 48.5485C74.5803 49.9386 72.8899 50.5021 71.4997 49.807C70.1095 49.1119 69.546 47.4215 70.2411 46.0313L74.1906 38.1324L73.2638 37.2057L65.2474 40.2118C63.7921 40.7576 62.1699 40.0202 61.6242 38.5649C61.0785 37.1096 61.8158 35.4874 63.2711 34.9417L74.681 30.663Z" fill="white"/>
</svg>