<svg width="13" height="9" viewBox="0 0 13 9" fill="none" xmlns="http://www.w3.org/2000/svg">
<path d="M11.9644 0.766643C11.89 0.691678 11.8016 0.632176 11.7041 0.591571C11.6067 0.550965 11.5021 0.53006 11.3965 0.53006C11.291 0.53006 11.1864 0.550965 11.0889 0.591571C10.9915 0.632176 10.903 0.691678 10.8287 0.766643L4.87007 6.73324L2.36666 4.22183C2.28946 4.14726 2.19833 4.08862 2.09847 4.04927C1.99861 4.00991 1.89197 3.99061 1.78465 3.99247C1.67733 3.99433 1.57143 4.0173 1.47299 4.06009C1.37455 4.10287 1.2855 4.16463 1.21093 4.24183C1.13636 4.31903 1.07772 4.41016 1.03836 4.51002C0.999011 4.60988 0.979711 4.71651 0.981568 4.82383C0.983424 4.93115 1.0064 5.03705 1.04919 5.13549C1.09197 5.23393 1.15373 5.32298 1.23092 5.39755L4.3022 8.46883C4.37656 8.5438 4.46502 8.6033 4.56248 8.6439C4.65994 8.68451 4.76448 8.70541 4.87007 8.70541C4.97565 8.70541 5.08019 8.68451 5.17766 8.6439C5.27512 8.6033 5.36358 8.5438 5.43794 8.46883L11.9644 1.94237C12.0456 1.86747 12.1104 1.77657 12.1547 1.67539C12.199 1.57422 12.2219 1.46496 12.2219 1.3545C12.2219 1.24405 12.199 1.13479 12.1547 1.03362C12.1104 0.932439 12.0456 0.841539 11.9644 0.766643V0.766643Z" fill="white"/>
</svg>
