<svg width="264" height="31" viewBox="0 0 264 31" fill="none" xmlns="http://www.w3.org/2000/svg">
<line x1="24" y1="16.75" x2="239" y2="16.75" stroke="#D1D1D1" stroke-width="0.5"/>
<line x1="23" y1="16.75" x2="182" y2="16.75" stroke="black" stroke-width="0.5"/>
<circle cx="15.5" cy="15.5" r="15.5" fill="#0ACF83"/>
<path d="M17.3543 17.98C17.5463 17.98 17.6903 18.024 17.7863 18.112C17.8823 18.2 17.9303 18.324 17.9303 18.484C17.9303 18.828 17.7383 19 17.3543 19H13.3463C12.9543 19 12.7583 18.828 12.7583 18.484C12.7583 18.324 12.8063 18.2 12.9023 18.112C13.0063 18.024 13.1543 17.98 13.3463 17.98H14.7263V11.992L13.4903 12.772C13.4103 12.82 13.3303 12.844 13.2503 12.844C13.1143 12.844 12.9943 12.784 12.8903 12.664C12.7943 12.544 12.7463 12.408 12.7463 12.256C12.7463 12.072 12.8263 11.928 12.9863 11.824L14.8343 10.648C15.0183 10.536 15.1943 10.48 15.3623 10.48C15.5383 10.48 15.6823 10.536 15.7943 10.648C15.9063 10.76 15.9623 10.912 15.9623 11.104V17.98H17.3543Z" fill="white"/>
<circle cx="126.5" cy="15.5" r="15.5" fill="#0ACF83"/>
<path d="M129.438 17.98C129.63 17.98 129.774 18.024 129.87 18.112C129.974 18.2 130.026 18.324 130.026 18.484C130.026 18.828 129.83 19 129.438 19H124.806C124.63 19 124.49 18.952 124.386 18.856C124.29 18.752 124.242 18.624 124.242 18.472C124.242 18.288 124.314 18.12 124.458 17.968L127.278 14.884C127.654 14.476 127.926 14.104 128.094 13.768C128.262 13.432 128.346 13.1 128.346 12.772C128.346 12.348 128.222 12.024 127.974 11.8C127.734 11.568 127.39 11.452 126.942 11.452C126.262 11.452 125.586 11.712 124.914 12.232C124.826 12.288 124.75 12.332 124.686 12.364C124.63 12.388 124.57 12.4 124.506 12.4C124.394 12.4 124.298 12.348 124.218 12.244C124.138 12.14 124.098 12.016 124.098 11.872C124.098 11.672 124.178 11.512 124.338 11.392C124.674 11.104 125.078 10.876 125.55 10.708C126.022 10.532 126.498 10.444 126.978 10.444C127.77 10.444 128.398 10.648 128.862 11.056C129.334 11.456 129.57 12 129.57 12.688C129.57 13.176 129.462 13.64 129.246 14.08C129.038 14.52 128.686 15.012 128.19 15.556L125.922 17.98H129.438Z" fill="white"/>
<circle cx="248.5" cy="15.5" r="15" fill="white" stroke="#D1D1D1"/>
<path d="M250.214 14.656C250.726 14.8 251.114 15.048 251.378 15.4C251.642 15.744 251.774 16.18 251.774 16.708C251.774 17.444 251.514 18.024 250.994 18.448C250.482 18.872 249.786 19.084 248.906 19.084C248.386 19.084 247.886 19 247.406 18.832C246.934 18.664 246.534 18.432 246.206 18.136C246.046 18.008 245.966 17.848 245.966 17.656C245.966 17.512 246.006 17.392 246.086 17.296C246.166 17.192 246.262 17.14 246.374 17.14C246.494 17.14 246.63 17.192 246.782 17.296C247.126 17.552 247.462 17.748 247.79 17.884C248.126 18.012 248.486 18.076 248.87 18.076C250.006 18.076 250.574 17.592 250.574 16.624C250.574 16.152 250.422 15.8 250.118 15.568C249.822 15.328 249.37 15.208 248.762 15.208H248.102C247.95 15.208 247.83 15.16 247.742 15.064C247.654 14.96 247.61 14.84 247.61 14.704C247.61 14.576 247.654 14.464 247.742 14.368C247.83 14.264 247.95 14.212 248.102 14.212H248.57C249.154 14.212 249.598 14.092 249.902 13.852C250.214 13.604 250.37 13.244 250.37 12.772C250.37 12.356 250.242 12.032 249.986 11.8C249.738 11.568 249.386 11.452 248.93 11.452C248.258 11.452 247.586 11.712 246.914 12.232C246.762 12.336 246.626 12.388 246.506 12.388C246.394 12.388 246.298 12.34 246.218 12.244C246.138 12.14 246.098 12.016 246.098 11.872C246.098 11.68 246.178 11.52 246.338 11.392C246.666 11.096 247.062 10.864 247.526 10.696C247.998 10.528 248.482 10.444 248.978 10.444C249.77 10.444 250.398 10.64 250.862 11.032C251.334 11.424 251.57 11.956 251.57 12.628C251.57 13.108 251.45 13.528 251.21 13.888C250.978 14.24 250.646 14.496 250.214 14.656Z" fill="#4F4F4F"/>
</svg>
