<svg width="26" height="26" viewBox="0 0 26 26" fill="none" xmlns="http://www.w3.org/2000/svg">
<path d="M13.706 5.99805H12.2968C12.1679 5.99805 12.0624 6.10352 12.0624 6.23243V14.2979C12.0624 14.374 12.0976 14.4443 12.1591 14.4883L17.0019 18.0244C17.1073 18.1006 17.2538 18.0801 17.33 17.9746L18.1679 16.832C18.247 16.7236 18.2236 16.5772 18.1181 16.5039L13.9403 13.4834V6.23243C13.9403 6.10352 13.8349 5.99805 13.706 5.99805ZM20.1454 8.20118L24.7392 9.32325C24.8857 9.3584 25.0292 9.24707 25.0292 9.09766L25.0527 4.36621C25.0527 4.16993 24.8271 4.0586 24.6747 4.18164L20.0575 7.78809C20.0226 7.81508 19.9961 7.85138 19.9809 7.8928C19.9657 7.93423 19.9625 7.97909 19.9717 8.02225C19.9809 8.0654 20.0021 8.10508 20.0328 8.13674C20.0635 8.16839 20.1026 8.19073 20.1454 8.20118ZM25.0585 17.0225L23.3974 16.4512C23.3395 16.4313 23.2761 16.4349 23.2208 16.4612C23.1655 16.4875 23.1227 16.5344 23.1015 16.5918C23.0458 16.7412 22.9872 16.8877 22.9257 17.0342C22.4042 18.2676 21.6571 19.3779 20.7021 20.3301C19.7576 21.2775 18.6383 22.0326 17.4062 22.5537C16.1298 23.0934 14.7578 23.3704 13.372 23.3682C11.9716 23.3682 10.6152 23.0957 9.33781 22.5537C8.1057 22.0326 6.98638 21.2775 6.04191 20.3301C5.08976 19.3779 4.34269 18.2676 3.81828 17.0342C3.28161 15.7571 3.00665 14.3853 3.00968 13C3.00968 11.5996 3.28214 10.2402 3.82414 8.96289C4.34562 7.7295 5.09269 6.61914 6.04777 5.667C6.99224 4.71959 8.11156 3.96443 9.34367 3.44336C10.6152 2.90137 11.9745 2.62891 13.3749 2.62891C14.7753 2.62891 16.1318 2.90137 17.4091 3.44336C18.6412 3.96443 19.7605 4.71959 20.705 5.667C21.0038 5.96875 21.2851 6.28223 21.5429 6.61329L23.2948 5.24219C20.9892 2.29493 17.4003 0.399417 13.3691 0.402347C6.34953 0.405277 0.712809 6.10645 0.783121 13.1289C0.853434 20.0283 6.46379 25.5977 13.3749 25.5977C18.8095 25.5977 23.4384 22.1523 25.2021 17.3272C25.246 17.2041 25.1816 17.0664 25.0585 17.0225Z" fill="white"/>
</svg>
