<svg width="20" height="22" viewBox="0 0 20 22" fill="none" xmlns="http://www.w3.org/2000/svg">
<path d="M13.646 11.71C14.6264 10.9387 15.342 9.88092 15.6933 8.68394C16.0445 7.48697 16.014 6.21027 15.6058 5.03147C15.1977 3.85267 14.4323 2.83039 13.4161 2.10686C12.3999 1.38332 11.1835 0.994507 9.93603 0.994507C8.68858 0.994507 7.47215 1.38332 6.45596 2.10686C5.43978 2.83039 4.67438 3.85267 4.26624 5.03147C3.85811 6.21027 3.82754 7.48697 4.17879 8.68394C4.53004 9.88092 5.24564 10.9387 6.22603 11.71C4.54611 12.383 3.08032 13.4994 1.98492 14.9399C0.88953 16.3805 0.205595 18.0913 0.00603184 19.89C-0.00841357 20.0213 0.00314838 20.1542 0.0400573 20.2811C0.0769662 20.4079 0.138499 20.5263 0.221143 20.6293C0.388051 20.8375 0.630815 20.9708 0.896032 21C1.16125 21.0292 1.42719 20.9518 1.63536 20.7849C1.84352 20.618 1.97686 20.3752 2.00603 20.11C2.22562 18.1552 3.15772 16.3498 4.62425 15.0388C6.09078 13.7278 7.98893 13.003 9.95603 13.003C11.9231 13.003 13.8213 13.7278 15.2878 15.0388C16.7543 16.3498 17.6864 18.1552 17.906 20.11C17.9332 20.3557 18.0505 20.5827 18.2351 20.747C18.4198 20.9114 18.6588 21.0015 18.906 21H19.016C19.2782 20.9698 19.5178 20.8373 19.6826 20.6313C19.8474 20.4252 19.9241 20.1624 19.896 19.9C19.6955 18.0962 19.0079 16.381 17.9069 14.9382C16.8059 13.4954 15.3329 12.3795 13.646 11.71V11.71ZM9.93603 11C9.14491 11 8.37155 10.7654 7.71375 10.3259C7.05595 9.88636 6.54326 9.26164 6.24051 8.53074C5.93776 7.79983 5.85855 6.99557 6.01289 6.21964C6.16723 5.44372 6.54819 4.73099 7.1076 4.17158C7.66701 3.61217 8.37975 3.2312 9.15567 3.07686C9.9316 2.92252 10.7359 3.00173 11.4668 3.30448C12.1977 3.60724 12.8224 4.11993 13.2619 4.77772C13.7014 5.43552 13.936 6.20888 13.936 7C13.936 8.06087 13.5146 9.07828 12.7645 9.82843C12.0143 10.5786 10.9969 11 9.93603 11Z" fill="#061E38"/>
</svg>
