<svg width="25" height="23" viewBox="0 0 25 23" fill="none" xmlns="http://www.w3.org/2000/svg">
<path d="M21.25 5H20V3.75C20 2.75544 19.6049 1.80161 18.9017 1.09835C18.1984 0.395088 17.2446 0 16.25 0H3.75C2.75544 0 1.80161 0.395088 1.09835 1.09835C0.395088 1.80161 0 2.75544 0 3.75V18.75C0 19.7446 0.395088 20.6984 1.09835 21.4017C1.80161 22.1049 2.75544 22.5 3.75 22.5H21.25C22.2446 22.5 23.1984 22.1049 23.9017 21.4017C24.6049 20.6984 25 19.7446 25 18.75V8.75C25 7.75544 24.6049 6.80161 23.9017 6.09835C23.1984 5.39509 22.2446 5 21.25 5ZM3.75 2.5H16.25C16.5815 2.5 16.8995 2.6317 17.1339 2.86612C17.3683 3.10054 17.5 3.41848 17.5 3.75V5H3.75C3.41848 5 3.10054 4.8683 2.86612 4.63388C2.6317 4.39946 2.5 4.08152 2.5 3.75C2.5 3.41848 2.6317 3.10054 2.86612 2.86612C3.10054 2.6317 3.41848 2.5 3.75 2.5ZM22.5 15H21.25C20.9185 15 20.6005 14.8683 20.3661 14.6339C20.1317 14.3995 20 14.0815 20 13.75C20 13.4185 20.1317 13.1005 20.3661 12.8661C20.6005 12.6317 20.9185 12.5 21.25 12.5H22.5V15ZM22.5 10H21.25C20.2554 10 19.3016 10.3951 18.5983 11.0983C17.8951 11.8016 17.5 12.7554 17.5 13.75C17.5 14.7446 17.8951 15.6984 18.5983 16.4017C19.3016 17.1049 20.2554 17.5 21.25 17.5H22.5V18.75C22.5 19.0815 22.3683 19.3995 22.1339 19.6339C21.8995 19.8683 21.5815 20 21.25 20H3.75C3.41848 20 3.10054 19.8683 2.86612 19.6339C2.6317 19.3995 2.5 19.0815 2.5 18.75V7.2875C2.90158 7.42877 3.32429 7.50063 3.75 7.5H21.25C21.5815 7.5 21.8995 7.6317 22.1339 7.86612C22.3683 8.10054 22.5 8.41848 22.5 8.75V10Z" fill="#D1D1D1"/>
</svg>
